ISO-10303-21;
HEADER;
/* Generated by software containing ST-Developer
 * from STEP Tools, Inc. (www.steptools.com) 
 */

FILE_DESCRIPTION(
/* description */ (''),
/* implementation_level */ '2;1');

FILE_NAME(
/* name */ 'sg90_5_concave.step',
/* time_stamp */ '2026-02-01T20:52:50+09:00',
/* author */ (''),
/* organization */ (''),
/* preprocessor_version */ 'ST-DEVELOPER v20.1',
/* originating_system */ 'Autodesk Translation Framework v14.24.0.0',
/* authorisation */ '');

FILE_SCHEMA (('AUTOMOTIVE_DESIGN { 1 0 10303 214 3 1 1 }'));
ENDSEC;

DATA;
#10=MECHANICAL_DESIGN_GEOMETRIC_PRESENTATION_REPRESENTATION('',(#13),#896);
#11=SHAPE_REPRESENTATION_RELATIONSHIP('SRR','None',#903,#12);
#12=ADVANCED_BREP_SHAPE_REPRESENTATION('',(#14),#895);
#13=STYLED_ITEM('',(#912),#14);
#14=MANIFOLD_SOLID_BREP('\X2\30DC30C730A3\X0\6',#538);
#15=CONICAL_SURFACE('',#576,2.75,0.785398163397448);
#16=CONICAL_SURFACE('',#580,2.75,0.785398163397448);
#17=FACE_BOUND('',#60,.T.);
#18=FACE_BOUND('',#61,.T.);
#19=FACE_BOUND('',#62,.T.);
#20=FACE_BOUND('',#67,.T.);
#21=CYLINDRICAL_SURFACE('',#556,2.);
#22=CYLINDRICAL_SURFACE('',#568,5.25);
#23=CYLINDRICAL_SURFACE('',#578,2.55);
#24=CYLINDRICAL_SURFACE('',#582,2.55);
#25=CYLINDRICAL_SURFACE('',#590,4.);
#26=CYLINDRICAL_SURFACE('',#592,4.);
#27=FACE_OUTER_BOUND('',#56,.T.);
#28=FACE_OUTER_BOUND('',#57,.T.);
#29=FACE_OUTER_BOUND('',#58,.T.);
#30=FACE_OUTER_BOUND('',#59,.T.);
#31=FACE_OUTER_BOUND('',#63,.T.);
#32=FACE_OUTER_BOUND('',#64,.T.);
#33=FACE_OUTER_BOUND('',#65,.T.);
#34=FACE_OUTER_BOUND('',#66,.T.);
#35=FACE_OUTER_BOUND('',#68,.T.);
#36=FACE_OUTER_BOUND('',#69,.T.);
#37=FACE_OUTER_BOUND('',#70,.T.);
#38=FACE_OUTER_BOUND('',#71,.T.);
#39=FACE_OUTER_BOUND('',#72,.T.);
#40=FACE_OUTER_BOUND('',#73,.T.);
#41=FACE_OUTER_BOUND('',#74,.T.);
#42=FACE_OUTER_BOUND('',#75,.T.);
#43=FACE_OUTER_BOUND('',#76,.T.);
#44=FACE_OUTER_BOUND('',#77,.T.);
#45=FACE_OUTER_BOUND('',#78,.T.);
#46=FACE_OUTER_BOUND('',#79,.T.);
#47=FACE_OUTER_BOUND('',#80,.T.);
#48=FACE_OUTER_BOUND('',#81,.T.);
#49=FACE_OUTER_BOUND('',#82,.T.);
#50=FACE_OUTER_BOUND('',#83,.T.);
#51=FACE_OUTER_BOUND('',#84,.T.);
#52=FACE_OUTER_BOUND('',#85,.T.);
#53=FACE_OUTER_BOUND('',#86,.T.);
#54=FACE_OUTER_BOUND('',#87,.T.);
#55=FACE_OUTER_BOUND('',#88,.T.);
#56=EDGE_LOOP('',(#342,#343,#344,#345,#346,#347,#348,#349));
#57=EDGE_LOOP('',(#350,#351,#352,#353,#354,#355));
#58=EDGE_LOOP('',(#356,#357,#358,#359));
#59=EDGE_LOOP('',(#360,#361,#362,#363,#364,#365,#366,#367,#368,#369,#370,
#371,#372,#373));
#60=EDGE_LOOP('',(#374));
#61=EDGE_LOOP('',(#375,#376,#377,#378));
#62=EDGE_LOOP('',(#379));
#63=EDGE_LOOP('',(#380,#381,#382,#383));
#64=EDGE_LOOP('',(#384,#385,#386,#387));
#65=EDGE_LOOP('',(#388,#389,#390,#391));
#66=EDGE_LOOP('',(#392,#393,#394,#395,#396,#397,#398,#399));
#67=EDGE_LOOP('',(#400,#401,#402,#403));
#68=EDGE_LOOP('',(#404,#405,#406));
#69=EDGE_LOOP('',(#407,#408,#409,#410));
#70=EDGE_LOOP('',(#411,#412,#413,#414));
#71=EDGE_LOOP('',(#415,#416,#417,#418,#419,#420,#421));
#72=EDGE_LOOP('',(#422,#423,#424,#425));
#73=EDGE_LOOP('',(#426,#427,#428,#429,#430,#431,#432,#433));
#74=EDGE_LOOP('',(#434,#435,#436,#437));
#75=EDGE_LOOP('',(#438,#439,#440,#441));
#76=EDGE_LOOP('',(#442,#443,#444,#445));
#77=EDGE_LOOP('',(#446,#447,#448,#449));
#78=EDGE_LOOP('',(#450,#451,#452,#453));
#79=EDGE_LOOP('',(#454,#455,#456,#457));
#80=EDGE_LOOP('',(#458,#459,#460,#461));
#81=EDGE_LOOP('',(#462));
#82=EDGE_LOOP('',(#463));
#83=EDGE_LOOP('',(#464,#465,#466,#467));
#84=EDGE_LOOP('',(#468,#469,#470,#471));
#85=EDGE_LOOP('',(#472,#473,#474,#475));
#86=EDGE_LOOP('',(#476,#477,#478,#479));
#87=EDGE_LOOP('',(#480,#481,#482,#483));
#88=EDGE_LOOP('',(#484,#485,#486,#487));
#89=CIRCLE('',#553,2.);
#90=CIRCLE('',#554,4.);
#91=CIRCLE('',#557,2.);
#92=CIRCLE('',#559,2.95);
#93=CIRCLE('',#560,2.95);
#94=CIRCLE('',#563,4.);
#95=CIRCLE('',#567,5.25);
#96=CIRCLE('',#569,5.25);
#97=CIRCLE('',#574,4.);
#98=CIRCLE('',#575,4.);
#99=CIRCLE('',#577,2.55);
#100=CIRCLE('',#579,2.55);
#101=CIRCLE('',#581,2.55);
#102=CIRCLE('',#583,2.55);
#103=LINE('',#746,#162);
#104=LINE('',#748,#163);
#105=LINE('',#752,#164);
#106=LINE('',#756,#165);
#107=LINE('',#758,#166);
#108=LINE('',#759,#167);
#109=LINE('',#762,#168);
#110=LINE('',#764,#169);
#111=LINE('',#766,#170);
#112=LINE('',#768,#171);
#113=LINE('',#769,#172);
#114=LINE('',#772,#173);
#115=LINE('',#776,#174);
#116=LINE('',#778,#175);
#117=LINE('',#780,#176);
#118=LINE('',#782,#177);
#119=LINE('',#784,#178);
#120=LINE('',#786,#179);
#121=LINE('',#788,#180);
#122=LINE('',#790,#181);
#123=LINE('',#792,#182);
#124=LINE('',#794,#183);
#125=LINE('',#796,#184);
#126=LINE('',#797,#185);
#127=LINE('',#802,#186);
#128=LINE('',#804,#187);
#129=LINE('',#806,#188);
#130=LINE('',#807,#189);
#131=LINE('',#812,#190);
#132=LINE('',#813,#191);
#133=LINE('',#818,#192);
#134=LINE('',#819,#193);
#135=LINE('',#822,#194);
#136=LINE('',#824,#195);
#137=LINE('',#826,#196);
#138=LINE('',#828,#197);
#139=LINE('',#829,#198);
#140=LINE('',#832,#199);
#141=LINE('',#834,#200);
#142=LINE('',#836,#201);
#143=LINE('',#837,#202);
#144=LINE('',#840,#203);
#145=LINE('',#844,#204);
#146=LINE('',#847,#205);
#147=LINE('',#849,#206);
#148=LINE('',#850,#207);
#149=LINE('',#852,#208);
#150=LINE('',#856,#209);
#151=LINE('',#858,#210);
#152=LINE('',#862,#211);
#153=LINE('',#866,#212);
#154=LINE('',#870,#213);
#155=LINE('',#874,#214);
#156=LINE('',#877,#215);
#157=LINE('',#878,#216);
#158=LINE('',#880,#217);
#159=LINE('',#882,#218);
#160=LINE('',#887,#219);
#161=LINE('',#889,#220);
#162=VECTOR('',#599,10.);
#163=VECTOR('',#600,10.);
#164=VECTOR('',#603,10.);
#165=VECTOR('',#606,10.);
#166=VECTOR('',#607,10.);
#167=VECTOR('',#608,10.);
#168=VECTOR('',#611,10.);
#169=VECTOR('',#612,10.);
#170=VECTOR('',#613,10.);
#171=VECTOR('',#614,10.);
#172=VECTOR('',#615,10.);
#173=VECTOR('',#618,10.);
#174=VECTOR('',#623,10.);
#175=VECTOR('',#624,10.);
#176=VECTOR('',#625,10.);
#177=VECTOR('',#626,10.);
#178=VECTOR('',#627,10.);
#179=VECTOR('',#628,10.);
#180=VECTOR('',#629,10.);
#181=VECTOR('',#630,10.);
#182=VECTOR('',#631,10.);
#183=VECTOR('',#632,10.);
#184=VECTOR('',#633,10.);
#185=VECTOR('',#634,10.);
#186=VECTOR('',#637,10.);
#187=VECTOR('',#638,10.);
#188=VECTOR('',#639,10.);
#189=VECTOR('',#640,10.);
#190=VECTOR('',#645,10.);
#191=VECTOR('',#646,10.);
#192=VECTOR('',#653,10.);
#193=VECTOR('',#654,10.);
#194=VECTOR('',#657,10.);
#195=VECTOR('',#658,10.);
#196=VECTOR('',#659,10.);
#197=VECTOR('',#660,10.);
#198=VECTOR('',#661,10.);
#199=VECTOR('',#662,10.);
#200=VECTOR('',#663,10.);
#201=VECTOR('',#664,10.);
#202=VECTOR('',#665,10.);
#203=VECTOR('',#668,10.);
#204=VECTOR('',#673,10.);
#205=VECTOR('',#678,10.);
#206=VECTOR('',#681,10.);
#207=VECTOR('',#682,10.);
#208=VECTOR('',#685,10.);
#209=VECTOR('',#690,10.);
#210=VECTOR('',#691,10.);
#211=VECTOR('',#696,2.75);
#212=VECTOR('',#701,2.55);
#213=VECTOR('',#706,2.75);
#214=VECTOR('',#711,2.55);
#215=VECTOR('',#716,10.);
#216=VECTOR('',#717,10.);
#217=VECTOR('',#720,10.);
#218=VECTOR('',#723,10.);
#219=VECTOR('',#732,10.);
#220=VECTOR('',#735,10.);
#221=VERTEX_POINT('',#744);
#222=VERTEX_POINT('',#745);
#223=VERTEX_POINT('',#747);
#224=VERTEX_POINT('',#749);
#225=VERTEX_POINT('',#751);
#226=VERTEX_POINT('',#753);
#227=VERTEX_POINT('',#755);
#228=VERTEX_POINT('',#757);
#229=VERTEX_POINT('',#761);
#230=VERTEX_POINT('',#763);
#231=VERTEX_POINT('',#765);
#232=VERTEX_POINT('',#767);
#233=VERTEX_POINT('',#771);
#234=VERTEX_POINT('',#775);
#235=VERTEX_POINT('',#777);
#236=VERTEX_POINT('',#779);
#237=VERTEX_POINT('',#781);
#238=VERTEX_POINT('',#783);
#239=VERTEX_POINT('',#785);
#240=VERTEX_POINT('',#787);
#241=VERTEX_POINT('',#789);
#242=VERTEX_POINT('',#791);
#243=VERTEX_POINT('',#793);
#244=VERTEX_POINT('',#795);
#245=VERTEX_POINT('',#798);
#246=VERTEX_POINT('',#800);
#247=VERTEX_POINT('',#801);
#248=VERTEX_POINT('',#803);
#249=VERTEX_POINT('',#805);
#250=VERTEX_POINT('',#808);
#251=VERTEX_POINT('',#811);
#252=VERTEX_POINT('',#817);
#253=VERTEX_POINT('',#821);
#254=VERTEX_POINT('',#823);
#255=VERTEX_POINT('',#825);
#256=VERTEX_POINT('',#827);
#257=VERTEX_POINT('',#830);
#258=VERTEX_POINT('',#831);
#259=VERTEX_POINT('',#833);
#260=VERTEX_POINT('',#835);
#261=VERTEX_POINT('',#839);
#262=VERTEX_POINT('',#843);
#263=VERTEX_POINT('',#855);
#264=VERTEX_POINT('',#857);
#265=VERTEX_POINT('',#861);
#266=VERTEX_POINT('',#865);
#267=VERTEX_POINT('',#869);
#268=VERTEX_POINT('',#873);
#269=EDGE_CURVE('',#221,#222,#103,.T.);
#270=EDGE_CURVE('',#223,#221,#104,.T.);
#271=EDGE_CURVE('',#224,#223,#89,.T.);
#272=EDGE_CURVE('',#225,#224,#105,.T.);
#273=EDGE_CURVE('',#226,#225,#90,.T.);
#274=EDGE_CURVE('',#227,#226,#106,.T.);
#275=EDGE_CURVE('',#228,#227,#107,.T.);
#276=EDGE_CURVE('',#222,#228,#108,.T.);
#277=EDGE_CURVE('',#224,#229,#109,.T.);
#278=EDGE_CURVE('',#229,#230,#110,.T.);
#279=EDGE_CURVE('',#230,#231,#111,.T.);
#280=EDGE_CURVE('',#232,#231,#112,.T.);
#281=EDGE_CURVE('',#225,#232,#113,.T.);
#282=EDGE_CURVE('',#233,#223,#114,.T.);
#283=EDGE_CURVE('',#233,#229,#91,.T.);
#284=EDGE_CURVE('',#221,#234,#115,.T.);
#285=EDGE_CURVE('',#234,#235,#116,.T.);
#286=EDGE_CURVE('',#235,#236,#117,.T.);
#287=EDGE_CURVE('',#237,#236,#118,.T.);
#288=EDGE_CURVE('',#237,#238,#119,.T.);
#289=EDGE_CURVE('',#239,#238,#120,.T.);
#290=EDGE_CURVE('',#239,#240,#121,.T.);
#291=EDGE_CURVE('',#241,#240,#122,.T.);
#292=EDGE_CURVE('',#241,#242,#123,.T.);
#293=EDGE_CURVE('',#243,#242,#124,.T.);
#294=EDGE_CURVE('',#243,#244,#125,.T.);
#295=EDGE_CURVE('',#244,#233,#126,.T.);
#296=EDGE_CURVE('',#245,#245,#92,.T.);
#297=EDGE_CURVE('',#246,#247,#127,.T.);
#298=EDGE_CURVE('',#248,#247,#128,.T.);
#299=EDGE_CURVE('',#248,#249,#129,.T.);
#300=EDGE_CURVE('',#249,#246,#130,.T.);
#301=EDGE_CURVE('',#250,#250,#93,.T.);
#302=EDGE_CURVE('',#251,#222,#131,.T.);
#303=EDGE_CURVE('',#251,#234,#132,.T.);
#304=EDGE_CURVE('',#230,#244,#94,.T.);
#305=EDGE_CURVE('',#252,#251,#133,.T.);
#306=EDGE_CURVE('',#235,#252,#134,.T.);
#307=EDGE_CURVE('',#253,#228,#135,.T.);
#308=EDGE_CURVE('',#254,#253,#136,.T.);
#309=EDGE_CURVE('',#255,#254,#137,.T.);
#310=EDGE_CURVE('',#256,#255,#138,.T.);
#311=EDGE_CURVE('',#252,#256,#139,.T.);
#312=EDGE_CURVE('',#257,#258,#140,.T.);
#313=EDGE_CURVE('',#258,#259,#141,.T.);
#314=EDGE_CURVE('',#259,#260,#142,.T.);
#315=EDGE_CURVE('',#257,#260,#143,.T.);
#316=EDGE_CURVE('',#261,#238,#144,.T.);
#317=EDGE_CURVE('',#239,#261,#95,.T.);
#318=EDGE_CURVE('',#261,#262,#145,.T.);
#319=EDGE_CURVE('',#240,#262,#96,.T.);
#320=EDGE_CURVE('',#262,#237,#146,.T.);
#321=EDGE_CURVE('',#236,#256,#147,.T.);
#322=EDGE_CURVE('',#241,#255,#148,.T.);
#323=EDGE_CURVE('',#254,#242,#149,.T.);
#324=EDGE_CURVE('',#231,#243,#97,.T.);
#325=EDGE_CURVE('',#253,#263,#150,.T.);
#326=EDGE_CURVE('',#263,#264,#151,.T.);
#327=EDGE_CURVE('',#264,#232,#98,.T.);
#328=EDGE_CURVE('',#245,#265,#152,.T.);
#329=EDGE_CURVE('',#265,#265,#99,.T.);
#330=EDGE_CURVE('',#265,#266,#153,.T.);
#331=EDGE_CURVE('',#266,#266,#100,.T.);
#332=EDGE_CURVE('',#250,#267,#154,.T.);
#333=EDGE_CURVE('',#267,#267,#101,.T.);
#334=EDGE_CURVE('',#267,#268,#155,.T.);
#335=EDGE_CURVE('',#268,#268,#102,.T.);
#336=EDGE_CURVE('',#257,#247,#156,.T.);
#337=EDGE_CURVE('',#248,#260,#157,.T.);
#338=EDGE_CURVE('',#259,#249,#158,.T.);
#339=EDGE_CURVE('',#246,#258,#159,.T.);
#340=EDGE_CURVE('',#226,#264,#160,.T.);
#341=EDGE_CURVE('',#263,#227,#161,.T.);
#342=ORIENTED_EDGE('',*,*,#269,.F.);
#343=ORIENTED_EDGE('',*,*,#270,.F.);
#344=ORIENTED_EDGE('',*,*,#271,.F.);
#345=ORIENTED_EDGE('',*,*,#272,.F.);
#346=ORIENTED_EDGE('',*,*,#273,.F.);
#347=ORIENTED_EDGE('',*,*,#274,.F.);
#348=ORIENTED_EDGE('',*,*,#275,.F.);
#349=ORIENTED_EDGE('',*,*,#276,.F.);
#350=ORIENTED_EDGE('',*,*,#272,.T.);
#351=ORIENTED_EDGE('',*,*,#277,.T.);
#352=ORIENTED_EDGE('',*,*,#278,.T.);
#353=ORIENTED_EDGE('',*,*,#279,.T.);
#354=ORIENTED_EDGE('',*,*,#280,.F.);
#355=ORIENTED_EDGE('',*,*,#281,.F.);
#356=ORIENTED_EDGE('',*,*,#271,.T.);
#357=ORIENTED_EDGE('',*,*,#282,.F.);
#358=ORIENTED_EDGE('',*,*,#283,.T.);
#359=ORIENTED_EDGE('',*,*,#277,.F.);
#360=ORIENTED_EDGE('',*,*,#270,.T.);
#361=ORIENTED_EDGE('',*,*,#284,.T.);
#362=ORIENTED_EDGE('',*,*,#285,.T.);
#363=ORIENTED_EDGE('',*,*,#286,.T.);
#364=ORIENTED_EDGE('',*,*,#287,.F.);
#365=ORIENTED_EDGE('',*,*,#288,.T.);
#366=ORIENTED_EDGE('',*,*,#289,.F.);
#367=ORIENTED_EDGE('',*,*,#290,.T.);
#368=ORIENTED_EDGE('',*,*,#291,.F.);
#369=ORIENTED_EDGE('',*,*,#292,.T.);
#370=ORIENTED_EDGE('',*,*,#293,.F.);
#371=ORIENTED_EDGE('',*,*,#294,.T.);
#372=ORIENTED_EDGE('',*,*,#295,.T.);
#373=ORIENTED_EDGE('',*,*,#282,.T.);
#374=ORIENTED_EDGE('',*,*,#296,.F.);
#375=ORIENTED_EDGE('',*,*,#297,.T.);
#376=ORIENTED_EDGE('',*,*,#298,.F.);
#377=ORIENTED_EDGE('',*,*,#299,.T.);
#378=ORIENTED_EDGE('',*,*,#300,.T.);
#379=ORIENTED_EDGE('',*,*,#301,.F.);
#380=ORIENTED_EDGE('',*,*,#269,.T.);
#381=ORIENTED_EDGE('',*,*,#302,.F.);
#382=ORIENTED_EDGE('',*,*,#303,.T.);
#383=ORIENTED_EDGE('',*,*,#284,.F.);
#384=ORIENTED_EDGE('',*,*,#283,.F.);
#385=ORIENTED_EDGE('',*,*,#295,.F.);
#386=ORIENTED_EDGE('',*,*,#304,.F.);
#387=ORIENTED_EDGE('',*,*,#278,.F.);
#388=ORIENTED_EDGE('',*,*,#303,.F.);
#389=ORIENTED_EDGE('',*,*,#305,.F.);
#390=ORIENTED_EDGE('',*,*,#306,.F.);
#391=ORIENTED_EDGE('',*,*,#285,.F.);
#392=ORIENTED_EDGE('',*,*,#276,.T.);
#393=ORIENTED_EDGE('',*,*,#307,.F.);
#394=ORIENTED_EDGE('',*,*,#308,.F.);
#395=ORIENTED_EDGE('',*,*,#309,.F.);
#396=ORIENTED_EDGE('',*,*,#310,.F.);
#397=ORIENTED_EDGE('',*,*,#311,.F.);
#398=ORIENTED_EDGE('',*,*,#305,.T.);
#399=ORIENTED_EDGE('',*,*,#302,.T.);
#400=ORIENTED_EDGE('',*,*,#312,.T.);
#401=ORIENTED_EDGE('',*,*,#313,.T.);
#402=ORIENTED_EDGE('',*,*,#314,.T.);
#403=ORIENTED_EDGE('',*,*,#315,.F.);
#404=ORIENTED_EDGE('',*,*,#289,.T.);
#405=ORIENTED_EDGE('',*,*,#316,.F.);
#406=ORIENTED_EDGE('',*,*,#317,.F.);
#407=ORIENTED_EDGE('',*,*,#317,.T.);
#408=ORIENTED_EDGE('',*,*,#318,.T.);
#409=ORIENTED_EDGE('',*,*,#319,.F.);
#410=ORIENTED_EDGE('',*,*,#290,.F.);
#411=ORIENTED_EDGE('',*,*,#316,.T.);
#412=ORIENTED_EDGE('',*,*,#288,.F.);
#413=ORIENTED_EDGE('',*,*,#320,.F.);
#414=ORIENTED_EDGE('',*,*,#318,.F.);
#415=ORIENTED_EDGE('',*,*,#319,.T.);
#416=ORIENTED_EDGE('',*,*,#320,.T.);
#417=ORIENTED_EDGE('',*,*,#287,.T.);
#418=ORIENTED_EDGE('',*,*,#321,.T.);
#419=ORIENTED_EDGE('',*,*,#310,.T.);
#420=ORIENTED_EDGE('',*,*,#322,.F.);
#421=ORIENTED_EDGE('',*,*,#291,.T.);
#422=ORIENTED_EDGE('',*,*,#322,.T.);
#423=ORIENTED_EDGE('',*,*,#309,.T.);
#424=ORIENTED_EDGE('',*,*,#323,.T.);
#425=ORIENTED_EDGE('',*,*,#292,.F.);
#426=ORIENTED_EDGE('',*,*,#324,.T.);
#427=ORIENTED_EDGE('',*,*,#293,.T.);
#428=ORIENTED_EDGE('',*,*,#323,.F.);
#429=ORIENTED_EDGE('',*,*,#308,.T.);
#430=ORIENTED_EDGE('',*,*,#325,.T.);
#431=ORIENTED_EDGE('',*,*,#326,.T.);
#432=ORIENTED_EDGE('',*,*,#327,.T.);
#433=ORIENTED_EDGE('',*,*,#280,.T.);
#434=ORIENTED_EDGE('',*,*,#296,.T.);
#435=ORIENTED_EDGE('',*,*,#328,.T.);
#436=ORIENTED_EDGE('',*,*,#329,.T.);
#437=ORIENTED_EDGE('',*,*,#328,.F.);
#438=ORIENTED_EDGE('',*,*,#329,.F.);
#439=ORIENTED_EDGE('',*,*,#330,.T.);
#440=ORIENTED_EDGE('',*,*,#331,.T.);
#441=ORIENTED_EDGE('',*,*,#330,.F.);
#442=ORIENTED_EDGE('',*,*,#301,.T.);
#443=ORIENTED_EDGE('',*,*,#332,.T.);
#444=ORIENTED_EDGE('',*,*,#333,.T.);
#445=ORIENTED_EDGE('',*,*,#332,.F.);
#446=ORIENTED_EDGE('',*,*,#333,.F.);
#447=ORIENTED_EDGE('',*,*,#334,.T.);
#448=ORIENTED_EDGE('',*,*,#335,.T.);
#449=ORIENTED_EDGE('',*,*,#334,.F.);
#450=ORIENTED_EDGE('',*,*,#298,.T.);
#451=ORIENTED_EDGE('',*,*,#336,.F.);
#452=ORIENTED_EDGE('',*,*,#315,.T.);
#453=ORIENTED_EDGE('',*,*,#337,.F.);
#454=ORIENTED_EDGE('',*,*,#337,.T.);
#455=ORIENTED_EDGE('',*,*,#314,.F.);
#456=ORIENTED_EDGE('',*,*,#338,.T.);
#457=ORIENTED_EDGE('',*,*,#299,.F.);
#458=ORIENTED_EDGE('',*,*,#300,.F.);
#459=ORIENTED_EDGE('',*,*,#338,.F.);
#460=ORIENTED_EDGE('',*,*,#313,.F.);
#461=ORIENTED_EDGE('',*,*,#339,.F.);
#462=ORIENTED_EDGE('',*,*,#335,.F.);
#463=ORIENTED_EDGE('',*,*,#331,.F.);
#464=ORIENTED_EDGE('',*,*,#336,.T.);
#465=ORIENTED_EDGE('',*,*,#297,.F.);
#466=ORIENTED_EDGE('',*,*,#339,.T.);
#467=ORIENTED_EDGE('',*,*,#312,.F.);
#468=ORIENTED_EDGE('',*,*,#273,.T.);
#469=ORIENTED_EDGE('',*,*,#281,.T.);
#470=ORIENTED_EDGE('',*,*,#327,.F.);
#471=ORIENTED_EDGE('',*,*,#340,.F.);
#472=ORIENTED_EDGE('',*,*,#274,.T.);
#473=ORIENTED_EDGE('',*,*,#340,.T.);
#474=ORIENTED_EDGE('',*,*,#326,.F.);
#475=ORIENTED_EDGE('',*,*,#341,.T.);
#476=ORIENTED_EDGE('',*,*,#304,.T.);
#477=ORIENTED_EDGE('',*,*,#294,.F.);
#478=ORIENTED_EDGE('',*,*,#324,.F.);
#479=ORIENTED_EDGE('',*,*,#279,.F.);
#480=ORIENTED_EDGE('',*,*,#275,.T.);
#481=ORIENTED_EDGE('',*,*,#341,.F.);
#482=ORIENTED_EDGE('',*,*,#325,.F.);
#483=ORIENTED_EDGE('',*,*,#307,.T.);
#484=ORIENTED_EDGE('',*,*,#306,.T.);
#485=ORIENTED_EDGE('',*,*,#311,.T.);
#486=ORIENTED_EDGE('',*,*,#321,.F.);
#487=ORIENTED_EDGE('',*,*,#286,.F.);
#488=PLANE('',#552);
#489=PLANE('',#555);
#490=PLANE('',#558);
#491=PLANE('',#561);
#492=PLANE('',#562);
#493=PLANE('',#564);
#494=PLANE('',#565);
#495=PLANE('',#566);
#496=PLANE('',#570);
#497=PLANE('',#571);
#498=PLANE('',#572);
#499=PLANE('',#573);
#500=PLANE('',#584);
#501=PLANE('',#585);
#502=PLANE('',#586);
#503=PLANE('',#587);
#504=PLANE('',#588);
#505=PLANE('',#589);
#506=PLANE('',#591);
#507=PLANE('',#593);
#508=PLANE('',#594);
#509=ADVANCED_FACE('',(#27),#488,.T.);
#510=ADVANCED_FACE('',(#28),#489,.F.);
#511=ADVANCED_FACE('',(#29),#21,.F.);
#512=ADVANCED_FACE('',(#30,#17,#18,#19),#490,.T.);
#513=ADVANCED_FACE('',(#31),#491,.F.);
#514=ADVANCED_FACE('',(#32),#492,.T.);
#515=ADVANCED_FACE('',(#33),#493,.F.);
#516=ADVANCED_FACE('',(#34,#20),#494,.F.);
#517=ADVANCED_FACE('',(#35),#495,.F.);
#518=ADVANCED_FACE('',(#36),#22,.F.);
#519=ADVANCED_FACE('',(#37),#496,.F.);
#520=ADVANCED_FACE('',(#38),#497,.T.);
#521=ADVANCED_FACE('',(#39),#498,.T.);
#522=ADVANCED_FACE('',(#40),#499,.F.);
#523=ADVANCED_FACE('',(#41),#15,.F.);
#524=ADVANCED_FACE('',(#42),#23,.F.);
#525=ADVANCED_FACE('',(#43),#16,.F.);
#526=ADVANCED_FACE('',(#44),#24,.F.);
#527=ADVANCED_FACE('',(#45),#500,.T.);
#528=ADVANCED_FACE('',(#46),#501,.F.);
#529=ADVANCED_FACE('',(#47),#502,.F.);
#530=ADVANCED_FACE('',(#48),#503,.T.);
#531=ADVANCED_FACE('',(#49),#504,.T.);
#532=ADVANCED_FACE('',(#50),#505,.F.);
#533=ADVANCED_FACE('',(#51),#25,.F.);
#534=ADVANCED_FACE('',(#52),#506,.T.);
#535=ADVANCED_FACE('',(#53),#26,.F.);
#536=ADVANCED_FACE('',(#54),#507,.T.);
#537=ADVANCED_FACE('',(#55),#508,.T.);
#538=CLOSED_SHELL('',(#509,#510,#511,#512,#513,#514,#515,#516,#517,#518,
#519,#520,#521,#522,#523,#524,#525,#526,#527,#528,#529,#530,#531,#532,#533,
#534,#535,#536,#537));
#539=DERIVED_UNIT_ELEMENT(#541,1.);
#540=DERIVED_UNIT_ELEMENT(#898,-3.);
#541=(
MASS_UNIT()
NAMED_UNIT(*)
SI_UNIT(.KILO.,.GRAM.)
);
#542=DERIVED_UNIT((#539,#540));
#543=MEASURE_REPRESENTATION_ITEM('density measure',
POSITIVE_RATIO_MEASURE(7850.),#542);
#544=PROPERTY_DEFINITION_REPRESENTATION(#549,#546);
#545=PROPERTY_DEFINITION_REPRESENTATION(#550,#547);
#546=REPRESENTATION('material name',(#548),#895);
#547=REPRESENTATION('density',(#543),#895);
#548=DESCRIPTIVE_REPRESENTATION_ITEM('\X2\92FC\X0\','\X2\92FC\X0\');
#549=PROPERTY_DEFINITION('material property','material name',#905);
#550=PROPERTY_DEFINITION('material property','density of part',#905);
#551=AXIS2_PLACEMENT_3D('',#742,#595,#596);
#552=AXIS2_PLACEMENT_3D('',#743,#597,#598);
#553=AXIS2_PLACEMENT_3D('',#750,#601,#602);
#554=AXIS2_PLACEMENT_3D('',#754,#604,#605);
#555=AXIS2_PLACEMENT_3D('',#760,#609,#610);
#556=AXIS2_PLACEMENT_3D('',#770,#616,#617);
#557=AXIS2_PLACEMENT_3D('',#773,#619,#620);
#558=AXIS2_PLACEMENT_3D('',#774,#621,#622);
#559=AXIS2_PLACEMENT_3D('',#799,#635,#636);
#560=AXIS2_PLACEMENT_3D('',#809,#641,#642);
#561=AXIS2_PLACEMENT_3D('',#810,#643,#644);
#562=AXIS2_PLACEMENT_3D('',#814,#647,#648);
#563=AXIS2_PLACEMENT_3D('',#815,#649,#650);
#564=AXIS2_PLACEMENT_3D('',#816,#651,#652);
#565=AXIS2_PLACEMENT_3D('',#820,#655,#656);
#566=AXIS2_PLACEMENT_3D('',#838,#666,#667);
#567=AXIS2_PLACEMENT_3D('',#841,#669,#670);
#568=AXIS2_PLACEMENT_3D('',#842,#671,#672);
#569=AXIS2_PLACEMENT_3D('',#845,#674,#675);
#570=AXIS2_PLACEMENT_3D('',#846,#676,#677);
#571=AXIS2_PLACEMENT_3D('',#848,#679,#680);
#572=AXIS2_PLACEMENT_3D('',#851,#683,#684);
#573=AXIS2_PLACEMENT_3D('',#853,#686,#687);
#574=AXIS2_PLACEMENT_3D('',#854,#688,#689);
#575=AXIS2_PLACEMENT_3D('',#859,#692,#693);
#576=AXIS2_PLACEMENT_3D('',#860,#694,#695);
#577=AXIS2_PLACEMENT_3D('',#863,#697,#698);
#578=AXIS2_PLACEMENT_3D('',#864,#699,#700);
#579=AXIS2_PLACEMENT_3D('',#867,#702,#703);
#580=AXIS2_PLACEMENT_3D('',#868,#704,#705);
#581=AXIS2_PLACEMENT_3D('',#871,#707,#708);
#582=AXIS2_PLACEMENT_3D('',#872,#709,#710);
#583=AXIS2_PLACEMENT_3D('',#875,#712,#713);
#584=AXIS2_PLACEMENT_3D('',#876,#714,#715);
#585=AXIS2_PLACEMENT_3D('',#879,#718,#719);
#586=AXIS2_PLACEMENT_3D('',#881,#721,#722);
#587=AXIS2_PLACEMENT_3D('',#883,#724,#725);
#588=AXIS2_PLACEMENT_3D('',#884,#726,#727);
#589=AXIS2_PLACEMENT_3D('',#885,#728,#729);
#590=AXIS2_PLACEMENT_3D('',#886,#730,#731);
#591=AXIS2_PLACEMENT_3D('',#888,#733,#734);
#592=AXIS2_PLACEMENT_3D('',#890,#736,#737);
#593=AXIS2_PLACEMENT_3D('',#891,#738,#739);
#594=AXIS2_PLACEMENT_3D('',#892,#740,#741);
#595=DIRECTION('axis',(0.,0.,1.));
#596=DIRECTION('refdir',(1.,0.,0.));
#597=DIRECTION('center_axis',(0.,1.,0.));
#598=DIRECTION('ref_axis',(0.,0.,1.));
#599=DIRECTION('',(0.,0.,-1.));
#600=DIRECTION('',(-1.,0.,0.));
#601=DIRECTION('center_axis',(0.,1.,0.));
#602=DIRECTION('ref_axis',(-1.,0.,0.));
#603=DIRECTION('',(-0.991777866634025,0.,0.127971337630197));
#604=DIRECTION('center_axis',(0.,1.,0.));
#605=DIRECTION('ref_axis',(-1.,0.,0.));
#606=DIRECTION('',(-1.,0.,0.));
#607=DIRECTION('',(0.,0.,1.));
#608=DIRECTION('',(1.,0.,0.));
#609=DIRECTION('center_axis',(-0.127971337630197,0.,-0.991777866634025));
#610=DIRECTION('ref_axis',(0.991777866634025,0.,-0.127971337630197));
#611=DIRECTION('',(0.,-1.,0.));
#612=DIRECTION('',(0.991777866634025,0.,-0.127971337630197));
#613=DIRECTION('',(0.,-1.,0.));
#614=DIRECTION('',(-0.991777866634025,0.,0.127971337630197));
#615=DIRECTION('',(0.,-1.,0.));
#616=DIRECTION('center_axis',(0.,-1.,0.));
#617=DIRECTION('ref_axis',(-1.,0.,0.));
#618=DIRECTION('',(0.,1.,0.));
#619=DIRECTION('center_axis',(0.,-1.,0.));
#620=DIRECTION('ref_axis',(-1.,0.,0.));
#621=DIRECTION('center_axis',(0.,0.,1.));
#622=DIRECTION('ref_axis',(1.,0.,0.));
#623=DIRECTION('',(0.,-1.,0.));
#624=DIRECTION('',(1.,0.,0.));
#625=DIRECTION('',(0.,1.,0.));
#626=DIRECTION('',(1.,0.,0.));
#627=DIRECTION('',(0.,-1.,0.));
#628=DIRECTION('',(1.,0.,0.));
#629=DIRECTION('',(0.,1.,0.));
#630=DIRECTION('',(1.,0.,0.));
#631=DIRECTION('',(0.,1.,0.));
#632=DIRECTION('',(-1.,0.,0.));
#633=DIRECTION('',(0.,1.,0.));
#634=DIRECTION('',(-1.,0.,0.));
#635=DIRECTION('center_axis',(0.,0.,1.));
#636=DIRECTION('ref_axis',(-1.,0.,0.));
#637=DIRECTION('',(-1.,0.,0.));
#638=DIRECTION('',(0.,-1.,0.));
#639=DIRECTION('',(1.,0.,0.));
#640=DIRECTION('',(0.,-1.,0.));
#641=DIRECTION('center_axis',(0.,0.,1.));
#642=DIRECTION('ref_axis',(-1.,0.,0.));
#643=DIRECTION('center_axis',(1.,0.,0.));
#644=DIRECTION('ref_axis',(0.,0.,-1.));
#645=DIRECTION('',(0.,1.,0.));
#646=DIRECTION('',(0.,0.,1.));
#647=DIRECTION('center_axis',(0.,1.,0.));
#648=DIRECTION('ref_axis',(-1.,0.,0.));
#649=DIRECTION('center_axis',(0.,1.,0.));
#650=DIRECTION('ref_axis',(-1.,0.,0.));
#651=DIRECTION('center_axis',(0.,1.,0.));
#652=DIRECTION('ref_axis',(0.,0.,1.));
#653=DIRECTION('',(-1.,0.,0.));
#654=DIRECTION('',(0.,0.,-1.));
#655=DIRECTION('center_axis',(0.,0.,1.));
#656=DIRECTION('ref_axis',(1.,0.,0.));
#657=DIRECTION('',(0.,1.,0.));
#658=DIRECTION('',(1.,0.,0.));
#659=DIRECTION('',(0.,1.,0.));
#660=DIRECTION('',(-1.,0.,0.));
#661=DIRECTION('',(0.,1.,0.));
#662=DIRECTION('',(1.,0.,0.));
#663=DIRECTION('',(0.,1.,0.));
#664=DIRECTION('',(-1.,0.,0.));
#665=DIRECTION('',(0.,1.,0.));
#666=DIRECTION('center_axis',(0.,-1.,0.));
#667=DIRECTION('ref_axis',(1.,0.,0.));
#668=DIRECTION('',(0.,0.,1.));
#669=DIRECTION('center_axis',(0.,-1.,0.));
#670=DIRECTION('ref_axis',(1.,0.,0.));
#671=DIRECTION('center_axis',(0.,1.,0.));
#672=DIRECTION('ref_axis',(1.,0.,0.));
#673=DIRECTION('',(0.,1.,0.));
#674=DIRECTION('center_axis',(0.,-1.,0.));
#675=DIRECTION('ref_axis',(1.,0.,0.));
#676=DIRECTION('center_axis',(1.,0.,0.));
#677=DIRECTION('ref_axis',(0.,0.,-1.));
#678=DIRECTION('',(0.,0.,1.));
#679=DIRECTION('center_axis',(0.,1.,0.));
#680=DIRECTION('ref_axis',(0.,0.,1.));
#681=DIRECTION('',(0.,0.,-1.));
#682=DIRECTION('',(0.,0.,-1.));
#683=DIRECTION('center_axis',(1.,0.,0.));
#684=DIRECTION('ref_axis',(0.,0.,-1.));
#685=DIRECTION('',(0.,0.,1.));
#686=DIRECTION('center_axis',(0.,1.,0.));
#687=DIRECTION('ref_axis',(0.,0.,1.));
#688=DIRECTION('center_axis',(0.,1.,0.));
#689=DIRECTION('ref_axis',(-1.,0.,0.));
#690=DIRECTION('',(0.,0.,1.));
#691=DIRECTION('',(-1.,0.,0.));
#692=DIRECTION('center_axis',(0.,1.,0.));
#693=DIRECTION('ref_axis',(-1.,0.,0.));
#694=DIRECTION('center_axis',(0.,0.,1.));
#695=DIRECTION('ref_axis',(-1.,0.,0.));
#696=DIRECTION('',(-0.707106781186547,-8.65956056235493E-17,-0.707106781186547));
#697=DIRECTION('center_axis',(0.,0.,-1.));
#698=DIRECTION('ref_axis',(-1.,0.,0.));
#699=DIRECTION('center_axis',(0.,0.,-1.));
#700=DIRECTION('ref_axis',(-1.,0.,0.));
#701=DIRECTION('',(0.,0.,-1.));
#702=DIRECTION('center_axis',(0.,0.,-1.));
#703=DIRECTION('ref_axis',(-1.,0.,0.));
#704=DIRECTION('center_axis',(0.,0.,1.));
#705=DIRECTION('ref_axis',(-1.,0.,0.));
#706=DIRECTION('',(-0.707106781186547,-8.65956056235493E-17,-0.707106781186547));
#707=DIRECTION('center_axis',(0.,0.,-1.));
#708=DIRECTION('ref_axis',(-1.,0.,0.));
#709=DIRECTION('center_axis',(0.,0.,-1.));
#710=DIRECTION('ref_axis',(-1.,0.,0.));
#711=DIRECTION('',(0.,0.,-1.));
#712=DIRECTION('center_axis',(0.,0.,-1.));
#713=DIRECTION('ref_axis',(-1.,0.,0.));
#714=DIRECTION('center_axis',(1.,0.,0.));
#715=DIRECTION('ref_axis',(0.,0.,-1.));
#716=DIRECTION('',(0.,0.,1.));
#717=DIRECTION('',(0.,0.,-1.));
#718=DIRECTION('center_axis',(0.,1.,0.));
#719=DIRECTION('ref_axis',(1.,0.,0.));
#720=DIRECTION('',(0.,0.,1.));
#721=DIRECTION('center_axis',(1.,0.,0.));
#722=DIRECTION('ref_axis',(0.,0.,-1.));
#723=DIRECTION('',(0.,0.,-1.));
#724=DIRECTION('center_axis',(0.,0.,1.));
#725=DIRECTION('ref_axis',(-1.,0.,0.));
#726=DIRECTION('center_axis',(0.,0.,1.));
#727=DIRECTION('ref_axis',(-1.,0.,0.));
#728=DIRECTION('center_axis',(0.,-1.,0.));
#729=DIRECTION('ref_axis',(-1.,0.,0.));
#730=DIRECTION('center_axis',(0.,-1.,0.));
#731=DIRECTION('ref_axis',(-1.,0.,0.));
#732=DIRECTION('',(0.,-1.,0.));
#733=DIRECTION('center_axis',(0.,0.,1.));
#734=DIRECTION('ref_axis',(1.,0.,0.));
#735=DIRECTION('',(0.,1.,0.));
#736=DIRECTION('center_axis',(0.,-1.,0.));
#737=DIRECTION('ref_axis',(-1.,0.,0.));
#738=DIRECTION('center_axis',(1.,0.,0.));
#739=DIRECTION('ref_axis',(0.,0.,-1.));
#740=DIRECTION('center_axis',(1.,0.,0.));
#741=DIRECTION('ref_axis',(0.,0.,-1.));
#742=CARTESIAN_POINT('',(0.,0.,0.));
#743=CARTESIAN_POINT('Origin',(40.,38.,0.));
#744=CARTESIAN_POINT('',(15.,38.,8.55));
#745=CARTESIAN_POINT('',(15.,38.,0.));
#746=CARTESIAN_POINT('',(15.,38.,0.));
#747=CARTESIAN_POINT('',(49.5,38.,8.55));
#748=CARTESIAN_POINT('',(30.,38.,8.55));
#749=CARTESIAN_POINT('',(51.5,38.,6.55));
#750=CARTESIAN_POINT('Origin',(51.5,38.,8.55));
#751=CARTESIAN_POINT('',(67.,38.,4.55));
#752=CARTESIAN_POINT('',(46.2598259979529,38.,7.22615148413511));
#753=CARTESIAN_POINT('',(71.,38.,8.55));
#754=CARTESIAN_POINT('Origin',(67.,38.,8.55));
#755=CARTESIAN_POINT('',(74.,38.,8.55));
#756=CARTESIAN_POINT('',(30.,38.,8.55));
#757=CARTESIAN_POINT('',(74.,38.,0.));
#758=CARTESIAN_POINT('',(74.,38.,2.1375));
#759=CARTESIAN_POINT('',(21.9,38.,0.));
#760=CARTESIAN_POINT('Origin',(51.5,33.5,6.55));
#761=CARTESIAN_POINT('',(51.5,34.5,6.55));
#762=CARTESIAN_POINT('',(51.5,33.5,6.55));
#763=CARTESIAN_POINT('',(65.9846468781985,34.5,4.6810133060389));
#764=CARTESIAN_POINT('',(54.5658904810645,34.5,6.15440122824975));
#765=CARTESIAN_POINT('',(65.9846468781985,33.,4.6810133060389));
#766=CARTESIAN_POINT('',(65.9846468781985,33.5,4.6810133060389));
#767=CARTESIAN_POINT('',(67.,33.,4.55));
#768=CARTESIAN_POINT('',(45.7172466734903,33.,7.29616171954964));
#769=CARTESIAN_POINT('',(67.,33.5,4.55));
#770=CARTESIAN_POINT('Origin',(51.5,33.5,8.55));
#771=CARTESIAN_POINT('',(49.5,34.5,8.55));
#772=CARTESIAN_POINT('',(49.5,33.5,8.55));
#773=CARTESIAN_POINT('Origin',(51.5,34.5,8.55));
#774=CARTESIAN_POINT('Origin',(20.,13.75,8.55));
#775=CARTESIAN_POINT('',(15.,-3.5,8.55));
#776=CARTESIAN_POINT('',(15.,13.375,8.55));
#777=CARTESIAN_POINT('',(74.,-3.5,8.55));
#778=CARTESIAN_POINT('',(30.,-3.5,8.55));
#779=CARTESIAN_POINT('',(74.,1.,8.55));
#780=CARTESIAN_POINT('',(74.,-6.,8.55));
#781=CARTESIAN_POINT('',(72.,1.,8.55));
#782=CARTESIAN_POINT('',(40.,1.,8.55));
#783=CARTESIAN_POINT('',(72.,-2.,8.55));
#784=CARTESIAN_POINT('',(72.,5.875,8.55));
#785=CARTESIAN_POINT('',(61.75,-2.,8.55));
#786=CARTESIAN_POINT('',(43.4375,-2.,8.55));
#787=CARTESIAN_POINT('',(61.75,1.,8.55));
#788=CARTESIAN_POINT('',(61.75,-9.,8.55));
#789=CARTESIAN_POINT('',(45.,1.,8.55));
#790=CARTESIAN_POINT('',(40.,1.,8.55));
#791=CARTESIAN_POINT('',(45.,33.,8.55));
#792=CARTESIAN_POINT('',(45.,20.625,8.55));
#793=CARTESIAN_POINT('',(63.,33.,8.55));
#794=CARTESIAN_POINT('',(30.,33.,8.55));
#795=CARTESIAN_POINT('',(63.,34.5,8.55));
#796=CARTESIAN_POINT('',(63.,33.5,8.55));
#797=CARTESIAN_POINT('',(38.8711617195496,34.5,8.55));
#798=CARTESIAN_POINT('',(37.95,26.25,8.55));
#799=CARTESIAN_POINT('Origin',(35.,26.25,8.55));
#800=CARTESIAN_POINT('',(29.6,4.25,8.55));
#801=CARTESIAN_POINT('',(17.,4.25,8.55));
#802=CARTESIAN_POINT('',(17.3,4.25,8.55));
#803=CARTESIAN_POINT('',(17.,30.25,8.55));
#804=CARTESIAN_POINT('',(17.,9.,8.55));
#805=CARTESIAN_POINT('',(29.6,30.25,8.55));
#806=CARTESIAN_POINT('',(17.3,30.25,8.55));
#807=CARTESIAN_POINT('',(29.6,22.,8.55));
#808=CARTESIAN_POINT('',(37.95,6.25,8.55));
#809=CARTESIAN_POINT('Origin',(35.,6.25,8.55));
#810=CARTESIAN_POINT('Origin',(15.,13.,0.));
#811=CARTESIAN_POINT('',(15.,-3.5,0.));
#812=CARTESIAN_POINT('',(15.,15.,0.));
#813=CARTESIAN_POINT('',(15.,-3.5,4.275));
#814=CARTESIAN_POINT('Origin',(57.7423234390993,34.5,6.61550665301945));
#815=CARTESIAN_POINT('Origin',(67.,34.5,8.55));
#816=CARTESIAN_POINT('Origin',(40.,-3.5,8.55));
#817=CARTESIAN_POINT('',(74.,-3.5,0.));
#818=CARTESIAN_POINT('',(21.9,-3.5,0.));
#819=CARTESIAN_POINT('',(74.,-3.5,6.4125));
#820=CARTESIAN_POINT('Origin',(3.8,17.,0.));
#821=CARTESIAN_POINT('',(74.,33.,0.));
#822=CARTESIAN_POINT('',(74.,27.5,0.));
#823=CARTESIAN_POINT('',(45.,33.,0.));
#824=CARTESIAN_POINT('',(21.9,33.,0.));
#825=CARTESIAN_POINT('',(45.,1.,0.));
#826=CARTESIAN_POINT('',(45.,0.,0.));
#827=CARTESIAN_POINT('',(74.,1.,0.));
#828=CARTESIAN_POINT('',(40.,1.,0.));
#829=CARTESIAN_POINT('',(74.,-6.,0.));
#830=CARTESIAN_POINT('',(17.,4.25,-1.11022302462516E-15));
#831=CARTESIAN_POINT('',(29.6,4.25,-1.11022302462516E-15));
#832=CARTESIAN_POINT('',(9.2,4.25,0.));
#833=CARTESIAN_POINT('',(29.6,30.25,-1.11022302462516E-15));
#834=CARTESIAN_POINT('',(29.6,23.625,0.));
#835=CARTESIAN_POINT('',(17.,30.25,-1.11022302462516E-15));
#836=CARTESIAN_POINT('',(9.2,30.25,0.));
#837=CARTESIAN_POINT('',(17.,10.625,0.));
#838=CARTESIAN_POINT('Origin',(66.875,-2.,5.925));
#839=CARTESIAN_POINT('',(72.,-2.,6.94921894064179));
#840=CARTESIAN_POINT('',(72.,-2.,7.2375));
#841=CARTESIAN_POINT('Origin',(67.,-2.,8.55));
#842=CARTESIAN_POINT('Origin',(67.,-9.,8.55));
#843=CARTESIAN_POINT('',(72.,1.,6.94921894064179));
#844=CARTESIAN_POINT('',(72.,-6.,6.94921894064179));
#845=CARTESIAN_POINT('Origin',(67.,1.,8.55));
#846=CARTESIAN_POINT('Origin',(72.,-9.,8.55));
#847=CARTESIAN_POINT('',(72.,1.,4.275));
#848=CARTESIAN_POINT('Origin',(40.,1.,0.));
#849=CARTESIAN_POINT('',(74.,1.,8.55));
#850=CARTESIAN_POINT('',(45.,1.,2.1375));
#851=CARTESIAN_POINT('Origin',(45.,-3.,4.275));
#852=CARTESIAN_POINT('',(45.,33.,6.4125));
#853=CARTESIAN_POINT('Origin',(40.,33.,8.55));
#854=CARTESIAN_POINT('Origin',(67.,33.,8.55));
#855=CARTESIAN_POINT('',(74.,33.,8.55));
#856=CARTESIAN_POINT('',(74.,33.,6.4125));
#857=CARTESIAN_POINT('',(71.,33.,8.55));
#858=CARTESIAN_POINT('',(30.,33.,8.55));
#859=CARTESIAN_POINT('Origin',(67.,33.,8.55));
#860=CARTESIAN_POINT('Origin',(35.,26.25,8.35));
#861=CARTESIAN_POINT('',(37.55,26.25,8.15));
#862=CARTESIAN_POINT('',(37.75,26.25,8.35));
#863=CARTESIAN_POINT('Origin',(35.,26.25,8.15));
#864=CARTESIAN_POINT('Origin',(35.,26.25,8.55));
#865=CARTESIAN_POINT('',(37.55,26.25,5.55));
#866=CARTESIAN_POINT('',(37.55,26.25,8.55));
#867=CARTESIAN_POINT('Origin',(35.,26.25,5.55));
#868=CARTESIAN_POINT('Origin',(35.,6.25,8.35));
#869=CARTESIAN_POINT('',(37.55,6.25,8.15));
#870=CARTESIAN_POINT('',(37.75,6.25,8.35));
#871=CARTESIAN_POINT('Origin',(35.,6.25,8.15));
#872=CARTESIAN_POINT('Origin',(35.,6.25,8.55));
#873=CARTESIAN_POINT('',(37.55,6.25,5.55));
#874=CARTESIAN_POINT('',(37.55,6.25,8.55));
#875=CARTESIAN_POINT('Origin',(35.,6.25,5.55));
#876=CARTESIAN_POINT('Origin',(17.,4.25,8.55));
#877=CARTESIAN_POINT('',(17.,4.25,8.55));
#878=CARTESIAN_POINT('',(17.,30.25,8.55));
#879=CARTESIAN_POINT('Origin',(2.,30.25,8.55));
#880=CARTESIAN_POINT('',(29.6,30.25,8.55));
#881=CARTESIAN_POINT('Origin',(29.6,30.25,8.55));
#882=CARTESIAN_POINT('',(29.6,4.25,8.55));
#883=CARTESIAN_POINT('Origin',(35.,6.25,5.55));
#884=CARTESIAN_POINT('Origin',(35.,26.25,5.55));
#885=CARTESIAN_POINT('Origin',(14.6,4.25,8.55));
#886=CARTESIAN_POINT('Origin',(67.,33.5,8.55));
#887=CARTESIAN_POINT('',(71.,33.5,8.55));
#888=CARTESIAN_POINT('Origin',(20.,13.75,8.55));
#889=CARTESIAN_POINT('',(74.,33.5,8.55));
#890=CARTESIAN_POINT('Origin',(67.,33.5,8.55));
#891=CARTESIAN_POINT('Origin',(74.,30.5,4.275));
#892=CARTESIAN_POINT('Origin',(74.,-7.5,4.275));
#893=UNCERTAINTY_MEASURE_WITH_UNIT(LENGTH_MEASURE(0.01),#897,
'DISTANCE_ACCURACY_VALUE',
'Maximum model space distance between geometric entities at asserted c
onnectivities');
#894=UNCERTAINTY_MEASURE_WITH_UNIT(LENGTH_MEASURE(0.01),#897,
'DISTANCE_ACCURACY_VALUE',
'Maximum model space distance between geometric entities at asserted c
onnectivities');
#895=(
GEOMETRIC_REPRESENTATION_CONTEXT(3)
GLOBAL_UNCERTAINTY_ASSIGNED_CONTEXT((#893))
GLOBAL_UNIT_ASSIGNED_CONTEXT((#897,#899,#900))
REPRESENTATION_CONTEXT('','3D')
);
#896=(
GEOMETRIC_REPRESENTATION_CONTEXT(3)
GLOBAL_UNCERTAINTY_ASSIGNED_CONTEXT((#894))
GLOBAL_UNIT_ASSIGNED_CONTEXT((#897,#899,#900))
REPRESENTATION_CONTEXT('','3D')
);
#897=(
LENGTH_UNIT()
NAMED_UNIT(*)
SI_UNIT(.MILLI.,.METRE.)
);
#898=(
LENGTH_UNIT()
NAMED_UNIT(*)
SI_UNIT($,.METRE.)
);
#899=(
NAMED_UNIT(*)
PLANE_ANGLE_UNIT()
SI_UNIT($,.RADIAN.)
);
#900=(
NAMED_UNIT(*)
SI_UNIT($,.STERADIAN.)
SOLID_ANGLE_UNIT()
);
#901=SHAPE_DEFINITION_REPRESENTATION(#902,#903);
#902=PRODUCT_DEFINITION_SHAPE('',$,#905);
#903=SHAPE_REPRESENTATION('',(#551),#895);
#904=PRODUCT_DEFINITION_CONTEXT('part definition',#909,'design');
#905=PRODUCT_DEFINITION('sg90_5_concave','sg90_5_concave v10',#906,#904);
#906=PRODUCT_DEFINITION_FORMATION('',$,#911);
#907=PRODUCT_RELATED_PRODUCT_CATEGORY('sg90_5_concave v10',
'sg90_5_concave v10',(#911));
#908=APPLICATION_PROTOCOL_DEFINITION('international standard',
'automotive_design',2009,#909);
#909=APPLICATION_CONTEXT(
'Core Data for Automotive Mechanical Design Process');
#910=PRODUCT_CONTEXT('part definition',#909,'mechanical');
#911=PRODUCT('sg90_5_concave','sg90_5_concave v10',$,(#910));
#912=PRESENTATION_STYLE_ASSIGNMENT((#913));
#913=SURFACE_STYLE_USAGE(.BOTH.,#914);
#914=SURFACE_SIDE_STYLE('',(#915));
#915=SURFACE_STYLE_FILL_AREA(#916);
#916=FILL_AREA_STYLE('\X2\92FC\X0\ - \X2\30B530C630F3\X0\',(#917));
#917=FILL_AREA_STYLE_COLOUR('\X2\92FC\X0\ - \X2\30B530C630F3\X0\',#918);
#918=COLOUR_RGB('\X2\92FC\X0\ - \X2\30B530C630F3\X0\',0.627450980392157,
0.627450980392157,0.627450980392157);
ENDSEC;
END-ISO-10303-21;
