ISO-10303-21;
HEADER;
/* Generated by software containing ST-Developer
 * from STEP Tools, Inc. (www.steptools.com) 
 */

FILE_DESCRIPTION(
/* description */ (''),
/* implementation_level */ '2;1');

FILE_NAME(
/* name */ 'sg90_arm_middle_deko.step',
/* time_stamp */ '2026-02-01T19:34:09+09:00',
/* author */ (''),
/* organization */ (''),
/* preprocessor_version */ 'ST-DEVELOPER v20.1',
/* originating_system */ 'Autodesk Translation Framework v14.24.0.0',
/* authorisation */ '');

FILE_SCHEMA (('AUTOMOTIVE_DESIGN { 1 0 10303 214 3 1 1 }'));
ENDSEC;

DATA;
#10=MECHANICAL_DESIGN_GEOMETRIC_PRESENTATION_REPRESENTATION('',(#13),#1422);
#11=SHAPE_REPRESENTATION_RELATIONSHIP('SRR','None',#1429,#12);
#12=ADVANCED_BREP_SHAPE_REPRESENTATION('',(#14),#1421);
#13=STYLED_ITEM('',(#1438),#14);
#14=MANIFOLD_SOLID_BREP('\X2\30DC30C730A3\X0\6',#868);
#15=CONICAL_SURFACE('',#905,2.75,0.785398163397448);
#16=CONICAL_SURFACE('',#911,2.75,0.785398163397448);
#17=CYLINDRICAL_SURFACE('',#888,5.25);
#18=CYLINDRICAL_SURFACE('',#895,4.);
#19=CYLINDRICAL_SURFACE('',#898,2.);
#20=CYLINDRICAL_SURFACE('',#908,2.55);
#21=CYLINDRICAL_SURFACE('',#913,2.55);
#22=CYLINDRICAL_SURFACE('',#917,4.);
#23=CYLINDRICAL_SURFACE('',#921,5.);
#24=FACE_BOUND('',#90,.T.);
#25=FACE_BOUND('',#105,.T.);
#26=CIRCLE('',#885,2.95);
#27=CIRCLE('',#887,5.25);
#28=CIRCLE('',#889,5.25);
#29=CIRCLE('',#893,4.);
#30=CIRCLE('',#894,2.);
#31=CIRCLE('',#896,4.);
#32=CIRCLE('',#899,2.);
#33=CIRCLE('',#901,4.);
#34=CIRCLE('',#903,4.);
#35=CIRCLE('',#906,2.95);
#36=CIRCLE('',#907,2.55);
#37=CIRCLE('',#909,2.55);
#38=CIRCLE('',#912,2.55);
#39=CIRCLE('',#914,2.55);
#40=CIRCLE('',#922,5.);
#41=CIRCLE('',#923,5.);
#42=FACE_OUTER_BOUND('',#87,.T.);
#43=FACE_OUTER_BOUND('',#88,.T.);
#44=FACE_OUTER_BOUND('',#89,.T.);
#45=FACE_OUTER_BOUND('',#91,.T.);
#46=FACE_OUTER_BOUND('',#92,.T.);
#47=FACE_OUTER_BOUND('',#93,.T.);
#48=FACE_OUTER_BOUND('',#94,.T.);
#49=FACE_OUTER_BOUND('',#95,.T.);
#50=FACE_OUTER_BOUND('',#96,.T.);
#51=FACE_OUTER_BOUND('',#97,.T.);
#52=FACE_OUTER_BOUND('',#98,.T.);
#53=FACE_OUTER_BOUND('',#99,.T.);
#54=FACE_OUTER_BOUND('',#100,.T.);
#55=FACE_OUTER_BOUND('',#101,.T.);
#56=FACE_OUTER_BOUND('',#102,.T.);
#57=FACE_OUTER_BOUND('',#103,.T.);
#58=FACE_OUTER_BOUND('',#104,.T.);
#59=FACE_OUTER_BOUND('',#106,.T.);
#60=FACE_OUTER_BOUND('',#107,.T.);
#61=FACE_OUTER_BOUND('',#108,.T.);
#62=FACE_OUTER_BOUND('',#109,.T.);
#63=FACE_OUTER_BOUND('',#110,.T.);
#64=FACE_OUTER_BOUND('',#111,.T.);
#65=FACE_OUTER_BOUND('',#112,.T.);
#66=FACE_OUTER_BOUND('',#113,.T.);
#67=FACE_OUTER_BOUND('',#114,.T.);
#68=FACE_OUTER_BOUND('',#115,.T.);
#69=FACE_OUTER_BOUND('',#116,.T.);
#70=FACE_OUTER_BOUND('',#117,.T.);
#71=FACE_OUTER_BOUND('',#118,.T.);
#72=FACE_OUTER_BOUND('',#119,.T.);
#73=FACE_OUTER_BOUND('',#120,.T.);
#74=FACE_OUTER_BOUND('',#121,.T.);
#75=FACE_OUTER_BOUND('',#122,.T.);
#76=FACE_OUTER_BOUND('',#123,.T.);
#77=FACE_OUTER_BOUND('',#124,.T.);
#78=FACE_OUTER_BOUND('',#125,.T.);
#79=FACE_OUTER_BOUND('',#126,.T.);
#80=FACE_OUTER_BOUND('',#127,.T.);
#81=FACE_OUTER_BOUND('',#128,.T.);
#82=FACE_OUTER_BOUND('',#129,.T.);
#83=FACE_OUTER_BOUND('',#130,.T.);
#84=FACE_OUTER_BOUND('',#131,.T.);
#85=FACE_OUTER_BOUND('',#132,.T.);
#86=FACE_OUTER_BOUND('',#133,.T.);
#87=EDGE_LOOP('',(#545,#546,#547,#548));
#88=EDGE_LOOP('',(#549,#550,#551,#552));
#89=EDGE_LOOP('',(#553,#554,#555,#556,#557,#558,#559,#560,#561,#562,#563,
#564,#565,#566,#567,#568,#569,#570,#571,#572,#573,#574,#575,#576,#577,#578,
#579,#580));
#90=EDGE_LOOP('',(#581));
#91=EDGE_LOOP('',(#582,#583,#584));
#92=EDGE_LOOP('',(#585,#586,#587,#588));
#93=EDGE_LOOP('',(#589,#590,#591,#592));
#94=EDGE_LOOP('',(#593,#594,#595,#596,#597,#598,#599));
#95=EDGE_LOOP('',(#600,#601,#602,#603,#604,#605,#606,#607));
#96=EDGE_LOOP('',(#608,#609,#610,#611));
#97=EDGE_LOOP('',(#612,#613,#614,#615,#616,#617));
#98=EDGE_LOOP('',(#618,#619,#620,#621));
#99=EDGE_LOOP('',(#622,#623,#624,#625));
#100=EDGE_LOOP('',(#626,#627,#628,#629,#630,#631,#632,#633));
#101=EDGE_LOOP('',(#634,#635,#636,#637));
#102=EDGE_LOOP('',(#638,#639,#640,#641));
#103=EDGE_LOOP('',(#642,#643,#644,#645));
#104=EDGE_LOOP('',(#646,#647,#648,#649,#650,#651,#652,#653));
#105=EDGE_LOOP('',(#654));
#106=EDGE_LOOP('',(#655,#656,#657,#658));
#107=EDGE_LOOP('',(#659,#660,#661,#662));
#108=EDGE_LOOP('',(#663,#664,#665,#666));
#109=EDGE_LOOP('',(#667,#668,#669,#670));
#110=EDGE_LOOP('',(#671,#672,#673,#674));
#111=EDGE_LOOP('',(#675,#676,#677,#678));
#112=EDGE_LOOP('',(#679,#680,#681,#682));
#113=EDGE_LOOP('',(#683,#684,#685,#686));
#114=EDGE_LOOP('',(#687,#688,#689,#690));
#115=EDGE_LOOP('',(#691,#692));
#116=EDGE_LOOP('',(#693,#694,#695,#696));
#117=EDGE_LOOP('',(#697,#698,#699,#700));
#118=EDGE_LOOP('',(#701,#702,#703,#704));
#119=EDGE_LOOP('',(#705,#706,#707,#708));
#120=EDGE_LOOP('',(#709,#710,#711,#712));
#121=EDGE_LOOP('',(#713,#714,#715,#716));
#122=EDGE_LOOP('',(#717,#718,#719,#720));
#123=EDGE_LOOP('',(#721,#722,#723,#724));
#124=EDGE_LOOP('',(#725,#726,#727,#728,#729,#730));
#125=EDGE_LOOP('',(#731,#732,#733,#734));
#126=EDGE_LOOP('',(#735,#736,#737,#738));
#127=EDGE_LOOP('',(#739,#740,#741,#742));
#128=EDGE_LOOP('',(#743,#744,#745,#746,#747,#748,#749,#750));
#129=EDGE_LOOP('',(#751,#752,#753,#754,#755,#756,#757,#758));
#130=EDGE_LOOP('',(#759,#760,#761,#762,#763,#764,#765,#766,#767,#768,#769,
#770,#771,#772));
#131=EDGE_LOOP('',(#773));
#132=EDGE_LOOP('',(#774));
#133=EDGE_LOOP('',(#775,#776,#777,#778,#779,#780,#781,#782,#783,#784,#785,
#786));
#134=LINE('',#1176,#239);
#135=LINE('',#1178,#240);
#136=LINE('',#1180,#241);
#137=LINE('',#1181,#242);
#138=LINE('',#1184,#243);
#139=LINE('',#1186,#244);
#140=LINE('',#1187,#245);
#141=LINE('',#1190,#246);
#142=LINE('',#1192,#247);
#143=LINE('',#1194,#248);
#144=LINE('',#1196,#249);
#145=LINE('',#1198,#250);
#146=LINE('',#1200,#251);
#147=LINE('',#1202,#252);
#148=LINE('',#1204,#253);
#149=LINE('',#1206,#254);
#150=LINE('',#1208,#255);
#151=LINE('',#1210,#256);
#152=LINE('',#1212,#257);
#153=LINE('',#1214,#258);
#154=LINE('',#1216,#259);
#155=LINE('',#1218,#260);
#156=LINE('',#1220,#261);
#157=LINE('',#1222,#262);
#158=LINE('',#1224,#263);
#159=LINE('',#1226,#264);
#160=LINE('',#1228,#265);
#161=LINE('',#1230,#266);
#162=LINE('',#1232,#267);
#163=LINE('',#1234,#268);
#164=LINE('',#1236,#269);
#165=LINE('',#1238,#270);
#166=LINE('',#1239,#271);
#167=LINE('',#1244,#272);
#168=LINE('',#1248,#273);
#169=LINE('',#1251,#274);
#170=LINE('',#1254,#275);
#171=LINE('',#1256,#276);
#172=LINE('',#1257,#277);
#173=LINE('',#1263,#278);
#174=LINE('',#1265,#279);
#175=LINE('',#1267,#280);
#176=LINE('',#1268,#281);
#177=LINE('',#1271,#282);
#178=LINE('',#1274,#283);
#179=LINE('',#1277,#284);
#180=LINE('',#1280,#285);
#181=LINE('',#1282,#286);
#182=LINE('',#1284,#287);
#183=LINE('',#1285,#288);
#184=LINE('',#1293,#289);
#185=LINE('',#1295,#290);
#186=LINE('',#1297,#291);
#187=LINE('',#1298,#292);
#188=LINE('',#1300,#293);
#189=LINE('',#1305,#294);
#190=LINE('',#1309,#295);
#191=LINE('',#1314,#296);
#192=LINE('',#1316,#297);
#193=LINE('',#1318,#298);
#194=LINE('',#1320,#299);
#195=LINE('',#1322,#300);
#196=LINE('',#1324,#301);
#197=LINE('',#1326,#302);
#198=LINE('',#1327,#303);
#199=LINE('',#1330,#304);
#200=LINE('',#1334,#305);
#201=LINE('',#1339,#306);
#202=LINE('',#1340,#307);
#203=LINE('',#1341,#308);
#204=LINE('',#1343,#309);
#205=LINE('',#1346,#310);
#206=LINE('',#1349,#311);
#207=LINE('',#1350,#312);
#208=LINE('',#1352,#313);
#209=LINE('',#1360,#314);
#210=LINE('',#1361,#315);
#211=LINE('',#1362,#316);
#212=LINE('',#1365,#317);
#213=LINE('',#1366,#318);
#214=LINE('',#1369,#319);
#215=LINE('',#1370,#320);
#216=LINE('',#1373,#321);
#217=LINE('',#1374,#322);
#218=LINE('',#1377,#323);
#219=LINE('',#1378,#324);
#220=LINE('',#1381,#325);
#221=LINE('',#1382,#326);
#222=LINE('',#1386,#327);
#223=LINE('',#1387,#328);
#224=LINE('',#1388,#329);
#225=LINE('',#1391,#330);
#226=LINE('',#1392,#331);
#227=LINE('',#1395,#332);
#228=LINE('',#1396,#333);
#229=LINE('',#1399,#334);
#230=LINE('',#1400,#335);
#231=LINE('',#1403,#336);
#232=LINE('',#1404,#337);
#233=LINE('',#1406,#338);
#234=LINE('',#1409,#339);
#235=LINE('',#1410,#340);
#236=LINE('',#1411,#341);
#237=LINE('',#1413,#342);
#238=LINE('',#1414,#343);
#239=VECTOR('',#947,10.);
#240=VECTOR('',#948,10.);
#241=VECTOR('',#949,10.);
#242=VECTOR('',#950,10.);
#243=VECTOR('',#953,10.);
#244=VECTOR('',#954,10.);
#245=VECTOR('',#955,10.);
#246=VECTOR('',#958,10.);
#247=VECTOR('',#959,10.);
#248=VECTOR('',#960,10.);
#249=VECTOR('',#961,10.);
#250=VECTOR('',#962,10.);
#251=VECTOR('',#963,10.);
#252=VECTOR('',#964,10.);
#253=VECTOR('',#965,10.);
#254=VECTOR('',#966,10.);
#255=VECTOR('',#967,10.);
#256=VECTOR('',#968,10.);
#257=VECTOR('',#969,10.);
#258=VECTOR('',#970,10.);
#259=VECTOR('',#971,10.);
#260=VECTOR('',#972,10.);
#261=VECTOR('',#973,10.);
#262=VECTOR('',#974,10.);
#263=VECTOR('',#975,10.);
#264=VECTOR('',#976,10.);
#265=VECTOR('',#977,10.);
#266=VECTOR('',#978,10.);
#267=VECTOR('',#979,10.);
#268=VECTOR('',#980,10.);
#269=VECTOR('',#981,10.);
#270=VECTOR('',#982,10.);
#271=VECTOR('',#983,10.);
#272=VECTOR('',#988,10.);
#273=VECTOR('',#993,10.);
#274=VECTOR('',#998,10.);
#275=VECTOR('',#1001,10.);
#276=VECTOR('',#1002,10.);
#277=VECTOR('',#1003,10.);
#278=VECTOR('',#1008,10.);
#279=VECTOR('',#1009,10.);
#280=VECTOR('',#1010,10.);
#281=VECTOR('',#1011,10.);
#282=VECTOR('',#1014,10.);
#283=VECTOR('',#1017,10.);
#284=VECTOR('',#1020,10.);
#285=VECTOR('',#1023,10.);
#286=VECTOR('',#1024,10.);
#287=VECTOR('',#1025,10.);
#288=VECTOR('',#1026,10.);
#289=VECTOR('',#1039,10.);
#290=VECTOR('',#1040,10.);
#291=VECTOR('',#1041,10.);
#292=VECTOR('',#1042,10.);
#293=VECTOR('',#1045,10.);
#294=VECTOR('',#1050,2.75);
#295=VECTOR('',#1055,2.55);
#296=VECTOR('',#1060,10.);
#297=VECTOR('',#1061,10.);
#298=VECTOR('',#1062,10.);
#299=VECTOR('',#1063,10.);
#300=VECTOR('',#1064,10.);
#301=VECTOR('',#1065,10.);
#302=VECTOR('',#1066,10.);
#303=VECTOR('',#1067,10.);
#304=VECTOR('',#1070,2.75);
#305=VECTOR('',#1075,2.55);
#306=VECTOR('',#1080,10.);
#307=VECTOR('',#1081,10.);
#308=VECTOR('',#1082,10.);
#309=VECTOR('',#1085,10.);
#310=VECTOR('',#1090,10.);
#311=VECTOR('',#1093,10.);
#312=VECTOR('',#1094,10.);
#313=VECTOR('',#1097,10.);
#314=VECTOR('',#1108,10.);
#315=VECTOR('',#1109,10.);
#316=VECTOR('',#1110,10.);
#317=VECTOR('',#1113,10.);
#318=VECTOR('',#1114,10.);
#319=VECTOR('',#1117,10.);
#320=VECTOR('',#1118,10.);
#321=VECTOR('',#1121,10.);
#322=VECTOR('',#1122,10.);
#323=VECTOR('',#1125,10.);
#324=VECTOR('',#1126,10.);
#325=VECTOR('',#1129,10.);
#326=VECTOR('',#1130,10.);
#327=VECTOR('',#1133,10.);
#328=VECTOR('',#1134,10.);
#329=VECTOR('',#1135,10.);
#330=VECTOR('',#1138,10.);
#331=VECTOR('',#1139,10.);
#332=VECTOR('',#1142,10.);
#333=VECTOR('',#1143,10.);
#334=VECTOR('',#1146,10.);
#335=VECTOR('',#1147,10.);
#336=VECTOR('',#1150,10.);
#337=VECTOR('',#1151,10.);
#338=VECTOR('',#1154,10.);
#339=VECTOR('',#1157,10.);
#340=VECTOR('',#1158,10.);
#341=VECTOR('',#1159,10.);
#342=VECTOR('',#1162,10.);
#343=VECTOR('',#1163,10.);
#344=VERTEX_POINT('',#1174);
#345=VERTEX_POINT('',#1175);
#346=VERTEX_POINT('',#1177);
#347=VERTEX_POINT('',#1179);
#348=VERTEX_POINT('',#1183);
#349=VERTEX_POINT('',#1185);
#350=VERTEX_POINT('',#1189);
#351=VERTEX_POINT('',#1191);
#352=VERTEX_POINT('',#1193);
#353=VERTEX_POINT('',#1195);
#354=VERTEX_POINT('',#1197);
#355=VERTEX_POINT('',#1199);
#356=VERTEX_POINT('',#1201);
#357=VERTEX_POINT('',#1203);
#358=VERTEX_POINT('',#1205);
#359=VERTEX_POINT('',#1207);
#360=VERTEX_POINT('',#1209);
#361=VERTEX_POINT('',#1211);
#362=VERTEX_POINT('',#1213);
#363=VERTEX_POINT('',#1215);
#364=VERTEX_POINT('',#1217);
#365=VERTEX_POINT('',#1219);
#366=VERTEX_POINT('',#1221);
#367=VERTEX_POINT('',#1223);
#368=VERTEX_POINT('',#1225);
#369=VERTEX_POINT('',#1227);
#370=VERTEX_POINT('',#1229);
#371=VERTEX_POINT('',#1231);
#372=VERTEX_POINT('',#1233);
#373=VERTEX_POINT('',#1235);
#374=VERTEX_POINT('',#1237);
#375=VERTEX_POINT('',#1240);
#376=VERTEX_POINT('',#1243);
#377=VERTEX_POINT('',#1247);
#378=VERTEX_POINT('',#1253);
#379=VERTEX_POINT('',#1255);
#380=VERTEX_POINT('',#1259);
#381=VERTEX_POINT('',#1260);
#382=VERTEX_POINT('',#1262);
#383=VERTEX_POINT('',#1264);
#384=VERTEX_POINT('',#1266);
#385=VERTEX_POINT('',#1269);
#386=VERTEX_POINT('',#1273);
#387=VERTEX_POINT('',#1275);
#388=VERTEX_POINT('',#1279);
#389=VERTEX_POINT('',#1281);
#390=VERTEX_POINT('',#1283);
#391=VERTEX_POINT('',#1292);
#392=VERTEX_POINT('',#1294);
#393=VERTEX_POINT('',#1296);
#394=VERTEX_POINT('',#1302);
#395=VERTEX_POINT('',#1304);
#396=VERTEX_POINT('',#1308);
#397=VERTEX_POINT('',#1312);
#398=VERTEX_POINT('',#1313);
#399=VERTEX_POINT('',#1315);
#400=VERTEX_POINT('',#1317);
#401=VERTEX_POINT('',#1319);
#402=VERTEX_POINT('',#1321);
#403=VERTEX_POINT('',#1323);
#404=VERTEX_POINT('',#1325);
#405=VERTEX_POINT('',#1329);
#406=VERTEX_POINT('',#1333);
#407=VERTEX_POINT('',#1337);
#408=VERTEX_POINT('',#1338);
#409=VERTEX_POINT('',#1348);
#410=VERTEX_POINT('',#1358);
#411=VERTEX_POINT('',#1359);
#412=VERTEX_POINT('',#1364);
#413=VERTEX_POINT('',#1368);
#414=VERTEX_POINT('',#1372);
#415=VERTEX_POINT('',#1376);
#416=VERTEX_POINT('',#1380);
#417=VERTEX_POINT('',#1384);
#418=VERTEX_POINT('',#1385);
#419=VERTEX_POINT('',#1390);
#420=VERTEX_POINT('',#1394);
#421=VERTEX_POINT('',#1398);
#422=VERTEX_POINT('',#1402);
#423=VERTEX_POINT('',#1408);
#424=EDGE_CURVE('',#344,#345,#134,.T.);
#425=EDGE_CURVE('',#346,#344,#135,.T.);
#426=EDGE_CURVE('',#347,#346,#136,.T.);
#427=EDGE_CURVE('',#345,#347,#137,.T.);
#428=EDGE_CURVE('',#344,#348,#138,.T.);
#429=EDGE_CURVE('',#349,#348,#139,.T.);
#430=EDGE_CURVE('',#349,#346,#140,.T.);
#431=EDGE_CURVE('',#345,#350,#141,.T.);
#432=EDGE_CURVE('',#351,#350,#142,.T.);
#433=EDGE_CURVE('',#351,#352,#143,.T.);
#434=EDGE_CURVE('',#353,#352,#144,.T.);
#435=EDGE_CURVE('',#353,#354,#145,.T.);
#436=EDGE_CURVE('',#355,#354,#146,.T.);
#437=EDGE_CURVE('',#355,#356,#147,.T.);
#438=EDGE_CURVE('',#357,#356,#148,.T.);
#439=EDGE_CURVE('',#357,#358,#149,.T.);
#440=EDGE_CURVE('',#358,#359,#150,.T.);
#441=EDGE_CURVE('',#359,#360,#151,.T.);
#442=EDGE_CURVE('',#360,#361,#152,.T.);
#443=EDGE_CURVE('',#362,#361,#153,.T.);
#444=EDGE_CURVE('',#363,#362,#154,.T.);
#445=EDGE_CURVE('',#363,#364,#155,.T.);
#446=EDGE_CURVE('',#364,#365,#156,.T.);
#447=EDGE_CURVE('',#365,#366,#157,.T.);
#448=EDGE_CURVE('',#366,#367,#158,.T.);
#449=EDGE_CURVE('',#367,#368,#159,.T.);
#450=EDGE_CURVE('',#368,#369,#160,.T.);
#451=EDGE_CURVE('',#369,#370,#161,.T.);
#452=EDGE_CURVE('',#370,#371,#162,.T.);
#453=EDGE_CURVE('',#371,#372,#163,.T.);
#454=EDGE_CURVE('',#373,#372,#164,.T.);
#455=EDGE_CURVE('',#374,#373,#165,.T.);
#456=EDGE_CURVE('',#374,#348,#166,.T.);
#457=EDGE_CURVE('',#375,#375,#26,.T.);
#458=EDGE_CURVE('',#376,#352,#167,.T.);
#459=EDGE_CURVE('',#353,#376,#27,.T.);
#460=EDGE_CURVE('',#376,#377,#168,.T.);
#461=EDGE_CURVE('',#354,#377,#28,.T.);
#462=EDGE_CURVE('',#377,#351,#169,.T.);
#463=EDGE_CURVE('',#350,#378,#170,.T.);
#464=EDGE_CURVE('',#378,#379,#171,.T.);
#465=EDGE_CURVE('',#355,#379,#172,.T.);
#466=EDGE_CURVE('',#380,#381,#29,.T.);
#467=EDGE_CURVE('',#382,#380,#173,.T.);
#468=EDGE_CURVE('',#383,#382,#174,.T.);
#469=EDGE_CURVE('',#384,#383,#175,.T.);
#470=EDGE_CURVE('',#361,#384,#176,.T.);
#471=EDGE_CURVE('',#385,#360,#30,.T.);
#472=EDGE_CURVE('',#381,#385,#177,.T.);
#473=EDGE_CURVE('',#381,#386,#178,.T.);
#474=EDGE_CURVE('',#387,#386,#31,.T.);
#475=EDGE_CURVE('',#380,#387,#179,.T.);
#476=EDGE_CURVE('',#385,#388,#180,.T.);
#477=EDGE_CURVE('',#388,#389,#181,.T.);
#478=EDGE_CURVE('',#389,#390,#182,.T.);
#479=EDGE_CURVE('',#386,#390,#183,.T.);
#480=EDGE_CURVE('',#359,#388,#32,.T.);
#481=EDGE_CURVE('',#389,#358,#33,.T.);
#482=EDGE_CURVE('',#390,#357,#34,.T.);
#483=EDGE_CURVE('',#391,#356,#184,.T.);
#484=EDGE_CURVE('',#391,#392,#185,.T.);
#485=EDGE_CURVE('',#392,#393,#186,.T.);
#486=EDGE_CURVE('',#393,#387,#187,.T.);
#487=EDGE_CURVE('',#379,#391,#188,.T.);
#488=EDGE_CURVE('',#394,#394,#35,.T.);
#489=EDGE_CURVE('',#394,#395,#189,.T.);
#490=EDGE_CURVE('',#395,#395,#36,.T.);
#491=EDGE_CURVE('',#395,#396,#190,.T.);
#492=EDGE_CURVE('',#396,#396,#37,.T.);
#493=EDGE_CURVE('',#397,#398,#191,.T.);
#494=EDGE_CURVE('',#398,#399,#192,.T.);
#495=EDGE_CURVE('',#399,#400,#193,.T.);
#496=EDGE_CURVE('',#400,#401,#194,.T.);
#497=EDGE_CURVE('',#401,#402,#195,.T.);
#498=EDGE_CURVE('',#402,#403,#196,.T.);
#499=EDGE_CURVE('',#403,#404,#197,.T.);
#500=EDGE_CURVE('',#404,#397,#198,.T.);
#501=EDGE_CURVE('',#375,#405,#199,.T.);
#502=EDGE_CURVE('',#405,#405,#38,.T.);
#503=EDGE_CURVE('',#405,#406,#200,.T.);
#504=EDGE_CURVE('',#406,#406,#39,.T.);
#505=EDGE_CURVE('',#407,#408,#201,.T.);
#506=EDGE_CURVE('',#369,#407,#202,.T.);
#507=EDGE_CURVE('',#408,#368,#203,.T.);
#508=EDGE_CURVE('',#393,#382,#204,.T.);
#509=EDGE_CURVE('',#392,#383,#205,.T.);
#510=EDGE_CURVE('',#409,#384,#206,.T.);
#511=EDGE_CURVE('',#362,#409,#207,.T.);
#512=EDGE_CURVE('',#347,#378,#208,.T.);
#513=EDGE_CURVE('',#374,#371,#40,.T.);
#514=EDGE_CURVE('',#372,#373,#41,.T.);
#515=EDGE_CURVE('',#410,#411,#209,.T.);
#516=EDGE_CURVE('',#410,#402,#210,.T.);
#517=EDGE_CURVE('',#411,#401,#211,.T.);
#518=EDGE_CURVE('',#412,#410,#212,.T.);
#519=EDGE_CURVE('',#412,#403,#213,.T.);
#520=EDGE_CURVE('',#413,#412,#214,.T.);
#521=EDGE_CURVE('',#413,#404,#215,.T.);
#522=EDGE_CURVE('',#414,#413,#216,.T.);
#523=EDGE_CURVE('',#414,#397,#217,.T.);
#524=EDGE_CURVE('',#415,#414,#218,.T.);
#525=EDGE_CURVE('',#415,#398,#219,.T.);
#526=EDGE_CURVE('',#416,#415,#220,.T.);
#527=EDGE_CURVE('',#416,#399,#221,.T.);
#528=EDGE_CURVE('',#417,#418,#222,.T.);
#529=EDGE_CURVE('',#417,#364,#223,.T.);
#530=EDGE_CURVE('',#418,#363,#224,.T.);
#531=EDGE_CURVE('',#419,#417,#225,.T.);
#532=EDGE_CURVE('',#419,#365,#226,.T.);
#533=EDGE_CURVE('',#420,#370,#227,.T.);
#534=EDGE_CURVE('',#420,#349,#228,.T.);
#535=EDGE_CURVE('',#408,#421,#229,.T.);
#536=EDGE_CURVE('',#421,#367,#230,.T.);
#537=EDGE_CURVE('',#421,#422,#231,.T.);
#538=EDGE_CURVE('',#422,#366,#232,.T.);
#539=EDGE_CURVE('',#422,#419,#233,.T.);
#540=EDGE_CURVE('',#423,#409,#234,.T.);
#541=EDGE_CURVE('',#423,#400,#235,.T.);
#542=EDGE_CURVE('',#418,#416,#236,.T.);
#543=EDGE_CURVE('',#411,#407,#237,.T.);
#544=EDGE_CURVE('',#423,#420,#238,.T.);
#545=ORIENTED_EDGE('',*,*,#424,.F.);
#546=ORIENTED_EDGE('',*,*,#425,.F.);
#547=ORIENTED_EDGE('',*,*,#426,.F.);
#548=ORIENTED_EDGE('',*,*,#427,.F.);
#549=ORIENTED_EDGE('',*,*,#425,.T.);
#550=ORIENTED_EDGE('',*,*,#428,.T.);
#551=ORIENTED_EDGE('',*,*,#429,.F.);
#552=ORIENTED_EDGE('',*,*,#430,.T.);
#553=ORIENTED_EDGE('',*,*,#424,.T.);
#554=ORIENTED_EDGE('',*,*,#431,.T.);
#555=ORIENTED_EDGE('',*,*,#432,.F.);
#556=ORIENTED_EDGE('',*,*,#433,.T.);
#557=ORIENTED_EDGE('',*,*,#434,.F.);
#558=ORIENTED_EDGE('',*,*,#435,.T.);
#559=ORIENTED_EDGE('',*,*,#436,.F.);
#560=ORIENTED_EDGE('',*,*,#437,.T.);
#561=ORIENTED_EDGE('',*,*,#438,.F.);
#562=ORIENTED_EDGE('',*,*,#439,.T.);
#563=ORIENTED_EDGE('',*,*,#440,.T.);
#564=ORIENTED_EDGE('',*,*,#441,.T.);
#565=ORIENTED_EDGE('',*,*,#442,.T.);
#566=ORIENTED_EDGE('',*,*,#443,.F.);
#567=ORIENTED_EDGE('',*,*,#444,.F.);
#568=ORIENTED_EDGE('',*,*,#445,.T.);
#569=ORIENTED_EDGE('',*,*,#446,.T.);
#570=ORIENTED_EDGE('',*,*,#447,.T.);
#571=ORIENTED_EDGE('',*,*,#448,.T.);
#572=ORIENTED_EDGE('',*,*,#449,.T.);
#573=ORIENTED_EDGE('',*,*,#450,.T.);
#574=ORIENTED_EDGE('',*,*,#451,.T.);
#575=ORIENTED_EDGE('',*,*,#452,.T.);
#576=ORIENTED_EDGE('',*,*,#453,.T.);
#577=ORIENTED_EDGE('',*,*,#454,.F.);
#578=ORIENTED_EDGE('',*,*,#455,.F.);
#579=ORIENTED_EDGE('',*,*,#456,.T.);
#580=ORIENTED_EDGE('',*,*,#428,.F.);
#581=ORIENTED_EDGE('',*,*,#457,.F.);
#582=ORIENTED_EDGE('',*,*,#434,.T.);
#583=ORIENTED_EDGE('',*,*,#458,.F.);
#584=ORIENTED_EDGE('',*,*,#459,.F.);
#585=ORIENTED_EDGE('',*,*,#459,.T.);
#586=ORIENTED_EDGE('',*,*,#460,.T.);
#587=ORIENTED_EDGE('',*,*,#461,.F.);
#588=ORIENTED_EDGE('',*,*,#435,.F.);
#589=ORIENTED_EDGE('',*,*,#458,.T.);
#590=ORIENTED_EDGE('',*,*,#433,.F.);
#591=ORIENTED_EDGE('',*,*,#462,.F.);
#592=ORIENTED_EDGE('',*,*,#460,.F.);
#593=ORIENTED_EDGE('',*,*,#461,.T.);
#594=ORIENTED_EDGE('',*,*,#462,.T.);
#595=ORIENTED_EDGE('',*,*,#432,.T.);
#596=ORIENTED_EDGE('',*,*,#463,.T.);
#597=ORIENTED_EDGE('',*,*,#464,.T.);
#598=ORIENTED_EDGE('',*,*,#465,.F.);
#599=ORIENTED_EDGE('',*,*,#436,.T.);
#600=ORIENTED_EDGE('',*,*,#466,.F.);
#601=ORIENTED_EDGE('',*,*,#467,.F.);
#602=ORIENTED_EDGE('',*,*,#468,.F.);
#603=ORIENTED_EDGE('',*,*,#469,.F.);
#604=ORIENTED_EDGE('',*,*,#470,.F.);
#605=ORIENTED_EDGE('',*,*,#442,.F.);
#606=ORIENTED_EDGE('',*,*,#471,.F.);
#607=ORIENTED_EDGE('',*,*,#472,.F.);
#608=ORIENTED_EDGE('',*,*,#466,.T.);
#609=ORIENTED_EDGE('',*,*,#473,.T.);
#610=ORIENTED_EDGE('',*,*,#474,.F.);
#611=ORIENTED_EDGE('',*,*,#475,.F.);
#612=ORIENTED_EDGE('',*,*,#472,.T.);
#613=ORIENTED_EDGE('',*,*,#476,.T.);
#614=ORIENTED_EDGE('',*,*,#477,.T.);
#615=ORIENTED_EDGE('',*,*,#478,.T.);
#616=ORIENTED_EDGE('',*,*,#479,.F.);
#617=ORIENTED_EDGE('',*,*,#473,.F.);
#618=ORIENTED_EDGE('',*,*,#471,.T.);
#619=ORIENTED_EDGE('',*,*,#441,.F.);
#620=ORIENTED_EDGE('',*,*,#480,.T.);
#621=ORIENTED_EDGE('',*,*,#476,.F.);
#622=ORIENTED_EDGE('',*,*,#480,.F.);
#623=ORIENTED_EDGE('',*,*,#440,.F.);
#624=ORIENTED_EDGE('',*,*,#481,.F.);
#625=ORIENTED_EDGE('',*,*,#477,.F.);
#626=ORIENTED_EDGE('',*,*,#482,.T.);
#627=ORIENTED_EDGE('',*,*,#438,.T.);
#628=ORIENTED_EDGE('',*,*,#483,.F.);
#629=ORIENTED_EDGE('',*,*,#484,.T.);
#630=ORIENTED_EDGE('',*,*,#485,.T.);
#631=ORIENTED_EDGE('',*,*,#486,.T.);
#632=ORIENTED_EDGE('',*,*,#474,.T.);
#633=ORIENTED_EDGE('',*,*,#479,.T.);
#634=ORIENTED_EDGE('',*,*,#465,.T.);
#635=ORIENTED_EDGE('',*,*,#487,.T.);
#636=ORIENTED_EDGE('',*,*,#483,.T.);
#637=ORIENTED_EDGE('',*,*,#437,.F.);
#638=ORIENTED_EDGE('',*,*,#488,.T.);
#639=ORIENTED_EDGE('',*,*,#489,.T.);
#640=ORIENTED_EDGE('',*,*,#490,.T.);
#641=ORIENTED_EDGE('',*,*,#489,.F.);
#642=ORIENTED_EDGE('',*,*,#490,.F.);
#643=ORIENTED_EDGE('',*,*,#491,.T.);
#644=ORIENTED_EDGE('',*,*,#492,.F.);
#645=ORIENTED_EDGE('',*,*,#491,.F.);
#646=ORIENTED_EDGE('',*,*,#493,.T.);
#647=ORIENTED_EDGE('',*,*,#494,.T.);
#648=ORIENTED_EDGE('',*,*,#495,.T.);
#649=ORIENTED_EDGE('',*,*,#496,.T.);
#650=ORIENTED_EDGE('',*,*,#497,.T.);
#651=ORIENTED_EDGE('',*,*,#498,.T.);
#652=ORIENTED_EDGE('',*,*,#499,.T.);
#653=ORIENTED_EDGE('',*,*,#500,.T.);
#654=ORIENTED_EDGE('',*,*,#488,.F.);
#655=ORIENTED_EDGE('',*,*,#457,.T.);
#656=ORIENTED_EDGE('',*,*,#501,.T.);
#657=ORIENTED_EDGE('',*,*,#502,.T.);
#658=ORIENTED_EDGE('',*,*,#501,.F.);
#659=ORIENTED_EDGE('',*,*,#502,.F.);
#660=ORIENTED_EDGE('',*,*,#503,.T.);
#661=ORIENTED_EDGE('',*,*,#504,.F.);
#662=ORIENTED_EDGE('',*,*,#503,.F.);
#663=ORIENTED_EDGE('',*,*,#505,.F.);
#664=ORIENTED_EDGE('',*,*,#506,.F.);
#665=ORIENTED_EDGE('',*,*,#450,.F.);
#666=ORIENTED_EDGE('',*,*,#507,.F.);
#667=ORIENTED_EDGE('',*,*,#467,.T.);
#668=ORIENTED_EDGE('',*,*,#475,.T.);
#669=ORIENTED_EDGE('',*,*,#486,.F.);
#670=ORIENTED_EDGE('',*,*,#508,.T.);
#671=ORIENTED_EDGE('',*,*,#481,.T.);
#672=ORIENTED_EDGE('',*,*,#439,.F.);
#673=ORIENTED_EDGE('',*,*,#482,.F.);
#674=ORIENTED_EDGE('',*,*,#478,.F.);
#675=ORIENTED_EDGE('',*,*,#468,.T.);
#676=ORIENTED_EDGE('',*,*,#508,.F.);
#677=ORIENTED_EDGE('',*,*,#485,.F.);
#678=ORIENTED_EDGE('',*,*,#509,.T.);
#679=ORIENTED_EDGE('',*,*,#470,.T.);
#680=ORIENTED_EDGE('',*,*,#510,.F.);
#681=ORIENTED_EDGE('',*,*,#511,.F.);
#682=ORIENTED_EDGE('',*,*,#443,.T.);
#683=ORIENTED_EDGE('',*,*,#427,.T.);
#684=ORIENTED_EDGE('',*,*,#512,.T.);
#685=ORIENTED_EDGE('',*,*,#463,.F.);
#686=ORIENTED_EDGE('',*,*,#431,.F.);
#687=ORIENTED_EDGE('',*,*,#513,.F.);
#688=ORIENTED_EDGE('',*,*,#455,.T.);
#689=ORIENTED_EDGE('',*,*,#514,.F.);
#690=ORIENTED_EDGE('',*,*,#453,.F.);
#691=ORIENTED_EDGE('',*,*,#454,.T.);
#692=ORIENTED_EDGE('',*,*,#514,.T.);
#693=ORIENTED_EDGE('',*,*,#515,.F.);
#694=ORIENTED_EDGE('',*,*,#516,.T.);
#695=ORIENTED_EDGE('',*,*,#497,.F.);
#696=ORIENTED_EDGE('',*,*,#517,.F.);
#697=ORIENTED_EDGE('',*,*,#518,.F.);
#698=ORIENTED_EDGE('',*,*,#519,.T.);
#699=ORIENTED_EDGE('',*,*,#498,.F.);
#700=ORIENTED_EDGE('',*,*,#516,.F.);
#701=ORIENTED_EDGE('',*,*,#520,.F.);
#702=ORIENTED_EDGE('',*,*,#521,.T.);
#703=ORIENTED_EDGE('',*,*,#499,.F.);
#704=ORIENTED_EDGE('',*,*,#519,.F.);
#705=ORIENTED_EDGE('',*,*,#522,.F.);
#706=ORIENTED_EDGE('',*,*,#523,.T.);
#707=ORIENTED_EDGE('',*,*,#500,.F.);
#708=ORIENTED_EDGE('',*,*,#521,.F.);
#709=ORIENTED_EDGE('',*,*,#524,.F.);
#710=ORIENTED_EDGE('',*,*,#525,.T.);
#711=ORIENTED_EDGE('',*,*,#493,.F.);
#712=ORIENTED_EDGE('',*,*,#523,.F.);
#713=ORIENTED_EDGE('',*,*,#526,.F.);
#714=ORIENTED_EDGE('',*,*,#527,.T.);
#715=ORIENTED_EDGE('',*,*,#494,.F.);
#716=ORIENTED_EDGE('',*,*,#525,.F.);
#717=ORIENTED_EDGE('',*,*,#528,.F.);
#718=ORIENTED_EDGE('',*,*,#529,.T.);
#719=ORIENTED_EDGE('',*,*,#445,.F.);
#720=ORIENTED_EDGE('',*,*,#530,.F.);
#721=ORIENTED_EDGE('',*,*,#531,.F.);
#722=ORIENTED_EDGE('',*,*,#532,.T.);
#723=ORIENTED_EDGE('',*,*,#446,.F.);
#724=ORIENTED_EDGE('',*,*,#529,.F.);
#725=ORIENTED_EDGE('',*,*,#513,.T.);
#726=ORIENTED_EDGE('',*,*,#452,.F.);
#727=ORIENTED_EDGE('',*,*,#533,.F.);
#728=ORIENTED_EDGE('',*,*,#534,.T.);
#729=ORIENTED_EDGE('',*,*,#429,.T.);
#730=ORIENTED_EDGE('',*,*,#456,.F.);
#731=ORIENTED_EDGE('',*,*,#535,.F.);
#732=ORIENTED_EDGE('',*,*,#507,.T.);
#733=ORIENTED_EDGE('',*,*,#449,.F.);
#734=ORIENTED_EDGE('',*,*,#536,.F.);
#735=ORIENTED_EDGE('',*,*,#537,.F.);
#736=ORIENTED_EDGE('',*,*,#536,.T.);
#737=ORIENTED_EDGE('',*,*,#448,.F.);
#738=ORIENTED_EDGE('',*,*,#538,.F.);
#739=ORIENTED_EDGE('',*,*,#539,.F.);
#740=ORIENTED_EDGE('',*,*,#538,.T.);
#741=ORIENTED_EDGE('',*,*,#447,.F.);
#742=ORIENTED_EDGE('',*,*,#532,.F.);
#743=ORIENTED_EDGE('',*,*,#511,.T.);
#744=ORIENTED_EDGE('',*,*,#540,.F.);
#745=ORIENTED_EDGE('',*,*,#541,.T.);
#746=ORIENTED_EDGE('',*,*,#495,.F.);
#747=ORIENTED_EDGE('',*,*,#527,.F.);
#748=ORIENTED_EDGE('',*,*,#542,.F.);
#749=ORIENTED_EDGE('',*,*,#530,.T.);
#750=ORIENTED_EDGE('',*,*,#444,.T.);
#751=ORIENTED_EDGE('',*,*,#543,.F.);
#752=ORIENTED_EDGE('',*,*,#517,.T.);
#753=ORIENTED_EDGE('',*,*,#496,.F.);
#754=ORIENTED_EDGE('',*,*,#541,.F.);
#755=ORIENTED_EDGE('',*,*,#544,.T.);
#756=ORIENTED_EDGE('',*,*,#533,.T.);
#757=ORIENTED_EDGE('',*,*,#451,.F.);
#758=ORIENTED_EDGE('',*,*,#506,.T.);
#759=ORIENTED_EDGE('',*,*,#515,.T.);
#760=ORIENTED_EDGE('',*,*,#543,.T.);
#761=ORIENTED_EDGE('',*,*,#505,.T.);
#762=ORIENTED_EDGE('',*,*,#535,.T.);
#763=ORIENTED_EDGE('',*,*,#537,.T.);
#764=ORIENTED_EDGE('',*,*,#539,.T.);
#765=ORIENTED_EDGE('',*,*,#531,.T.);
#766=ORIENTED_EDGE('',*,*,#528,.T.);
#767=ORIENTED_EDGE('',*,*,#542,.T.);
#768=ORIENTED_EDGE('',*,*,#526,.T.);
#769=ORIENTED_EDGE('',*,*,#524,.T.);
#770=ORIENTED_EDGE('',*,*,#522,.T.);
#771=ORIENTED_EDGE('',*,*,#520,.T.);
#772=ORIENTED_EDGE('',*,*,#518,.T.);
#773=ORIENTED_EDGE('',*,*,#504,.T.);
#774=ORIENTED_EDGE('',*,*,#492,.T.);
#775=ORIENTED_EDGE('',*,*,#426,.T.);
#776=ORIENTED_EDGE('',*,*,#430,.F.);
#777=ORIENTED_EDGE('',*,*,#534,.F.);
#778=ORIENTED_EDGE('',*,*,#544,.F.);
#779=ORIENTED_EDGE('',*,*,#540,.T.);
#780=ORIENTED_EDGE('',*,*,#510,.T.);
#781=ORIENTED_EDGE('',*,*,#469,.T.);
#782=ORIENTED_EDGE('',*,*,#509,.F.);
#783=ORIENTED_EDGE('',*,*,#484,.F.);
#784=ORIENTED_EDGE('',*,*,#487,.F.);
#785=ORIENTED_EDGE('',*,*,#464,.F.);
#786=ORIENTED_EDGE('',*,*,#512,.F.);
#787=PLANE('',#882);
#788=PLANE('',#883);
#789=PLANE('',#884);
#790=PLANE('',#886);
#791=PLANE('',#890);
#792=PLANE('',#891);
#793=PLANE('',#892);
#794=PLANE('',#897);
#795=PLANE('',#900);
#796=PLANE('',#902);
#797=PLANE('',#904);
#798=PLANE('',#910);
#799=PLANE('',#915);
#800=PLANE('',#916);
#801=PLANE('',#918);
#802=PLANE('',#919);
#803=PLANE('',#920);
#804=PLANE('',#924);
#805=PLANE('',#925);
#806=PLANE('',#926);
#807=PLANE('',#927);
#808=PLANE('',#928);
#809=PLANE('',#929);
#810=PLANE('',#930);
#811=PLANE('',#931);
#812=PLANE('',#932);
#813=PLANE('',#933);
#814=PLANE('',#934);
#815=PLANE('',#935);
#816=PLANE('',#936);
#817=PLANE('',#937);
#818=PLANE('',#938);
#819=PLANE('',#939);
#820=PLANE('',#940);
#821=PLANE('',#941);
#822=PLANE('',#942);
#823=ADVANCED_FACE('',(#42),#787,.F.);
#824=ADVANCED_FACE('',(#43),#788,.F.);
#825=ADVANCED_FACE('',(#44,#24),#789,.T.);
#826=ADVANCED_FACE('',(#45),#790,.F.);
#827=ADVANCED_FACE('',(#46),#17,.F.);
#828=ADVANCED_FACE('',(#47),#791,.F.);
#829=ADVANCED_FACE('',(#48),#792,.T.);
#830=ADVANCED_FACE('',(#49),#793,.T.);
#831=ADVANCED_FACE('',(#50),#18,.F.);
#832=ADVANCED_FACE('',(#51),#794,.F.);
#833=ADVANCED_FACE('',(#52),#19,.F.);
#834=ADVANCED_FACE('',(#53),#795,.T.);
#835=ADVANCED_FACE('',(#54),#796,.F.);
#836=ADVANCED_FACE('',(#55),#797,.T.);
#837=ADVANCED_FACE('',(#56),#15,.F.);
#838=ADVANCED_FACE('',(#57),#20,.F.);
#839=ADVANCED_FACE('',(#58,#25),#798,.T.);
#840=ADVANCED_FACE('',(#59),#16,.F.);
#841=ADVANCED_FACE('',(#60),#21,.F.);
#842=ADVANCED_FACE('',(#61),#799,.F.);
#843=ADVANCED_FACE('',(#62),#800,.T.);
#844=ADVANCED_FACE('',(#63),#22,.F.);
#845=ADVANCED_FACE('',(#64),#801,.T.);
#846=ADVANCED_FACE('',(#65),#802,.F.);
#847=ADVANCED_FACE('',(#66),#803,.T.);
#848=ADVANCED_FACE('',(#67),#23,.T.);
#849=ADVANCED_FACE('',(#68),#804,.T.);
#850=ADVANCED_FACE('',(#69),#805,.T.);
#851=ADVANCED_FACE('',(#70),#806,.T.);
#852=ADVANCED_FACE('',(#71),#807,.T.);
#853=ADVANCED_FACE('',(#72),#808,.T.);
#854=ADVANCED_FACE('',(#73),#809,.T.);
#855=ADVANCED_FACE('',(#74),#810,.T.);
#856=ADVANCED_FACE('',(#75),#811,.T.);
#857=ADVANCED_FACE('',(#76),#812,.T.);
#858=ADVANCED_FACE('',(#77),#813,.T.);
#859=ADVANCED_FACE('',(#78),#814,.T.);
#860=ADVANCED_FACE('',(#79),#815,.T.);
#861=ADVANCED_FACE('',(#80),#816,.T.);
#862=ADVANCED_FACE('',(#81),#817,.T.);
#863=ADVANCED_FACE('',(#82),#818,.T.);
#864=ADVANCED_FACE('',(#83),#819,.T.);
#865=ADVANCED_FACE('',(#84),#820,.T.);
#866=ADVANCED_FACE('',(#85),#821,.T.);
#867=ADVANCED_FACE('',(#86),#822,.F.);
#868=CLOSED_SHELL('',(#823,#824,#825,#826,#827,#828,#829,#830,#831,#832,
#833,#834,#835,#836,#837,#838,#839,#840,#841,#842,#843,#844,#845,#846,#847,
#848,#849,#850,#851,#852,#853,#854,#855,#856,#857,#858,#859,#860,#861,#862,
#863,#864,#865,#866,#867));
#869=DERIVED_UNIT_ELEMENT(#871,1.);
#870=DERIVED_UNIT_ELEMENT(#1424,-3.);
#871=(
MASS_UNIT()
NAMED_UNIT(*)
SI_UNIT(.KILO.,.GRAM.)
);
#872=DERIVED_UNIT((#869,#870));
#873=MEASURE_REPRESENTATION_ITEM('density measure',
POSITIVE_RATIO_MEASURE(7850.),#872);
#874=PROPERTY_DEFINITION_REPRESENTATION(#879,#876);
#875=PROPERTY_DEFINITION_REPRESENTATION(#880,#877);
#876=REPRESENTATION('material name',(#878),#1421);
#877=REPRESENTATION('density',(#873),#1421);
#878=DESCRIPTIVE_REPRESENTATION_ITEM('\X2\92FC\X0\','\X2\92FC\X0\');
#879=PROPERTY_DEFINITION('material property','material name',#1431);
#880=PROPERTY_DEFINITION('material property','density of part',#1431);
#881=AXIS2_PLACEMENT_3D('',#1172,#943,#944);
#882=AXIS2_PLACEMENT_3D('',#1173,#945,#946);
#883=AXIS2_PLACEMENT_3D('',#1182,#951,#952);
#884=AXIS2_PLACEMENT_3D('',#1188,#956,#957);
#885=AXIS2_PLACEMENT_3D('',#1241,#984,#985);
#886=AXIS2_PLACEMENT_3D('',#1242,#986,#987);
#887=AXIS2_PLACEMENT_3D('',#1245,#989,#990);
#888=AXIS2_PLACEMENT_3D('',#1246,#991,#992);
#889=AXIS2_PLACEMENT_3D('',#1249,#994,#995);
#890=AXIS2_PLACEMENT_3D('',#1250,#996,#997);
#891=AXIS2_PLACEMENT_3D('',#1252,#999,#1000);
#892=AXIS2_PLACEMENT_3D('',#1258,#1004,#1005);
#893=AXIS2_PLACEMENT_3D('',#1261,#1006,#1007);
#894=AXIS2_PLACEMENT_3D('',#1270,#1012,#1013);
#895=AXIS2_PLACEMENT_3D('',#1272,#1015,#1016);
#896=AXIS2_PLACEMENT_3D('',#1276,#1018,#1019);
#897=AXIS2_PLACEMENT_3D('',#1278,#1021,#1022);
#898=AXIS2_PLACEMENT_3D('',#1286,#1027,#1028);
#899=AXIS2_PLACEMENT_3D('',#1287,#1029,#1030);
#900=AXIS2_PLACEMENT_3D('',#1288,#1031,#1032);
#901=AXIS2_PLACEMENT_3D('',#1289,#1033,#1034);
#902=AXIS2_PLACEMENT_3D('',#1290,#1035,#1036);
#903=AXIS2_PLACEMENT_3D('',#1291,#1037,#1038);
#904=AXIS2_PLACEMENT_3D('',#1299,#1043,#1044);
#905=AXIS2_PLACEMENT_3D('',#1301,#1046,#1047);
#906=AXIS2_PLACEMENT_3D('',#1303,#1048,#1049);
#907=AXIS2_PLACEMENT_3D('',#1306,#1051,#1052);
#908=AXIS2_PLACEMENT_3D('',#1307,#1053,#1054);
#909=AXIS2_PLACEMENT_3D('',#1310,#1056,#1057);
#910=AXIS2_PLACEMENT_3D('',#1311,#1058,#1059);
#911=AXIS2_PLACEMENT_3D('',#1328,#1068,#1069);
#912=AXIS2_PLACEMENT_3D('',#1331,#1071,#1072);
#913=AXIS2_PLACEMENT_3D('',#1332,#1073,#1074);
#914=AXIS2_PLACEMENT_3D('',#1335,#1076,#1077);
#915=AXIS2_PLACEMENT_3D('',#1336,#1078,#1079);
#916=AXIS2_PLACEMENT_3D('',#1342,#1083,#1084);
#917=AXIS2_PLACEMENT_3D('',#1344,#1086,#1087);
#918=AXIS2_PLACEMENT_3D('',#1345,#1088,#1089);
#919=AXIS2_PLACEMENT_3D('',#1347,#1091,#1092);
#920=AXIS2_PLACEMENT_3D('',#1351,#1095,#1096);
#921=AXIS2_PLACEMENT_3D('',#1353,#1098,#1099);
#922=AXIS2_PLACEMENT_3D('',#1354,#1100,#1101);
#923=AXIS2_PLACEMENT_3D('',#1355,#1102,#1103);
#924=AXIS2_PLACEMENT_3D('',#1356,#1104,#1105);
#925=AXIS2_PLACEMENT_3D('',#1357,#1106,#1107);
#926=AXIS2_PLACEMENT_3D('',#1363,#1111,#1112);
#927=AXIS2_PLACEMENT_3D('',#1367,#1115,#1116);
#928=AXIS2_PLACEMENT_3D('',#1371,#1119,#1120);
#929=AXIS2_PLACEMENT_3D('',#1375,#1123,#1124);
#930=AXIS2_PLACEMENT_3D('',#1379,#1127,#1128);
#931=AXIS2_PLACEMENT_3D('',#1383,#1131,#1132);
#932=AXIS2_PLACEMENT_3D('',#1389,#1136,#1137);
#933=AXIS2_PLACEMENT_3D('',#1393,#1140,#1141);
#934=AXIS2_PLACEMENT_3D('',#1397,#1144,#1145);
#935=AXIS2_PLACEMENT_3D('',#1401,#1148,#1149);
#936=AXIS2_PLACEMENT_3D('',#1405,#1152,#1153);
#937=AXIS2_PLACEMENT_3D('',#1407,#1155,#1156);
#938=AXIS2_PLACEMENT_3D('',#1412,#1160,#1161);
#939=AXIS2_PLACEMENT_3D('',#1415,#1164,#1165);
#940=AXIS2_PLACEMENT_3D('',#1416,#1166,#1167);
#941=AXIS2_PLACEMENT_3D('',#1417,#1168,#1169);
#942=AXIS2_PLACEMENT_3D('',#1418,#1170,#1171);
#943=DIRECTION('axis',(0.,0.,1.));
#944=DIRECTION('refdir',(1.,0.,0.));
#945=DIRECTION('center_axis',(0.,1.,0.));
#946=DIRECTION('ref_axis',(0.,0.,1.));
#947=DIRECTION('',(1.,0.,0.));
#948=DIRECTION('',(0.,0.,1.));
#949=DIRECTION('',(-1.,0.,0.));
#950=DIRECTION('',(0.,0.,-1.));
#951=DIRECTION('center_axis',(1.,0.,0.));
#952=DIRECTION('ref_axis',(0.,1.,0.));
#953=DIRECTION('',(0.,1.,0.));
#954=DIRECTION('',(0.,0.,1.));
#955=DIRECTION('',(0.,-1.,0.));
#956=DIRECTION('center_axis',(0.,0.,1.));
#957=DIRECTION('ref_axis',(1.,0.,0.));
#958=DIRECTION('',(0.,1.,0.));
#959=DIRECTION('',(1.,0.,0.));
#960=DIRECTION('',(0.,-1.,0.));
#961=DIRECTION('',(1.,0.,0.));
#962=DIRECTION('',(0.,1.,0.));
#963=DIRECTION('',(1.,0.,0.));
#964=DIRECTION('',(0.,1.,0.));
#965=DIRECTION('',(-1.,0.,0.));
#966=DIRECTION('',(0.,1.,0.));
#967=DIRECTION('',(-1.,0.,0.));
#968=DIRECTION('',(0.,1.,0.));
#969=DIRECTION('',(-1.,0.,0.));
#970=DIRECTION('',(0.,1.,0.));
#971=DIRECTION('',(1.,0.,0.));
#972=DIRECTION('',(0.,-1.,0.));
#973=DIRECTION('',(1.,0.,0.));
#974=DIRECTION('',(0.,-1.,0.));
#975=DIRECTION('',(-1.,0.,0.));
#976=DIRECTION('',(0.,-1.,0.));
#977=DIRECTION('',(-1.,0.,0.));
#978=DIRECTION('',(0.,-1.,0.));
#979=DIRECTION('',(1.,0.,0.));
#980=DIRECTION('',(0.,-1.,0.));
#981=DIRECTION('',(-1.,0.,0.));
#982=DIRECTION('',(0.,-1.,0.));
#983=DIRECTION('',(1.,0.,0.));
#984=DIRECTION('center_axis',(0.,0.,1.));
#985=DIRECTION('ref_axis',(1.,0.,0.));
#986=DIRECTION('center_axis',(0.,-1.,0.));
#987=DIRECTION('ref_axis',(1.,0.,0.));
#988=DIRECTION('',(0.,0.,1.));
#989=DIRECTION('center_axis',(0.,-1.,0.));
#990=DIRECTION('ref_axis',(1.,0.,0.));
#991=DIRECTION('center_axis',(0.,1.,0.));
#992=DIRECTION('ref_axis',(1.,0.,0.));
#993=DIRECTION('',(0.,1.,0.));
#994=DIRECTION('center_axis',(0.,-1.,0.));
#995=DIRECTION('ref_axis',(1.,0.,0.));
#996=DIRECTION('center_axis',(1.,0.,0.));
#997=DIRECTION('ref_axis',(0.,0.,-1.));
#998=DIRECTION('',(0.,0.,1.));
#999=DIRECTION('center_axis',(0.,1.,0.));
#1000=DIRECTION('ref_axis',(0.,0.,1.));
#1001=DIRECTION('',(0.,0.,-1.));
#1002=DIRECTION('',(-1.,0.,0.));
#1003=DIRECTION('',(0.,0.,-1.));
#1004=DIRECTION('center_axis',(0.,1.,0.));
#1005=DIRECTION('ref_axis',(0.,0.,1.));
#1006=DIRECTION('center_axis',(0.,1.,0.));
#1007=DIRECTION('ref_axis',(-1.,0.,0.));
#1008=DIRECTION('',(-1.,0.,0.));
#1009=DIRECTION('',(0.,0.,1.));
#1010=DIRECTION('',(1.,0.,0.));
#1011=DIRECTION('',(0.,0.,-1.));
#1012=DIRECTION('center_axis',(0.,1.,0.));
#1013=DIRECTION('ref_axis',(-1.,0.,0.));
#1014=DIRECTION('',(-0.991777866634025,0.,0.127971337630197));
#1015=DIRECTION('center_axis',(0.,-1.,0.));
#1016=DIRECTION('ref_axis',(-1.,0.,0.));
#1017=DIRECTION('',(0.,-1.,0.));
#1018=DIRECTION('center_axis',(0.,1.,0.));
#1019=DIRECTION('ref_axis',(-1.,0.,0.));
#1020=DIRECTION('',(0.,-1.,0.));
#1021=DIRECTION('center_axis',(-0.127971337630197,0.,-0.991777866634025));
#1022=DIRECTION('ref_axis',(0.991777866634025,0.,-0.127971337630197));
#1023=DIRECTION('',(0.,-1.,0.));
#1024=DIRECTION('',(0.991777866634025,0.,-0.127971337630197));
#1025=DIRECTION('',(0.,-1.,0.));
#1026=DIRECTION('',(-0.991777866634025,0.,0.127971337630197));
#1027=DIRECTION('center_axis',(0.,-1.,0.));
#1028=DIRECTION('ref_axis',(-1.,0.,0.));
#1029=DIRECTION('center_axis',(0.,-1.,0.));
#1030=DIRECTION('ref_axis',(-1.,0.,0.));
#1031=DIRECTION('center_axis',(0.,1.,0.));
#1032=DIRECTION('ref_axis',(-1.,0.,0.));
#1033=DIRECTION('center_axis',(0.,1.,0.));
#1034=DIRECTION('ref_axis',(-1.,0.,0.));
#1035=DIRECTION('center_axis',(0.,1.,0.));
#1036=DIRECTION('ref_axis',(0.,0.,1.));
#1037=DIRECTION('center_axis',(0.,1.,0.));
#1038=DIRECTION('ref_axis',(-1.,0.,0.));
#1039=DIRECTION('',(0.,0.,1.));
#1040=DIRECTION('',(1.,0.,0.));
#1041=DIRECTION('',(0.,0.,1.));
#1042=DIRECTION('',(-1.,0.,0.));
#1043=DIRECTION('center_axis',(1.,0.,0.));
#1044=DIRECTION('ref_axis',(0.,0.,-1.));
#1045=DIRECTION('',(0.,1.,0.));
#1046=DIRECTION('center_axis',(0.,0.,1.));
#1047=DIRECTION('ref_axis',(1.,0.,0.));
#1048=DIRECTION('center_axis',(0.,0.,1.));
#1049=DIRECTION('ref_axis',(1.,0.,0.));
#1050=DIRECTION('',(0.707106781186548,8.65956056235493E-17,-0.707106781186548));
#1051=DIRECTION('center_axis',(0.,0.,-1.));
#1052=DIRECTION('ref_axis',(1.,0.,0.));
#1053=DIRECTION('center_axis',(0.,0.,1.));
#1054=DIRECTION('ref_axis',(1.,0.,0.));
#1055=DIRECTION('',(0.,0.,-1.));
#1056=DIRECTION('center_axis',(0.,0.,1.));
#1057=DIRECTION('ref_axis',(1.,0.,0.));
#1058=DIRECTION('center_axis',(0.,0.,1.));
#1059=DIRECTION('ref_axis',(1.,0.,0.));
#1060=DIRECTION('',(1.,0.,0.));
#1061=DIRECTION('',(0.,1.,0.));
#1062=DIRECTION('',(-1.,0.,0.));
#1063=DIRECTION('',(0.,-1.,0.));
#1064=DIRECTION('',(1.,0.,0.));
#1065=DIRECTION('',(0.,1.,0.));
#1066=DIRECTION('',(-1.,0.,0.));
#1067=DIRECTION('',(-1.91417762866406E-16,1.,0.));
#1068=DIRECTION('center_axis',(0.,0.,1.));
#1069=DIRECTION('ref_axis',(1.,0.,0.));
#1070=DIRECTION('',(0.707106781186547,8.65956056235493E-17,-0.707106781186547));
#1071=DIRECTION('center_axis',(0.,0.,-1.));
#1072=DIRECTION('ref_axis',(1.,0.,0.));
#1073=DIRECTION('center_axis',(0.,0.,1.));
#1074=DIRECTION('ref_axis',(1.,0.,0.));
#1075=DIRECTION('',(0.,0.,-1.));
#1076=DIRECTION('center_axis',(0.,0.,1.));
#1077=DIRECTION('ref_axis',(1.,0.,0.));
#1078=DIRECTION('center_axis',(0.,-1.,0.));
#1079=DIRECTION('ref_axis',(0.,0.,-1.));
#1080=DIRECTION('',(1.,0.,0.));
#1081=DIRECTION('',(0.,0.,-1.));
#1082=DIRECTION('',(0.,0.,1.));
#1083=DIRECTION('center_axis',(0.,0.,1.));
#1084=DIRECTION('ref_axis',(1.,0.,0.));
#1085=DIRECTION('',(0.,1.,0.));
#1086=DIRECTION('center_axis',(0.,-1.,0.));
#1087=DIRECTION('ref_axis',(-1.,0.,0.));
#1088=DIRECTION('center_axis',(1.,0.,0.));
#1089=DIRECTION('ref_axis',(0.,0.,-1.));
#1090=DIRECTION('',(0.,1.,0.));
#1091=DIRECTION('center_axis',(1.,0.,0.));
#1092=DIRECTION('ref_axis',(0.,1.,0.));
#1093=DIRECTION('',(0.,1.,0.));
#1094=DIRECTION('',(0.,0.,-1.));
#1095=DIRECTION('center_axis',(1.,0.,0.));
#1096=DIRECTION('ref_axis',(0.,0.,-1.));
#1097=DIRECTION('',(0.,1.,0.));
#1098=DIRECTION('center_axis',(0.,-1.,0.));
#1099=DIRECTION('ref_axis',(1.,0.,0.));
#1100=DIRECTION('center_axis',(0.,1.,0.));
#1101=DIRECTION('ref_axis',(1.,0.,0.));
#1102=DIRECTION('center_axis',(0.,-1.,0.));
#1103=DIRECTION('ref_axis',(1.,0.,0.));
#1104=DIRECTION('center_axis',(0.,-1.,0.));
#1105=DIRECTION('ref_axis',(1.,0.,0.));
#1106=DIRECTION('center_axis',(0.,-1.,0.));
#1107=DIRECTION('ref_axis',(1.,0.,0.));
#1108=DIRECTION('',(-1.,0.,0.));
#1109=DIRECTION('',(0.,0.,1.));
#1110=DIRECTION('',(0.,0.,1.));
#1111=DIRECTION('center_axis',(1.,0.,0.));
#1112=DIRECTION('ref_axis',(0.,1.,0.));
#1113=DIRECTION('',(0.,-1.,0.));
#1114=DIRECTION('',(0.,0.,1.));
#1115=DIRECTION('center_axis',(0.,1.,0.));
#1116=DIRECTION('ref_axis',(-1.,0.,0.));
#1117=DIRECTION('',(1.,0.,0.));
#1118=DIRECTION('',(0.,0.,1.));
#1119=DIRECTION('center_axis',(1.,1.91417762866406E-16,0.));
#1120=DIRECTION('ref_axis',(-1.91417762866406E-16,1.,0.));
#1121=DIRECTION('',(1.91417762866406E-16,-1.,0.));
#1122=DIRECTION('',(0.,0.,1.));
#1123=DIRECTION('center_axis',(0.,-1.,0.));
#1124=DIRECTION('ref_axis',(1.,0.,0.));
#1125=DIRECTION('',(-1.,0.,0.));
#1126=DIRECTION('',(0.,0.,1.));
#1127=DIRECTION('center_axis',(1.,0.,0.));
#1128=DIRECTION('ref_axis',(0.,1.,0.));
#1129=DIRECTION('',(0.,-1.,0.));
#1130=DIRECTION('',(0.,0.,1.));
#1131=DIRECTION('center_axis',(-1.,0.,0.));
#1132=DIRECTION('ref_axis',(0.,-1.,0.));
#1133=DIRECTION('',(0.,1.,0.));
#1134=DIRECTION('',(0.,0.,1.));
#1135=DIRECTION('',(0.,0.,1.));
#1136=DIRECTION('center_axis',(0.,-1.,0.));
#1137=DIRECTION('ref_axis',(1.,0.,0.));
#1138=DIRECTION('',(-1.,0.,0.));
#1139=DIRECTION('',(0.,0.,1.));
#1140=DIRECTION('center_axis',(0.,-1.,0.));
#1141=DIRECTION('ref_axis',(1.,0.,0.));
#1142=DIRECTION('',(0.,0.,1.));
#1143=DIRECTION('',(1.,0.,0.));
#1144=DIRECTION('center_axis',(-1.,0.,0.));
#1145=DIRECTION('ref_axis',(0.,-1.,0.));
#1146=DIRECTION('',(0.,1.,0.));
#1147=DIRECTION('',(0.,0.,1.));
#1148=DIRECTION('center_axis',(0.,1.,0.));
#1149=DIRECTION('ref_axis',(-1.,0.,0.));
#1150=DIRECTION('',(1.,0.,0.));
#1151=DIRECTION('',(0.,0.,1.));
#1152=DIRECTION('center_axis',(-1.,0.,0.));
#1153=DIRECTION('ref_axis',(0.,-1.,0.));
#1154=DIRECTION('',(0.,1.,0.));
#1155=DIRECTION('center_axis',(0.,1.,0.));
#1156=DIRECTION('ref_axis',(-1.,0.,0.));
#1157=DIRECTION('',(1.,0.,0.));
#1158=DIRECTION('',(0.,0.,1.));
#1159=DIRECTION('',(-1.,0.,0.));
#1160=DIRECTION('center_axis',(-1.,0.,0.));
#1161=DIRECTION('ref_axis',(0.,-1.,0.));
#1162=DIRECTION('',(0.,-1.,0.));
#1163=DIRECTION('',(0.,-1.,0.));
#1164=DIRECTION('center_axis',(0.,0.,1.));
#1165=DIRECTION('ref_axis',(1.,0.,0.));
#1166=DIRECTION('center_axis',(0.,0.,1.));
#1167=DIRECTION('ref_axis',(1.,0.,0.));
#1168=DIRECTION('center_axis',(0.,0.,1.));
#1169=DIRECTION('ref_axis',(1.,0.,0.));
#1170=DIRECTION('center_axis',(0.,0.,1.));
#1171=DIRECTION('ref_axis',(1.,0.,0.));
#1172=CARTESIAN_POINT('',(0.,0.,0.));
#1173=CARTESIAN_POINT('Origin',(40.,-3.5,8.55));
#1174=CARTESIAN_POINT('',(40.,-3.5,8.55));
#1175=CARTESIAN_POINT('',(74.,-3.5,8.55));
#1176=CARTESIAN_POINT('',(30.,-3.5,8.55));
#1177=CARTESIAN_POINT('',(40.,-3.5,0.));
#1178=CARTESIAN_POINT('',(40.,-3.5,6.4125));
#1179=CARTESIAN_POINT('',(74.,-3.5,0.));
#1180=CARTESIAN_POINT('',(21.9,-3.5,0.));
#1181=CARTESIAN_POINT('',(74.,-3.5,6.4125));
#1182=CARTESIAN_POINT('Origin',(40.,-3.,4.275));
#1183=CARTESIAN_POINT('',(40.,0.,8.55));
#1184=CARTESIAN_POINT('',(40.,-6.,8.55));
#1185=CARTESIAN_POINT('',(40.,0.,0.));
#1186=CARTESIAN_POINT('',(40.,0.,0.));
#1187=CARTESIAN_POINT('',(40.,-6.,0.));
#1188=CARTESIAN_POINT('Origin',(20.,13.75,8.55));
#1189=CARTESIAN_POINT('',(74.,1.,8.55));
#1190=CARTESIAN_POINT('',(74.,-6.,8.55));
#1191=CARTESIAN_POINT('',(72.,1.,8.55));
#1192=CARTESIAN_POINT('',(40.,1.,8.55));
#1193=CARTESIAN_POINT('',(72.,-2.,8.55));
#1194=CARTESIAN_POINT('',(72.,5.875,8.55));
#1195=CARTESIAN_POINT('',(61.75,-2.,8.55));
#1196=CARTESIAN_POINT('',(43.4375,-2.,8.55));
#1197=CARTESIAN_POINT('',(61.75,1.,8.55));
#1198=CARTESIAN_POINT('',(61.75,-9.,8.55));
#1199=CARTESIAN_POINT('',(45.,1.,8.55));
#1200=CARTESIAN_POINT('',(40.,1.,8.55));
#1201=CARTESIAN_POINT('',(45.,33.,8.55));
#1202=CARTESIAN_POINT('',(45.,20.625,8.55));
#1203=CARTESIAN_POINT('',(63.,33.,8.55));
#1204=CARTESIAN_POINT('',(30.,33.,8.55));
#1205=CARTESIAN_POINT('',(63.,34.5,8.55));
#1206=CARTESIAN_POINT('',(63.,33.5,8.55));
#1207=CARTESIAN_POINT('',(49.5,34.5,8.55));
#1208=CARTESIAN_POINT('',(38.8711617195496,34.5,8.55));
#1209=CARTESIAN_POINT('',(49.5,38.,8.55));
#1210=CARTESIAN_POINT('',(49.5,33.5,8.55));
#1211=CARTESIAN_POINT('',(40.,38.,8.55));
#1212=CARTESIAN_POINT('',(30.,38.,8.55));
#1213=CARTESIAN_POINT('',(40.,27.5,8.55));
#1214=CARTESIAN_POINT('',(40.,33.5,8.55));
#1215=CARTESIAN_POINT('',(31.75,27.5,8.55));
#1216=CARTESIAN_POINT('',(40.,27.5,8.55));
#1217=CARTESIAN_POINT('',(31.75,23.45,8.55));
#1218=CARTESIAN_POINT('',(31.75,6.00000008940697,8.55));
#1219=CARTESIAN_POINT('',(36.45,23.45,8.55));
#1220=CARTESIAN_POINT('',(0.,23.45,8.55));
#1221=CARTESIAN_POINT('',(36.45,20.55,8.55));
#1222=CARTESIAN_POINT('',(36.45,23.45,8.55));
#1223=CARTESIAN_POINT('',(31.75,20.55,8.55));
#1224=CARTESIAN_POINT('',(0.,20.55,8.55));
#1225=CARTESIAN_POINT('',(31.75,3.,8.55));
#1226=CARTESIAN_POINT('',(31.75,6.00000008940697,8.55));
#1227=CARTESIAN_POINT('',(0.,3.,8.55));
#1228=CARTESIAN_POINT('',(25.875,3.,8.55));
#1229=CARTESIAN_POINT('',(0.,0.,8.55));
#1230=CARTESIAN_POINT('',(0.,27.5,8.55));
#1231=CARTESIAN_POINT('',(10.5,0.,8.55));
#1232=CARTESIAN_POINT('',(0.,0.,8.55));
#1233=CARTESIAN_POINT('',(10.5,-2.,8.55));
#1234=CARTESIAN_POINT('',(10.5,0.,8.55));
#1235=CARTESIAN_POINT('',(20.5,-2.,8.55));
#1236=CARTESIAN_POINT('',(40.,-2.,8.55));
#1237=CARTESIAN_POINT('',(20.5,0.,8.55));
#1238=CARTESIAN_POINT('',(20.5,0.,8.55));
#1239=CARTESIAN_POINT('',(0.,0.,8.55));
#1240=CARTESIAN_POINT('',(33.25,17.,8.55));
#1241=CARTESIAN_POINT('Origin',(36.2,17.,8.55));
#1242=CARTESIAN_POINT('Origin',(66.875,-2.,5.925));
#1243=CARTESIAN_POINT('',(72.,-2.,6.94921894064179));
#1244=CARTESIAN_POINT('',(72.,-2.,7.2375));
#1245=CARTESIAN_POINT('Origin',(67.,-2.,8.55));
#1246=CARTESIAN_POINT('Origin',(67.,-9.,8.55));
#1247=CARTESIAN_POINT('',(72.,1.,6.94921894064179));
#1248=CARTESIAN_POINT('',(72.,-6.,6.94921894064179));
#1249=CARTESIAN_POINT('Origin',(67.,1.,8.55));
#1250=CARTESIAN_POINT('Origin',(72.,-9.,8.55));
#1251=CARTESIAN_POINT('',(72.,1.,4.275));
#1252=CARTESIAN_POINT('Origin',(40.,1.,0.));
#1253=CARTESIAN_POINT('',(74.,1.,0.));
#1254=CARTESIAN_POINT('',(74.,1.,8.55));
#1255=CARTESIAN_POINT('',(45.,1.,0.));
#1256=CARTESIAN_POINT('',(40.,1.,0.));
#1257=CARTESIAN_POINT('',(45.,1.,2.1375));
#1258=CARTESIAN_POINT('Origin',(40.,38.,0.));
#1259=CARTESIAN_POINT('',(71.,38.,8.55));
#1260=CARTESIAN_POINT('',(67.,38.,4.55));
#1261=CARTESIAN_POINT('Origin',(67.,38.,8.55));
#1262=CARTESIAN_POINT('',(74.,38.,8.55));
#1263=CARTESIAN_POINT('',(30.,38.,8.55));
#1264=CARTESIAN_POINT('',(74.,38.,0.));
#1265=CARTESIAN_POINT('',(74.,38.,2.1375));
#1266=CARTESIAN_POINT('',(40.,38.,0.));
#1267=CARTESIAN_POINT('',(21.9,38.,0.));
#1268=CARTESIAN_POINT('',(40.,38.,2.1375));
#1269=CARTESIAN_POINT('',(51.5,38.,6.55));
#1270=CARTESIAN_POINT('Origin',(51.5,38.,8.55));
#1271=CARTESIAN_POINT('',(46.2598259979529,38.,7.22615148413511));
#1272=CARTESIAN_POINT('Origin',(67.,33.5,8.55));
#1273=CARTESIAN_POINT('',(67.,33.,4.55));
#1274=CARTESIAN_POINT('',(67.,33.5,4.55));
#1275=CARTESIAN_POINT('',(71.,33.,8.55));
#1276=CARTESIAN_POINT('Origin',(67.,33.,8.55));
#1277=CARTESIAN_POINT('',(71.,33.5,8.55));
#1278=CARTESIAN_POINT('Origin',(51.5,33.5,6.55));
#1279=CARTESIAN_POINT('',(51.5,34.5,6.55));
#1280=CARTESIAN_POINT('',(51.5,33.5,6.55));
#1281=CARTESIAN_POINT('',(65.9846468781985,34.5,4.6810133060389));
#1282=CARTESIAN_POINT('',(54.5658904810645,34.5,6.15440122824975));
#1283=CARTESIAN_POINT('',(65.9846468781985,33.,4.6810133060389));
#1284=CARTESIAN_POINT('',(65.9846468781985,33.5,4.6810133060389));
#1285=CARTESIAN_POINT('',(45.7172466734903,33.,7.29616171954964));
#1286=CARTESIAN_POINT('Origin',(51.5,33.5,8.55));
#1287=CARTESIAN_POINT('Origin',(51.5,34.5,8.55));
#1288=CARTESIAN_POINT('Origin',(57.7423234390993,34.5,6.61550665301945));
#1289=CARTESIAN_POINT('Origin',(67.,34.5,8.55));
#1290=CARTESIAN_POINT('Origin',(40.,33.,8.55));
#1291=CARTESIAN_POINT('Origin',(67.,33.,8.55));
#1292=CARTESIAN_POINT('',(45.,33.,0.));
#1293=CARTESIAN_POINT('',(45.,33.,6.4125));
#1294=CARTESIAN_POINT('',(74.,33.,0.));
#1295=CARTESIAN_POINT('',(21.9,33.,0.));
#1296=CARTESIAN_POINT('',(74.,33.,8.55));
#1297=CARTESIAN_POINT('',(74.,33.,6.4125));
#1298=CARTESIAN_POINT('',(30.,33.,8.55));
#1299=CARTESIAN_POINT('Origin',(45.,-3.,4.275));
#1300=CARTESIAN_POINT('',(45.,0.,0.));
#1301=CARTESIAN_POINT('Origin',(3.8,17.,8.35));
#1302=CARTESIAN_POINT('',(0.849999999999999,17.,8.55));
#1303=CARTESIAN_POINT('Origin',(3.8,17.,8.55));
#1304=CARTESIAN_POINT('',(1.25,17.,8.15));
#1305=CARTESIAN_POINT('',(1.05,17.,8.35));
#1306=CARTESIAN_POINT('Origin',(3.8,17.,8.15));
#1307=CARTESIAN_POINT('Origin',(3.8,17.,0.));
#1308=CARTESIAN_POINT('',(1.25,17.,2.));
#1309=CARTESIAN_POINT('',(1.25,17.,0.));
#1310=CARTESIAN_POINT('Origin',(3.8,17.,2.));
#1311=CARTESIAN_POINT('Origin',(4.125,20.25,8.55));
#1312=CARTESIAN_POINT('',(3.55,23.45,8.55));
#1313=CARTESIAN_POINT('',(8.25,23.45,8.55));
#1314=CARTESIAN_POINT('',(0.,23.45,8.55));
#1315=CARTESIAN_POINT('',(8.25,27.5,8.55));
#1316=CARTESIAN_POINT('',(8.25,5.,8.55));
#1317=CARTESIAN_POINT('',(0.,27.5,8.55));
#1318=CARTESIAN_POINT('',(40.,27.5,8.55));
#1319=CARTESIAN_POINT('',(0.,13.,8.55));
#1320=CARTESIAN_POINT('',(0.,27.5,8.55));
#1321=CARTESIAN_POINT('',(8.25,13.,8.55));
#1322=CARTESIAN_POINT('',(31.5,13.,8.55));
#1323=CARTESIAN_POINT('',(8.25,20.55,8.55));
#1324=CARTESIAN_POINT('',(8.25,5.,8.55));
#1325=CARTESIAN_POINT('',(3.55,20.55,8.55));
#1326=CARTESIAN_POINT('',(0.,20.55,8.55));
#1327=CARTESIAN_POINT('',(3.55,23.45,8.55));
#1328=CARTESIAN_POINT('Origin',(36.2,17.,8.35));
#1329=CARTESIAN_POINT('',(33.65,17.,8.15));
#1330=CARTESIAN_POINT('',(33.45,17.,8.35));
#1331=CARTESIAN_POINT('Origin',(36.2,17.,8.15));
#1332=CARTESIAN_POINT('Origin',(36.2,17.,0.));
#1333=CARTESIAN_POINT('',(33.65,17.,2.));
#1334=CARTESIAN_POINT('',(33.65,17.,0.));
#1335=CARTESIAN_POINT('Origin',(36.2,17.,2.));
#1336=CARTESIAN_POINT('Origin',(31.75,3.,0.));
#1337=CARTESIAN_POINT('',(0.,3.,2.));
#1338=CARTESIAN_POINT('',(31.75,3.,2.));
#1339=CARTESIAN_POINT('',(0.,3.,2.));
#1340=CARTESIAN_POINT('',(0.,3.,0.));
#1341=CARTESIAN_POINT('',(31.75,3.,0.));
#1342=CARTESIAN_POINT('Origin',(20.,13.75,8.55));
#1343=CARTESIAN_POINT('',(74.,33.5,8.55));
#1344=CARTESIAN_POINT('Origin',(67.,33.5,8.55));
#1345=CARTESIAN_POINT('Origin',(74.,30.5,4.275));
#1346=CARTESIAN_POINT('',(74.,27.5,0.));
#1347=CARTESIAN_POINT('Origin',(40.,30.5,4.275));
#1348=CARTESIAN_POINT('',(40.,27.5,0.));
#1349=CARTESIAN_POINT('',(40.,27.5,0.));
#1350=CARTESIAN_POINT('',(40.,27.5,2.1375));
#1351=CARTESIAN_POINT('Origin',(74.,-7.5,4.275));
#1352=CARTESIAN_POINT('',(74.,-6.,0.));
#1353=CARTESIAN_POINT('Origin',(15.5,0.,8.55));
#1354=CARTESIAN_POINT('Origin',(15.5,0.,8.55));
#1355=CARTESIAN_POINT('Origin',(15.5,-2.,8.55));
#1356=CARTESIAN_POINT('Origin',(15.5,-2.,6.05));
#1357=CARTESIAN_POINT('Origin',(0.,13.,0.));
#1358=CARTESIAN_POINT('',(8.25,13.,2.));
#1359=CARTESIAN_POINT('',(0.,13.,2.));
#1360=CARTESIAN_POINT('',(31.5,13.,2.));
#1361=CARTESIAN_POINT('',(8.25,13.,0.));
#1362=CARTESIAN_POINT('',(0.,13.,0.));
#1363=CARTESIAN_POINT('Origin',(8.25,13.,0.));
#1364=CARTESIAN_POINT('',(8.25,20.55,2.));
#1365=CARTESIAN_POINT('',(8.25,5.,2.));
#1366=CARTESIAN_POINT('',(8.25,20.55,0.));
#1367=CARTESIAN_POINT('Origin',(8.25,20.55,0.));
#1368=CARTESIAN_POINT('',(3.55,20.55,2.));
#1369=CARTESIAN_POINT('',(0.,20.55,2.));
#1370=CARTESIAN_POINT('',(3.55,20.55,0.));
#1371=CARTESIAN_POINT('Origin',(3.55,20.55,0.));
#1372=CARTESIAN_POINT('',(3.55,23.45,2.));
#1373=CARTESIAN_POINT('',(3.55,23.45,2.));
#1374=CARTESIAN_POINT('',(3.55,23.45,0.));
#1375=CARTESIAN_POINT('Origin',(3.55,23.45,0.));
#1376=CARTESIAN_POINT('',(8.25,23.45,2.));
#1377=CARTESIAN_POINT('',(0.,23.45,2.));
#1378=CARTESIAN_POINT('',(8.25,23.45,0.));
#1379=CARTESIAN_POINT('Origin',(8.25,23.45,0.));
#1380=CARTESIAN_POINT('',(8.25,27.5,2.));
#1381=CARTESIAN_POINT('',(8.25,5.,2.));
#1382=CARTESIAN_POINT('',(8.25,27.5,0.));
#1383=CARTESIAN_POINT('Origin',(31.75,27.5,0.));
#1384=CARTESIAN_POINT('',(31.75,23.45,2.));
#1385=CARTESIAN_POINT('',(31.75,27.5,2.));
#1386=CARTESIAN_POINT('',(31.75,6.00000008940697,2.));
#1387=CARTESIAN_POINT('',(31.75,23.45,0.));
#1388=CARTESIAN_POINT('',(31.75,27.5,0.));
#1389=CARTESIAN_POINT('Origin',(31.75,23.45,0.));
#1390=CARTESIAN_POINT('',(36.45,23.45,2.));
#1391=CARTESIAN_POINT('',(0.,23.45,2.));
#1392=CARTESIAN_POINT('',(36.45,23.45,0.));
#1393=CARTESIAN_POINT('Origin',(0.,0.,0.));
#1394=CARTESIAN_POINT('',(0.,0.,0.));
#1395=CARTESIAN_POINT('',(0.,0.,0.));
#1396=CARTESIAN_POINT('',(0.,0.,0.));
#1397=CARTESIAN_POINT('Origin',(31.75,20.55,0.));
#1398=CARTESIAN_POINT('',(31.75,20.55,2.));
#1399=CARTESIAN_POINT('',(31.75,5.,2.));
#1400=CARTESIAN_POINT('',(31.75,20.55,0.));
#1401=CARTESIAN_POINT('Origin',(36.45,20.55,0.));
#1402=CARTESIAN_POINT('',(36.45,20.55,2.));
#1403=CARTESIAN_POINT('',(0.,20.55,2.));
#1404=CARTESIAN_POINT('',(36.45,20.55,0.));
#1405=CARTESIAN_POINT('Origin',(36.45,23.45,0.));
#1406=CARTESIAN_POINT('',(36.45,23.45,2.));
#1407=CARTESIAN_POINT('Origin',(31.75,27.5,0.));
#1408=CARTESIAN_POINT('',(0.,27.5,0.));
#1409=CARTESIAN_POINT('',(40.,27.5,0.));
#1410=CARTESIAN_POINT('',(0.,27.5,0.));
#1411=CARTESIAN_POINT('',(40.,27.5,2.));
#1412=CARTESIAN_POINT('Origin',(0.,13.,0.));
#1413=CARTESIAN_POINT('',(0.,27.5,2.));
#1414=CARTESIAN_POINT('',(0.,27.5,0.));
#1415=CARTESIAN_POINT('Origin',(18.225,16.25,2.));
#1416=CARTESIAN_POINT('Origin',(36.2,17.,2.));
#1417=CARTESIAN_POINT('Origin',(3.8,17.,2.));
#1418=CARTESIAN_POINT('Origin',(3.8,17.,0.));
#1419=UNCERTAINTY_MEASURE_WITH_UNIT(LENGTH_MEASURE(0.01),#1423,
'DISTANCE_ACCURACY_VALUE',
'Maximum model space distance between geometric entities at asserted c
onnectivities');
#1420=UNCERTAINTY_MEASURE_WITH_UNIT(LENGTH_MEASURE(0.01),#1423,
'DISTANCE_ACCURACY_VALUE',
'Maximum model space distance between geometric entities at asserted c
onnectivities');
#1421=(
GEOMETRIC_REPRESENTATION_CONTEXT(3)
GLOBAL_UNCERTAINTY_ASSIGNED_CONTEXT((#1419))
GLOBAL_UNIT_ASSIGNED_CONTEXT((#1423,#1425,#1426))
REPRESENTATION_CONTEXT('','3D')
);
#1422=(
GEOMETRIC_REPRESENTATION_CONTEXT(3)
GLOBAL_UNCERTAINTY_ASSIGNED_CONTEXT((#1420))
GLOBAL_UNIT_ASSIGNED_CONTEXT((#1423,#1425,#1426))
REPRESENTATION_CONTEXT('','3D')
);
#1423=(
LENGTH_UNIT()
NAMED_UNIT(*)
SI_UNIT(.MILLI.,.METRE.)
);
#1424=(
LENGTH_UNIT()
NAMED_UNIT(*)
SI_UNIT($,.METRE.)
);
#1425=(
NAMED_UNIT(*)
PLANE_ANGLE_UNIT()
SI_UNIT($,.RADIAN.)
);
#1426=(
NAMED_UNIT(*)
SI_UNIT($,.STERADIAN.)
SOLID_ANGLE_UNIT()
);
#1427=SHAPE_DEFINITION_REPRESENTATION(#1428,#1429);
#1428=PRODUCT_DEFINITION_SHAPE('',$,#1431);
#1429=SHAPE_REPRESENTATION('',(#881),#1421);
#1430=PRODUCT_DEFINITION_CONTEXT('part definition',#1435,'design');
#1431=PRODUCT_DEFINITION('sg90_arm_middle_deko',
'sg90_arm_middle_deko v19',#1432,#1430);
#1432=PRODUCT_DEFINITION_FORMATION('',$,#1437);
#1433=PRODUCT_RELATED_PRODUCT_CATEGORY('sg90_arm_middle_deko v19',
'sg90_arm_middle_deko v19',(#1437));
#1434=APPLICATION_PROTOCOL_DEFINITION('international standard',
'automotive_design',2009,#1435);
#1435=APPLICATION_CONTEXT(
'Core Data for Automotive Mechanical Design Process');
#1436=PRODUCT_CONTEXT('part definition',#1435,'mechanical');
#1437=PRODUCT('sg90_arm_middle_deko','sg90_arm_middle_deko v19',$,(#1436));
#1438=PRESENTATION_STYLE_ASSIGNMENT((#1439));
#1439=SURFACE_STYLE_USAGE(.BOTH.,#1440);
#1440=SURFACE_SIDE_STYLE('',(#1441));
#1441=SURFACE_STYLE_FILL_AREA(#1442);
#1442=FILL_AREA_STYLE('\X2\92FC\X0\ - \X2\30B530C630F3\X0\',(#1443));
#1443=FILL_AREA_STYLE_COLOUR('\X2\92FC\X0\ - \X2\30B530C630F3\X0\',#1444);
#1444=COLOUR_RGB('\X2\92FC\X0\ - \X2\30B530C630F3\X0\',0.627450980392157,
0.627450980392157,0.627450980392157);
ENDSEC;
END-ISO-10303-21;
