ISO-10303-21;
HEADER;
/* Generated by software containing ST-Developer
 * from STEP Tools, Inc. (www.steptools.com) 
 */

FILE_DESCRIPTION(
/* description */ (''),
/* implementation_level */ '2;1');

FILE_NAME(
/* name */ 'base_raspi_stopper1.step',
/* time_stamp */ '2026-02-01T19:54:42+09:00',
/* author */ (''),
/* organization */ (''),
/* preprocessor_version */ 'ST-DEVELOPER v20.1',
/* originating_system */ 'Autodesk Translation Framework v14.24.0.0',
/* authorisation */ '');

FILE_SCHEMA (('AUTOMOTIVE_DESIGN { 1 0 10303 214 3 1 1 }'));
ENDSEC;

DATA;
#10=MECHANICAL_DESIGN_GEOMETRIC_PRESENTATION_REPRESENTATION('',(#13),#1670);
#11=SHAPE_REPRESENTATION_RELATIONSHIP('SRR','None',#1677,#12);
#12=ADVANCED_BREP_SHAPE_REPRESENTATION('',(#14),#1669);
#13=STYLED_ITEM('',(#1686),#14);
#14=MANIFOLD_SOLID_BREP('\X2\30DC30C730A3\X0\2',#1018);
#15=FACE_BOUND('',#145,.T.);
#16=PLANE('',#1064);
#17=PLANE('',#1065);
#18=PLANE('',#1066);
#19=PLANE('',#1067);
#20=PLANE('',#1068);
#21=PLANE('',#1069);
#22=PLANE('',#1070);
#23=PLANE('',#1071);
#24=PLANE('',#1072);
#25=PLANE('',#1073);
#26=PLANE('',#1074);
#27=PLANE('',#1075);
#28=PLANE('',#1076);
#29=PLANE('',#1077);
#30=PLANE('',#1078);
#31=PLANE('',#1079);
#32=PLANE('',#1080);
#33=PLANE('',#1081);
#34=PLANE('',#1082);
#35=PLANE('',#1083);
#36=PLANE('',#1084);
#37=PLANE('',#1085);
#38=PLANE('',#1086);
#39=PLANE('',#1087);
#40=PLANE('',#1088);
#41=PLANE('',#1089);
#42=PLANE('',#1090);
#43=PLANE('',#1091);
#44=PLANE('',#1092);
#45=PLANE('',#1093);
#46=PLANE('',#1094);
#47=PLANE('',#1095);
#48=PLANE('',#1096);
#49=PLANE('',#1097);
#50=PLANE('',#1098);
#51=PLANE('',#1099);
#52=PLANE('',#1100);
#53=PLANE('',#1101);
#54=PLANE('',#1102);
#55=PLANE('',#1103);
#56=PLANE('',#1104);
#57=PLANE('',#1105);
#58=PLANE('',#1106);
#59=PLANE('',#1107);
#60=FACE_OUTER_BOUND('',#120,.T.);
#61=FACE_OUTER_BOUND('',#121,.T.);
#62=FACE_OUTER_BOUND('',#122,.T.);
#63=FACE_OUTER_BOUND('',#123,.T.);
#64=FACE_OUTER_BOUND('',#124,.T.);
#65=FACE_OUTER_BOUND('',#125,.T.);
#66=FACE_OUTER_BOUND('',#126,.T.);
#67=FACE_OUTER_BOUND('',#127,.T.);
#68=FACE_OUTER_BOUND('',#128,.T.);
#69=FACE_OUTER_BOUND('',#129,.T.);
#70=FACE_OUTER_BOUND('',#130,.T.);
#71=FACE_OUTER_BOUND('',#131,.T.);
#72=FACE_OUTER_BOUND('',#132,.T.);
#73=FACE_OUTER_BOUND('',#133,.T.);
#74=FACE_OUTER_BOUND('',#134,.T.);
#75=FACE_OUTER_BOUND('',#135,.T.);
#76=FACE_OUTER_BOUND('',#136,.T.);
#77=FACE_OUTER_BOUND('',#137,.T.);
#78=FACE_OUTER_BOUND('',#138,.T.);
#79=FACE_OUTER_BOUND('',#139,.T.);
#80=FACE_OUTER_BOUND('',#140,.T.);
#81=FACE_OUTER_BOUND('',#141,.T.);
#82=FACE_OUTER_BOUND('',#142,.T.);
#83=FACE_OUTER_BOUND('',#143,.T.);
#84=FACE_OUTER_BOUND('',#144,.T.);
#85=FACE_OUTER_BOUND('',#146,.T.);
#86=FACE_OUTER_BOUND('',#147,.T.);
#87=FACE_OUTER_BOUND('',#148,.T.);
#88=FACE_OUTER_BOUND('',#149,.T.);
#89=FACE_OUTER_BOUND('',#150,.T.);
#90=FACE_OUTER_BOUND('',#151,.T.);
#91=FACE_OUTER_BOUND('',#152,.T.);
#92=FACE_OUTER_BOUND('',#153,.T.);
#93=FACE_OUTER_BOUND('',#154,.T.);
#94=FACE_OUTER_BOUND('',#155,.T.);
#95=FACE_OUTER_BOUND('',#156,.T.);
#96=FACE_OUTER_BOUND('',#157,.T.);
#97=FACE_OUTER_BOUND('',#158,.T.);
#98=FACE_OUTER_BOUND('',#159,.T.);
#99=FACE_OUTER_BOUND('',#160,.T.);
#100=FACE_OUTER_BOUND('',#161,.T.);
#101=FACE_OUTER_BOUND('',#162,.T.);
#102=FACE_OUTER_BOUND('',#163,.T.);
#103=FACE_OUTER_BOUND('',#164,.T.);
#104=FACE_OUTER_BOUND('',#165,.T.);
#105=FACE_OUTER_BOUND('',#166,.T.);
#106=FACE_OUTER_BOUND('',#167,.T.);
#107=FACE_OUTER_BOUND('',#168,.T.);
#108=FACE_OUTER_BOUND('',#169,.T.);
#109=FACE_OUTER_BOUND('',#170,.T.);
#110=FACE_OUTER_BOUND('',#171,.T.);
#111=FACE_OUTER_BOUND('',#172,.T.);
#112=FACE_OUTER_BOUND('',#173,.T.);
#113=FACE_OUTER_BOUND('',#174,.T.);
#114=FACE_OUTER_BOUND('',#175,.T.);
#115=FACE_OUTER_BOUND('',#176,.T.);
#116=FACE_OUTER_BOUND('',#177,.T.);
#117=FACE_OUTER_BOUND('',#178,.T.);
#118=FACE_OUTER_BOUND('',#179,.T.);
#119=FACE_OUTER_BOUND('',#180,.T.);
#120=EDGE_LOOP('',(#664,#665,#666,#667));
#121=EDGE_LOOP('',(#668,#669,#670,#671));
#122=EDGE_LOOP('',(#672,#673,#674,#675));
#123=EDGE_LOOP('',(#676,#677,#678,#679));
#124=EDGE_LOOP('',(#680,#681,#682,#683));
#125=EDGE_LOOP('',(#684,#685,#686,#687));
#126=EDGE_LOOP('',(#688,#689,#690,#691));
#127=EDGE_LOOP('',(#692,#693,#694,#695));
#128=EDGE_LOOP('',(#696,#697,#698,#699));
#129=EDGE_LOOP('',(#700,#701,#702,#703));
#130=EDGE_LOOP('',(#704,#705,#706,#707));
#131=EDGE_LOOP('',(#708,#709,#710,#711));
#132=EDGE_LOOP('',(#712,#713,#714,#715));
#133=EDGE_LOOP('',(#716,#717,#718,#719));
#134=EDGE_LOOP('',(#720,#721,#722,#723));
#135=EDGE_LOOP('',(#724,#725,#726,#727));
#136=EDGE_LOOP('',(#728,#729,#730,#731));
#137=EDGE_LOOP('',(#732,#733,#734,#735));
#138=EDGE_LOOP('',(#736,#737,#738,#739));
#139=EDGE_LOOP('',(#740,#741,#742,#743));
#140=EDGE_LOOP('',(#744,#745,#746,#747));
#141=EDGE_LOOP('',(#748,#749,#750,#751));
#142=EDGE_LOOP('',(#752,#753,#754,#755));
#143=EDGE_LOOP('',(#756,#757,#758,#759));
#144=EDGE_LOOP('',(#760,#761,#762,#763));
#145=EDGE_LOOP('',(#764,#765,#766,#767,#768,#769,#770,#771,#772,#773,#774,
#775,#776,#777,#778,#779));
#146=EDGE_LOOP('',(#780,#781,#782,#783));
#147=EDGE_LOOP('',(#784,#785,#786,#787));
#148=EDGE_LOOP('',(#788,#789,#790,#791));
#149=EDGE_LOOP('',(#792,#793,#794,#795));
#150=EDGE_LOOP('',(#796,#797,#798,#799));
#151=EDGE_LOOP('',(#800,#801,#802,#803));
#152=EDGE_LOOP('',(#804,#805,#806,#807));
#153=EDGE_LOOP('',(#808,#809,#810,#811));
#154=EDGE_LOOP('',(#812,#813,#814,#815));
#155=EDGE_LOOP('',(#816,#817,#818,#819));
#156=EDGE_LOOP('',(#820,#821,#822,#823));
#157=EDGE_LOOP('',(#824,#825,#826,#827));
#158=EDGE_LOOP('',(#828,#829,#830,#831));
#159=EDGE_LOOP('',(#832,#833,#834,#835));
#160=EDGE_LOOP('',(#836,#837,#838,#839));
#161=EDGE_LOOP('',(#840,#841,#842,#843));
#162=EDGE_LOOP('',(#844,#845,#846,#847,#848,#849,#850,#851,#852,#853,#854,
#855,#856,#857,#858,#859));
#163=EDGE_LOOP('',(#860,#861,#862,#863));
#164=EDGE_LOOP('',(#864,#865,#866,#867));
#165=EDGE_LOOP('',(#868,#869,#870,#871));
#166=EDGE_LOOP('',(#872,#873,#874,#875));
#167=EDGE_LOOP('',(#876,#877,#878,#879));
#168=EDGE_LOOP('',(#880,#881,#882,#883));
#169=EDGE_LOOP('',(#884,#885,#886,#887));
#170=EDGE_LOOP('',(#888,#889,#890,#891));
#171=EDGE_LOOP('',(#892,#893,#894,#895,#896,#897,#898,#899));
#172=EDGE_LOOP('',(#900,#901,#902,#903));
#173=EDGE_LOOP('',(#904,#905,#906,#907));
#174=EDGE_LOOP('',(#908,#909,#910,#911,#912,#913));
#175=EDGE_LOOP('',(#914,#915,#916,#917,#918,#919));
#176=EDGE_LOOP('',(#920,#921,#922,#923,#924,#925));
#177=EDGE_LOOP('',(#926,#927,#928,#929));
#178=EDGE_LOOP('',(#930,#931,#932,#933));
#179=EDGE_LOOP('',(#934,#935,#936,#937));
#180=EDGE_LOOP('',(#938,#939,#940,#941));
#181=ELLIPSE('',#1033,0.407836463283327,0.4);
#182=ELLIPSE('',#1034,0.407836463283327,0.4);
#183=ELLIPSE('',#1036,0.407836463283328,0.4);
#184=ELLIPSE('',#1037,0.407836463283328,0.4);
#185=ELLIPSE('',#1039,0.407836463283328,0.4);
#186=ELLIPSE('',#1041,0.407836463283327,0.4);
#187=ELLIPSE('',#1043,0.407836463283327,0.4);
#188=ELLIPSE('',#1045,0.407836463283327,0.4);
#189=ELLIPSE('',#1047,0.407836463283327,0.4);
#190=ELLIPSE('',#1049,0.407836463283327,0.4);
#191=ELLIPSE('',#1051,0.407836463283328,0.4);
#192=ELLIPSE('',#1053,0.407836463283328,0.4);
#193=ELLIPSE('',#1055,0.407836463283327,0.4);
#194=ELLIPSE('',#1057,0.407836463283328,0.4);
#195=ELLIPSE('',#1059,0.407836463283327,0.4);
#196=ELLIPSE('',#1062,0.407836463283327,0.4);
#197=LINE('',#1389,#320);
#198=LINE('',#1393,#321);
#199=LINE('',#1398,#322);
#200=LINE('',#1402,#323);
#201=LINE('',#1406,#324);
#202=LINE('',#1409,#325);
#203=LINE('',#1412,#326);
#204=LINE('',#1415,#327);
#205=LINE('',#1418,#328);
#206=LINE('',#1421,#329);
#207=LINE('',#1424,#330);
#208=LINE('',#1427,#331);
#209=LINE('',#1430,#332);
#210=LINE('',#1433,#333);
#211=LINE('',#1436,#334);
#212=LINE('',#1439,#335);
#213=LINE('',#1442,#336);
#214=LINE('',#1444,#337);
#215=LINE('',#1448,#338);
#216=LINE('',#1450,#339);
#217=LINE('',#1454,#340);
#218=LINE('',#1456,#341);
#219=LINE('',#1460,#342);
#220=LINE('',#1462,#343);
#221=LINE('',#1466,#344);
#222=LINE('',#1468,#345);
#223=LINE('',#1471,#346);
#224=LINE('',#1472,#347);
#225=LINE('',#1475,#348);
#226=LINE('',#1477,#349);
#227=LINE('',#1480,#350);
#228=LINE('',#1481,#351);
#229=LINE('',#1484,#352);
#230=LINE('',#1486,#353);
#231=LINE('',#1487,#354);
#232=LINE('',#1490,#355);
#233=LINE('',#1491,#356);
#234=LINE('',#1494,#357);
#235=LINE('',#1495,#358);
#236=LINE('',#1498,#359);
#237=LINE('',#1499,#360);
#238=LINE('',#1502,#361);
#239=LINE('',#1503,#362);
#240=LINE('',#1506,#363);
#241=LINE('',#1507,#364);
#242=LINE('',#1510,#365);
#243=LINE('',#1511,#366);
#244=LINE('',#1514,#367);
#245=LINE('',#1515,#368);
#246=LINE('',#1519,#369);
#247=LINE('',#1521,#370);
#248=LINE('',#1523,#371);
#249=LINE('',#1524,#372);
#250=LINE('',#1528,#373);
#251=LINE('',#1529,#374);
#252=LINE('',#1530,#375);
#253=LINE('',#1533,#376);
#254=LINE('',#1535,#377);
#255=LINE('',#1536,#378);
#256=LINE('',#1539,#379);
#257=LINE('',#1541,#380);
#258=LINE('',#1542,#381);
#259=LINE('',#1545,#382);
#260=LINE('',#1547,#383);
#261=LINE('',#1548,#384);
#262=LINE('',#1551,#385);
#263=LINE('',#1553,#386);
#264=LINE('',#1554,#387);
#265=LINE('',#1557,#388);
#266=LINE('',#1559,#389);
#267=LINE('',#1560,#390);
#268=LINE('',#1563,#391);
#269=LINE('',#1565,#392);
#270=LINE('',#1566,#393);
#271=LINE('',#1569,#394);
#272=LINE('',#1571,#395);
#273=LINE('',#1572,#396);
#274=LINE('',#1575,#397);
#275=LINE('',#1576,#398);
#276=LINE('',#1577,#399);
#277=LINE('',#1580,#400);
#278=LINE('',#1581,#401);
#279=LINE('',#1584,#402);
#280=LINE('',#1585,#403);
#281=LINE('',#1588,#404);
#282=LINE('',#1589,#405);
#283=LINE('',#1592,#406);
#284=LINE('',#1593,#407);
#285=LINE('',#1596,#408);
#286=LINE('',#1597,#409);
#287=LINE('',#1600,#410);
#288=LINE('',#1601,#411);
#289=LINE('',#1603,#412);
#290=LINE('',#1606,#413);
#291=LINE('',#1608,#414);
#292=LINE('',#1610,#415);
#293=LINE('',#1612,#416);
#294=LINE('',#1614,#417);
#295=LINE('',#1616,#418);
#296=LINE('',#1618,#419);
#297=LINE('',#1623,#420);
#298=LINE('',#1625,#421);
#299=LINE('',#1626,#422);
#300=LINE('',#1628,#423);
#301=LINE('',#1630,#424);
#302=LINE('',#1632,#425);
#303=LINE('',#1633,#426);
#304=LINE('',#1636,#427);
#305=LINE('',#1637,#428);
#306=LINE('',#1640,#429);
#307=LINE('',#1641,#430);
#308=LINE('',#1644,#431);
#309=LINE('',#1646,#432);
#310=LINE('',#1648,#433);
#311=LINE('',#1649,#434);
#312=LINE('',#1652,#435);
#313=LINE('',#1653,#436);
#314=LINE('',#1655,#437);
#315=LINE('',#1657,#438);
#316=LINE('',#1658,#439);
#317=LINE('',#1661,#440);
#318=LINE('',#1662,#441);
#319=LINE('',#1664,#442);
#320=VECTOR('',#1112,10.);
#321=VECTOR('',#1115,10.);
#322=VECTOR('',#1120,10.);
#323=VECTOR('',#1123,10.);
#324=VECTOR('',#1128,10.);
#325=VECTOR('',#1131,10.);
#326=VECTOR('',#1134,10.);
#327=VECTOR('',#1137,10.);
#328=VECTOR('',#1140,10.);
#329=VECTOR('',#1143,10.);
#330=VECTOR('',#1146,10.);
#331=VECTOR('',#1149,10.);
#332=VECTOR('',#1152,10.);
#333=VECTOR('',#1155,10.);
#334=VECTOR('',#1158,10.);
#335=VECTOR('',#1161,10.);
#336=VECTOR('',#1164,10.);
#337=VECTOR('',#1165,10.);
#338=VECTOR('',#1170,10.);
#339=VECTOR('',#1171,10.);
#340=VECTOR('',#1176,10.);
#341=VECTOR('',#1177,10.);
#342=VECTOR('',#1182,10.);
#343=VECTOR('',#1183,10.);
#344=VECTOR('',#1188,10.);
#345=VECTOR('',#1189,10.);
#346=VECTOR('',#1194,10.);
#347=VECTOR('',#1195,10.);
#348=VECTOR('',#1198,10.);
#349=VECTOR('',#1199,10.);
#350=VECTOR('',#1204,10.);
#351=VECTOR('',#1205,10.);
#352=VECTOR('',#1208,10.);
#353=VECTOR('',#1209,10.);
#354=VECTOR('',#1210,10.);
#355=VECTOR('',#1213,10.);
#356=VECTOR('',#1214,10.);
#357=VECTOR('',#1217,10.);
#358=VECTOR('',#1218,10.);
#359=VECTOR('',#1221,10.);
#360=VECTOR('',#1222,10.);
#361=VECTOR('',#1225,10.);
#362=VECTOR('',#1226,10.);
#363=VECTOR('',#1229,10.);
#364=VECTOR('',#1230,10.);
#365=VECTOR('',#1233,10.);
#366=VECTOR('',#1234,10.);
#367=VECTOR('',#1237,10.);
#368=VECTOR('',#1238,10.);
#369=VECTOR('',#1241,10.);
#370=VECTOR('',#1242,10.);
#371=VECTOR('',#1243,10.);
#372=VECTOR('',#1244,10.);
#373=VECTOR('',#1247,10.);
#374=VECTOR('',#1248,10.);
#375=VECTOR('',#1249,10.);
#376=VECTOR('',#1252,10.);
#377=VECTOR('',#1253,10.);
#378=VECTOR('',#1254,10.);
#379=VECTOR('',#1257,10.);
#380=VECTOR('',#1258,10.);
#381=VECTOR('',#1259,10.);
#382=VECTOR('',#1262,10.);
#383=VECTOR('',#1263,10.);
#384=VECTOR('',#1264,10.);
#385=VECTOR('',#1267,10.);
#386=VECTOR('',#1268,10.);
#387=VECTOR('',#1269,10.);
#388=VECTOR('',#1272,10.);
#389=VECTOR('',#1273,10.);
#390=VECTOR('',#1274,10.);
#391=VECTOR('',#1277,10.);
#392=VECTOR('',#1278,10.);
#393=VECTOR('',#1279,10.);
#394=VECTOR('',#1282,10.);
#395=VECTOR('',#1283,10.);
#396=VECTOR('',#1284,10.);
#397=VECTOR('',#1287,10.);
#398=VECTOR('',#1288,10.);
#399=VECTOR('',#1289,10.);
#400=VECTOR('',#1292,10.);
#401=VECTOR('',#1293,10.);
#402=VECTOR('',#1296,10.);
#403=VECTOR('',#1297,10.);
#404=VECTOR('',#1300,10.);
#405=VECTOR('',#1301,10.);
#406=VECTOR('',#1304,10.);
#407=VECTOR('',#1305,10.);
#408=VECTOR('',#1308,10.);
#409=VECTOR('',#1309,10.);
#410=VECTOR('',#1312,10.);
#411=VECTOR('',#1313,10.);
#412=VECTOR('',#1316,10.);
#413=VECTOR('',#1321,10.);
#414=VECTOR('',#1324,10.);
#415=VECTOR('',#1327,10.);
#416=VECTOR('',#1330,10.);
#417=VECTOR('',#1333,10.);
#418=VECTOR('',#1336,10.);
#419=VECTOR('',#1339,10.);
#420=VECTOR('',#1344,10.);
#421=VECTOR('',#1345,10.);
#422=VECTOR('',#1346,10.);
#423=VECTOR('',#1347,10.);
#424=VECTOR('',#1348,10.);
#425=VECTOR('',#1349,10.);
#426=VECTOR('',#1350,10.);
#427=VECTOR('',#1353,10.);
#428=VECTOR('',#1354,10.);
#429=VECTOR('',#1357,10.);
#430=VECTOR('',#1358,10.);
#431=VECTOR('',#1361,10.);
#432=VECTOR('',#1362,10.);
#433=VECTOR('',#1363,10.);
#434=VECTOR('',#1364,10.);
#435=VECTOR('',#1367,10.);
#436=VECTOR('',#1368,10.);
#437=VECTOR('',#1371,10.);
#438=VECTOR('',#1372,10.);
#439=VECTOR('',#1373,10.);
#440=VECTOR('',#1376,10.);
#441=VECTOR('',#1377,10.);
#442=VECTOR('',#1380,10.);
#443=VERTEX_POINT('',#1387);
#444=VERTEX_POINT('',#1388);
#445=VERTEX_POINT('',#1390);
#446=VERTEX_POINT('',#1392);
#447=VERTEX_POINT('',#1396);
#448=VERTEX_POINT('',#1397);
#449=VERTEX_POINT('',#1399);
#450=VERTEX_POINT('',#1401);
#451=VERTEX_POINT('',#1405);
#452=VERTEX_POINT('',#1407);
#453=VERTEX_POINT('',#1411);
#454=VERTEX_POINT('',#1413);
#455=VERTEX_POINT('',#1417);
#456=VERTEX_POINT('',#1419);
#457=VERTEX_POINT('',#1423);
#458=VERTEX_POINT('',#1425);
#459=VERTEX_POINT('',#1429);
#460=VERTEX_POINT('',#1431);
#461=VERTEX_POINT('',#1435);
#462=VERTEX_POINT('',#1437);
#463=VERTEX_POINT('',#1441);
#464=VERTEX_POINT('',#1443);
#465=VERTEX_POINT('',#1447);
#466=VERTEX_POINT('',#1449);
#467=VERTEX_POINT('',#1453);
#468=VERTEX_POINT('',#1455);
#469=VERTEX_POINT('',#1459);
#470=VERTEX_POINT('',#1461);
#471=VERTEX_POINT('',#1465);
#472=VERTEX_POINT('',#1467);
#473=VERTEX_POINT('',#1474);
#474=VERTEX_POINT('',#1476);
#475=VERTEX_POINT('',#1483);
#476=VERTEX_POINT('',#1485);
#477=VERTEX_POINT('',#1489);
#478=VERTEX_POINT('',#1493);
#479=VERTEX_POINT('',#1497);
#480=VERTEX_POINT('',#1501);
#481=VERTEX_POINT('',#1505);
#482=VERTEX_POINT('',#1509);
#483=VERTEX_POINT('',#1513);
#484=VERTEX_POINT('',#1517);
#485=VERTEX_POINT('',#1518);
#486=VERTEX_POINT('',#1520);
#487=VERTEX_POINT('',#1522);
#488=VERTEX_POINT('',#1526);
#489=VERTEX_POINT('',#1527);
#490=VERTEX_POINT('',#1532);
#491=VERTEX_POINT('',#1534);
#492=VERTEX_POINT('',#1538);
#493=VERTEX_POINT('',#1540);
#494=VERTEX_POINT('',#1544);
#495=VERTEX_POINT('',#1546);
#496=VERTEX_POINT('',#1550);
#497=VERTEX_POINT('',#1552);
#498=VERTEX_POINT('',#1556);
#499=VERTEX_POINT('',#1558);
#500=VERTEX_POINT('',#1562);
#501=VERTEX_POINT('',#1564);
#502=VERTEX_POINT('',#1568);
#503=VERTEX_POINT('',#1570);
#504=VERTEX_POINT('',#1574);
#505=VERTEX_POINT('',#1579);
#506=VERTEX_POINT('',#1583);
#507=VERTEX_POINT('',#1587);
#508=VERTEX_POINT('',#1591);
#509=VERTEX_POINT('',#1595);
#510=VERTEX_POINT('',#1599);
#511=VERTEX_POINT('',#1621);
#512=VERTEX_POINT('',#1622);
#513=VERTEX_POINT('',#1624);
#514=VERTEX_POINT('',#1627);
#515=VERTEX_POINT('',#1629);
#516=VERTEX_POINT('',#1631);
#517=VERTEX_POINT('',#1635);
#518=VERTEX_POINT('',#1639);
#519=VERTEX_POINT('',#1643);
#520=VERTEX_POINT('',#1645);
#521=VERTEX_POINT('',#1647);
#522=VERTEX_POINT('',#1651);
#523=VERTEX_POINT('',#1656);
#524=VERTEX_POINT('',#1660);
#525=EDGE_CURVE('',#443,#444,#197,.T.);
#526=EDGE_CURVE('',#444,#445,#181,.T.);
#527=EDGE_CURVE('',#445,#446,#198,.T.);
#528=EDGE_CURVE('',#443,#446,#182,.T.);
#529=EDGE_CURVE('',#447,#448,#199,.T.);
#530=EDGE_CURVE('',#448,#449,#183,.T.);
#531=EDGE_CURVE('',#449,#450,#200,.T.);
#532=EDGE_CURVE('',#450,#447,#184,.T.);
#533=EDGE_CURVE('',#444,#451,#201,.T.);
#534=EDGE_CURVE('',#451,#452,#185,.T.);
#535=EDGE_CURVE('',#452,#445,#202,.T.);
#536=EDGE_CURVE('',#451,#453,#203,.T.);
#537=EDGE_CURVE('',#453,#454,#186,.T.);
#538=EDGE_CURVE('',#454,#452,#204,.T.);
#539=EDGE_CURVE('',#453,#455,#205,.T.);
#540=EDGE_CURVE('',#455,#456,#187,.T.);
#541=EDGE_CURVE('',#456,#454,#206,.T.);
#542=EDGE_CURVE('',#455,#457,#207,.T.);
#543=EDGE_CURVE('',#457,#458,#188,.T.);
#544=EDGE_CURVE('',#458,#456,#208,.T.);
#545=EDGE_CURVE('',#457,#459,#209,.T.);
#546=EDGE_CURVE('',#459,#460,#189,.T.);
#547=EDGE_CURVE('',#460,#458,#210,.T.);
#548=EDGE_CURVE('',#459,#461,#211,.T.);
#549=EDGE_CURVE('',#461,#462,#190,.T.);
#550=EDGE_CURVE('',#462,#460,#212,.T.);
#551=EDGE_CURVE('',#463,#462,#213,.T.);
#552=EDGE_CURVE('',#461,#464,#214,.T.);
#553=EDGE_CURVE('',#464,#463,#191,.T.);
#554=EDGE_CURVE('',#465,#463,#215,.T.);
#555=EDGE_CURVE('',#464,#466,#216,.T.);
#556=EDGE_CURVE('',#466,#465,#192,.T.);
#557=EDGE_CURVE('',#467,#465,#217,.T.);
#558=EDGE_CURVE('',#466,#468,#218,.T.);
#559=EDGE_CURVE('',#468,#467,#193,.T.);
#560=EDGE_CURVE('',#469,#467,#219,.T.);
#561=EDGE_CURVE('',#468,#470,#220,.T.);
#562=EDGE_CURVE('',#470,#469,#194,.T.);
#563=EDGE_CURVE('',#471,#469,#221,.T.);
#564=EDGE_CURVE('',#470,#472,#222,.T.);
#565=EDGE_CURVE('',#472,#471,#195,.T.);
#566=EDGE_CURVE('',#448,#471,#223,.T.);
#567=EDGE_CURVE('',#472,#449,#224,.T.);
#568=EDGE_CURVE('',#473,#447,#225,.T.);
#569=EDGE_CURVE('',#450,#474,#226,.T.);
#570=EDGE_CURVE('',#474,#473,#196,.T.);
#571=EDGE_CURVE('',#446,#473,#227,.T.);
#572=EDGE_CURVE('',#474,#443,#228,.T.);
#573=EDGE_CURVE('',#455,#475,#229,.T.);
#574=EDGE_CURVE('',#476,#475,#230,.T.);
#575=EDGE_CURVE('',#457,#476,#231,.T.);
#576=EDGE_CURVE('',#453,#477,#232,.T.);
#577=EDGE_CURVE('',#475,#477,#233,.T.);
#578=EDGE_CURVE('',#451,#478,#234,.T.);
#579=EDGE_CURVE('',#477,#478,#235,.T.);
#580=EDGE_CURVE('',#444,#479,#236,.T.);
#581=EDGE_CURVE('',#478,#479,#237,.T.);
#582=EDGE_CURVE('',#443,#480,#238,.T.);
#583=EDGE_CURVE('',#479,#480,#239,.T.);
#584=EDGE_CURVE('',#474,#481,#240,.T.);
#585=EDGE_CURVE('',#480,#481,#241,.T.);
#586=EDGE_CURVE('',#450,#482,#242,.T.);
#587=EDGE_CURVE('',#481,#482,#243,.T.);
#588=EDGE_CURVE('',#449,#483,#244,.T.);
#589=EDGE_CURVE('',#482,#483,#245,.T.);
#590=EDGE_CURVE('',#484,#485,#246,.T.);
#591=EDGE_CURVE('',#485,#486,#247,.T.);
#592=EDGE_CURVE('',#486,#487,#248,.T.);
#593=EDGE_CURVE('',#487,#484,#249,.T.);
#594=EDGE_CURVE('',#488,#489,#250,.T.);
#595=EDGE_CURVE('',#489,#476,#251,.T.);
#596=EDGE_CURVE('',#488,#475,#252,.T.);
#597=EDGE_CURVE('',#489,#490,#253,.T.);
#598=EDGE_CURVE('',#490,#491,#254,.T.);
#599=EDGE_CURVE('',#491,#476,#255,.T.);
#600=EDGE_CURVE('',#490,#492,#256,.T.);
#601=EDGE_CURVE('',#492,#493,#257,.T.);
#602=EDGE_CURVE('',#493,#491,#258,.T.);
#603=EDGE_CURVE('',#492,#494,#259,.T.);
#604=EDGE_CURVE('',#494,#495,#260,.T.);
#605=EDGE_CURVE('',#495,#493,#261,.T.);
#606=EDGE_CURVE('',#494,#496,#262,.T.);
#607=EDGE_CURVE('',#496,#497,#263,.T.);
#608=EDGE_CURVE('',#497,#495,#264,.T.);
#609=EDGE_CURVE('',#496,#498,#265,.T.);
#610=EDGE_CURVE('',#498,#499,#266,.T.);
#611=EDGE_CURVE('',#499,#497,#267,.T.);
#612=EDGE_CURVE('',#498,#500,#268,.T.);
#613=EDGE_CURVE('',#500,#501,#269,.T.);
#614=EDGE_CURVE('',#501,#499,#270,.T.);
#615=EDGE_CURVE('',#500,#502,#271,.T.);
#616=EDGE_CURVE('',#502,#503,#272,.T.);
#617=EDGE_CURVE('',#503,#501,#273,.T.);
#618=EDGE_CURVE('',#502,#504,#274,.T.);
#619=EDGE_CURVE('',#504,#483,#275,.T.);
#620=EDGE_CURVE('',#483,#503,#276,.T.);
#621=EDGE_CURVE('',#504,#505,#277,.T.);
#622=EDGE_CURVE('',#505,#482,#278,.T.);
#623=EDGE_CURVE('',#505,#506,#279,.T.);
#624=EDGE_CURVE('',#506,#481,#280,.T.);
#625=EDGE_CURVE('',#506,#507,#281,.T.);
#626=EDGE_CURVE('',#507,#480,#282,.T.);
#627=EDGE_CURVE('',#507,#508,#283,.T.);
#628=EDGE_CURVE('',#508,#479,#284,.T.);
#629=EDGE_CURVE('',#508,#509,#285,.T.);
#630=EDGE_CURVE('',#509,#478,#286,.T.);
#631=EDGE_CURVE('',#509,#510,#287,.T.);
#632=EDGE_CURVE('',#510,#477,#288,.T.);
#633=EDGE_CURVE('',#510,#488,#289,.T.);
#634=EDGE_CURVE('',#459,#491,#290,.T.);
#635=EDGE_CURVE('',#461,#493,#291,.T.);
#636=EDGE_CURVE('',#464,#495,#292,.T.);
#637=EDGE_CURVE('',#466,#497,#293,.T.);
#638=EDGE_CURVE('',#468,#499,#294,.T.);
#639=EDGE_CURVE('',#470,#501,#295,.T.);
#640=EDGE_CURVE('',#472,#503,#296,.T.);
#641=EDGE_CURVE('',#511,#512,#297,.T.);
#642=EDGE_CURVE('',#513,#511,#298,.T.);
#643=EDGE_CURVE('',#485,#513,#299,.T.);
#644=EDGE_CURVE('',#514,#484,#300,.T.);
#645=EDGE_CURVE('',#515,#514,#301,.T.);
#646=EDGE_CURVE('',#516,#515,#302,.T.);
#647=EDGE_CURVE('',#512,#516,#303,.T.);
#648=EDGE_CURVE('',#517,#513,#304,.T.);
#649=EDGE_CURVE('',#486,#517,#305,.T.);
#650=EDGE_CURVE('',#511,#518,#306,.T.);
#651=EDGE_CURVE('',#517,#518,#307,.T.);
#652=EDGE_CURVE('',#519,#512,#308,.T.);
#653=EDGE_CURVE('',#520,#519,#309,.T.);
#654=EDGE_CURVE('',#521,#520,#310,.T.);
#655=EDGE_CURVE('',#518,#521,#311,.T.);
#656=EDGE_CURVE('',#522,#521,#312,.T.);
#657=EDGE_CURVE('',#487,#522,#313,.T.);
#658=EDGE_CURVE('',#522,#514,#314,.T.);
#659=EDGE_CURVE('',#520,#523,#315,.T.);
#660=EDGE_CURVE('',#523,#515,#316,.T.);
#661=EDGE_CURVE('',#524,#519,#317,.T.);
#662=EDGE_CURVE('',#523,#524,#318,.T.);
#663=EDGE_CURVE('',#516,#524,#319,.T.);
#664=ORIENTED_EDGE('',*,*,#525,.T.);
#665=ORIENTED_EDGE('',*,*,#526,.T.);
#666=ORIENTED_EDGE('',*,*,#527,.T.);
#667=ORIENTED_EDGE('',*,*,#528,.F.);
#668=ORIENTED_EDGE('',*,*,#529,.T.);
#669=ORIENTED_EDGE('',*,*,#530,.T.);
#670=ORIENTED_EDGE('',*,*,#531,.T.);
#671=ORIENTED_EDGE('',*,*,#532,.T.);
#672=ORIENTED_EDGE('',*,*,#533,.T.);
#673=ORIENTED_EDGE('',*,*,#534,.T.);
#674=ORIENTED_EDGE('',*,*,#535,.T.);
#675=ORIENTED_EDGE('',*,*,#526,.F.);
#676=ORIENTED_EDGE('',*,*,#536,.T.);
#677=ORIENTED_EDGE('',*,*,#537,.T.);
#678=ORIENTED_EDGE('',*,*,#538,.T.);
#679=ORIENTED_EDGE('',*,*,#534,.F.);
#680=ORIENTED_EDGE('',*,*,#539,.T.);
#681=ORIENTED_EDGE('',*,*,#540,.T.);
#682=ORIENTED_EDGE('',*,*,#541,.T.);
#683=ORIENTED_EDGE('',*,*,#537,.F.);
#684=ORIENTED_EDGE('',*,*,#542,.T.);
#685=ORIENTED_EDGE('',*,*,#543,.T.);
#686=ORIENTED_EDGE('',*,*,#544,.T.);
#687=ORIENTED_EDGE('',*,*,#540,.F.);
#688=ORIENTED_EDGE('',*,*,#545,.T.);
#689=ORIENTED_EDGE('',*,*,#546,.T.);
#690=ORIENTED_EDGE('',*,*,#547,.T.);
#691=ORIENTED_EDGE('',*,*,#543,.F.);
#692=ORIENTED_EDGE('',*,*,#548,.T.);
#693=ORIENTED_EDGE('',*,*,#549,.T.);
#694=ORIENTED_EDGE('',*,*,#550,.T.);
#695=ORIENTED_EDGE('',*,*,#546,.F.);
#696=ORIENTED_EDGE('',*,*,#551,.T.);
#697=ORIENTED_EDGE('',*,*,#549,.F.);
#698=ORIENTED_EDGE('',*,*,#552,.T.);
#699=ORIENTED_EDGE('',*,*,#553,.T.);
#700=ORIENTED_EDGE('',*,*,#554,.T.);
#701=ORIENTED_EDGE('',*,*,#553,.F.);
#702=ORIENTED_EDGE('',*,*,#555,.T.);
#703=ORIENTED_EDGE('',*,*,#556,.T.);
#704=ORIENTED_EDGE('',*,*,#557,.T.);
#705=ORIENTED_EDGE('',*,*,#556,.F.);
#706=ORIENTED_EDGE('',*,*,#558,.T.);
#707=ORIENTED_EDGE('',*,*,#559,.T.);
#708=ORIENTED_EDGE('',*,*,#560,.T.);
#709=ORIENTED_EDGE('',*,*,#559,.F.);
#710=ORIENTED_EDGE('',*,*,#561,.T.);
#711=ORIENTED_EDGE('',*,*,#562,.T.);
#712=ORIENTED_EDGE('',*,*,#563,.T.);
#713=ORIENTED_EDGE('',*,*,#562,.F.);
#714=ORIENTED_EDGE('',*,*,#564,.T.);
#715=ORIENTED_EDGE('',*,*,#565,.T.);
#716=ORIENTED_EDGE('',*,*,#566,.T.);
#717=ORIENTED_EDGE('',*,*,#565,.F.);
#718=ORIENTED_EDGE('',*,*,#567,.T.);
#719=ORIENTED_EDGE('',*,*,#530,.F.);
#720=ORIENTED_EDGE('',*,*,#568,.T.);
#721=ORIENTED_EDGE('',*,*,#532,.F.);
#722=ORIENTED_EDGE('',*,*,#569,.T.);
#723=ORIENTED_EDGE('',*,*,#570,.T.);
#724=ORIENTED_EDGE('',*,*,#571,.T.);
#725=ORIENTED_EDGE('',*,*,#570,.F.);
#726=ORIENTED_EDGE('',*,*,#572,.T.);
#727=ORIENTED_EDGE('',*,*,#528,.T.);
#728=ORIENTED_EDGE('',*,*,#542,.F.);
#729=ORIENTED_EDGE('',*,*,#573,.T.);
#730=ORIENTED_EDGE('',*,*,#574,.F.);
#731=ORIENTED_EDGE('',*,*,#575,.F.);
#732=ORIENTED_EDGE('',*,*,#539,.F.);
#733=ORIENTED_EDGE('',*,*,#576,.T.);
#734=ORIENTED_EDGE('',*,*,#577,.F.);
#735=ORIENTED_EDGE('',*,*,#573,.F.);
#736=ORIENTED_EDGE('',*,*,#536,.F.);
#737=ORIENTED_EDGE('',*,*,#578,.T.);
#738=ORIENTED_EDGE('',*,*,#579,.F.);
#739=ORIENTED_EDGE('',*,*,#576,.F.);
#740=ORIENTED_EDGE('',*,*,#533,.F.);
#741=ORIENTED_EDGE('',*,*,#580,.T.);
#742=ORIENTED_EDGE('',*,*,#581,.F.);
#743=ORIENTED_EDGE('',*,*,#578,.F.);
#744=ORIENTED_EDGE('',*,*,#525,.F.);
#745=ORIENTED_EDGE('',*,*,#582,.T.);
#746=ORIENTED_EDGE('',*,*,#583,.F.);
#747=ORIENTED_EDGE('',*,*,#580,.F.);
#748=ORIENTED_EDGE('',*,*,#572,.F.);
#749=ORIENTED_EDGE('',*,*,#584,.T.);
#750=ORIENTED_EDGE('',*,*,#585,.F.);
#751=ORIENTED_EDGE('',*,*,#582,.F.);
#752=ORIENTED_EDGE('',*,*,#569,.F.);
#753=ORIENTED_EDGE('',*,*,#586,.T.);
#754=ORIENTED_EDGE('',*,*,#587,.F.);
#755=ORIENTED_EDGE('',*,*,#584,.F.);
#756=ORIENTED_EDGE('',*,*,#531,.F.);
#757=ORIENTED_EDGE('',*,*,#588,.T.);
#758=ORIENTED_EDGE('',*,*,#589,.F.);
#759=ORIENTED_EDGE('',*,*,#586,.F.);
#760=ORIENTED_EDGE('',*,*,#590,.T.);
#761=ORIENTED_EDGE('',*,*,#591,.T.);
#762=ORIENTED_EDGE('',*,*,#592,.T.);
#763=ORIENTED_EDGE('',*,*,#593,.T.);
#764=ORIENTED_EDGE('',*,*,#529,.F.);
#765=ORIENTED_EDGE('',*,*,#568,.F.);
#766=ORIENTED_EDGE('',*,*,#571,.F.);
#767=ORIENTED_EDGE('',*,*,#527,.F.);
#768=ORIENTED_EDGE('',*,*,#535,.F.);
#769=ORIENTED_EDGE('',*,*,#538,.F.);
#770=ORIENTED_EDGE('',*,*,#541,.F.);
#771=ORIENTED_EDGE('',*,*,#544,.F.);
#772=ORIENTED_EDGE('',*,*,#547,.F.);
#773=ORIENTED_EDGE('',*,*,#550,.F.);
#774=ORIENTED_EDGE('',*,*,#551,.F.);
#775=ORIENTED_EDGE('',*,*,#554,.F.);
#776=ORIENTED_EDGE('',*,*,#557,.F.);
#777=ORIENTED_EDGE('',*,*,#560,.F.);
#778=ORIENTED_EDGE('',*,*,#563,.F.);
#779=ORIENTED_EDGE('',*,*,#566,.F.);
#780=ORIENTED_EDGE('',*,*,#594,.T.);
#781=ORIENTED_EDGE('',*,*,#595,.T.);
#782=ORIENTED_EDGE('',*,*,#574,.T.);
#783=ORIENTED_EDGE('',*,*,#596,.F.);
#784=ORIENTED_EDGE('',*,*,#597,.T.);
#785=ORIENTED_EDGE('',*,*,#598,.T.);
#786=ORIENTED_EDGE('',*,*,#599,.T.);
#787=ORIENTED_EDGE('',*,*,#595,.F.);
#788=ORIENTED_EDGE('',*,*,#600,.T.);
#789=ORIENTED_EDGE('',*,*,#601,.T.);
#790=ORIENTED_EDGE('',*,*,#602,.T.);
#791=ORIENTED_EDGE('',*,*,#598,.F.);
#792=ORIENTED_EDGE('',*,*,#603,.T.);
#793=ORIENTED_EDGE('',*,*,#604,.T.);
#794=ORIENTED_EDGE('',*,*,#605,.T.);
#795=ORIENTED_EDGE('',*,*,#601,.F.);
#796=ORIENTED_EDGE('',*,*,#606,.T.);
#797=ORIENTED_EDGE('',*,*,#607,.T.);
#798=ORIENTED_EDGE('',*,*,#608,.T.);
#799=ORIENTED_EDGE('',*,*,#604,.F.);
#800=ORIENTED_EDGE('',*,*,#609,.T.);
#801=ORIENTED_EDGE('',*,*,#610,.T.);
#802=ORIENTED_EDGE('',*,*,#611,.T.);
#803=ORIENTED_EDGE('',*,*,#607,.F.);
#804=ORIENTED_EDGE('',*,*,#612,.T.);
#805=ORIENTED_EDGE('',*,*,#613,.T.);
#806=ORIENTED_EDGE('',*,*,#614,.T.);
#807=ORIENTED_EDGE('',*,*,#610,.F.);
#808=ORIENTED_EDGE('',*,*,#615,.T.);
#809=ORIENTED_EDGE('',*,*,#616,.T.);
#810=ORIENTED_EDGE('',*,*,#617,.T.);
#811=ORIENTED_EDGE('',*,*,#613,.F.);
#812=ORIENTED_EDGE('',*,*,#618,.T.);
#813=ORIENTED_EDGE('',*,*,#619,.T.);
#814=ORIENTED_EDGE('',*,*,#620,.T.);
#815=ORIENTED_EDGE('',*,*,#616,.F.);
#816=ORIENTED_EDGE('',*,*,#589,.T.);
#817=ORIENTED_EDGE('',*,*,#619,.F.);
#818=ORIENTED_EDGE('',*,*,#621,.T.);
#819=ORIENTED_EDGE('',*,*,#622,.T.);
#820=ORIENTED_EDGE('',*,*,#587,.T.);
#821=ORIENTED_EDGE('',*,*,#622,.F.);
#822=ORIENTED_EDGE('',*,*,#623,.T.);
#823=ORIENTED_EDGE('',*,*,#624,.T.);
#824=ORIENTED_EDGE('',*,*,#585,.T.);
#825=ORIENTED_EDGE('',*,*,#624,.F.);
#826=ORIENTED_EDGE('',*,*,#625,.T.);
#827=ORIENTED_EDGE('',*,*,#626,.T.);
#828=ORIENTED_EDGE('',*,*,#583,.T.);
#829=ORIENTED_EDGE('',*,*,#626,.F.);
#830=ORIENTED_EDGE('',*,*,#627,.T.);
#831=ORIENTED_EDGE('',*,*,#628,.T.);
#832=ORIENTED_EDGE('',*,*,#581,.T.);
#833=ORIENTED_EDGE('',*,*,#628,.F.);
#834=ORIENTED_EDGE('',*,*,#629,.T.);
#835=ORIENTED_EDGE('',*,*,#630,.T.);
#836=ORIENTED_EDGE('',*,*,#579,.T.);
#837=ORIENTED_EDGE('',*,*,#630,.F.);
#838=ORIENTED_EDGE('',*,*,#631,.T.);
#839=ORIENTED_EDGE('',*,*,#632,.T.);
#840=ORIENTED_EDGE('',*,*,#577,.T.);
#841=ORIENTED_EDGE('',*,*,#632,.F.);
#842=ORIENTED_EDGE('',*,*,#633,.T.);
#843=ORIENTED_EDGE('',*,*,#596,.T.);
#844=ORIENTED_EDGE('',*,*,#594,.F.);
#845=ORIENTED_EDGE('',*,*,#633,.F.);
#846=ORIENTED_EDGE('',*,*,#631,.F.);
#847=ORIENTED_EDGE('',*,*,#629,.F.);
#848=ORIENTED_EDGE('',*,*,#627,.F.);
#849=ORIENTED_EDGE('',*,*,#625,.F.);
#850=ORIENTED_EDGE('',*,*,#623,.F.);
#851=ORIENTED_EDGE('',*,*,#621,.F.);
#852=ORIENTED_EDGE('',*,*,#618,.F.);
#853=ORIENTED_EDGE('',*,*,#615,.F.);
#854=ORIENTED_EDGE('',*,*,#612,.F.);
#855=ORIENTED_EDGE('',*,*,#609,.F.);
#856=ORIENTED_EDGE('',*,*,#606,.F.);
#857=ORIENTED_EDGE('',*,*,#603,.F.);
#858=ORIENTED_EDGE('',*,*,#600,.F.);
#859=ORIENTED_EDGE('',*,*,#597,.F.);
#860=ORIENTED_EDGE('',*,*,#545,.F.);
#861=ORIENTED_EDGE('',*,*,#575,.T.);
#862=ORIENTED_EDGE('',*,*,#599,.F.);
#863=ORIENTED_EDGE('',*,*,#634,.F.);
#864=ORIENTED_EDGE('',*,*,#548,.F.);
#865=ORIENTED_EDGE('',*,*,#634,.T.);
#866=ORIENTED_EDGE('',*,*,#602,.F.);
#867=ORIENTED_EDGE('',*,*,#635,.F.);
#868=ORIENTED_EDGE('',*,*,#552,.F.);
#869=ORIENTED_EDGE('',*,*,#635,.T.);
#870=ORIENTED_EDGE('',*,*,#605,.F.);
#871=ORIENTED_EDGE('',*,*,#636,.F.);
#872=ORIENTED_EDGE('',*,*,#555,.F.);
#873=ORIENTED_EDGE('',*,*,#636,.T.);
#874=ORIENTED_EDGE('',*,*,#608,.F.);
#875=ORIENTED_EDGE('',*,*,#637,.F.);
#876=ORIENTED_EDGE('',*,*,#558,.F.);
#877=ORIENTED_EDGE('',*,*,#637,.T.);
#878=ORIENTED_EDGE('',*,*,#611,.F.);
#879=ORIENTED_EDGE('',*,*,#638,.F.);
#880=ORIENTED_EDGE('',*,*,#561,.F.);
#881=ORIENTED_EDGE('',*,*,#638,.T.);
#882=ORIENTED_EDGE('',*,*,#614,.F.);
#883=ORIENTED_EDGE('',*,*,#639,.F.);
#884=ORIENTED_EDGE('',*,*,#564,.F.);
#885=ORIENTED_EDGE('',*,*,#639,.T.);
#886=ORIENTED_EDGE('',*,*,#617,.F.);
#887=ORIENTED_EDGE('',*,*,#640,.F.);
#888=ORIENTED_EDGE('',*,*,#567,.F.);
#889=ORIENTED_EDGE('',*,*,#640,.T.);
#890=ORIENTED_EDGE('',*,*,#620,.F.);
#891=ORIENTED_EDGE('',*,*,#588,.F.);
#892=ORIENTED_EDGE('',*,*,#641,.F.);
#893=ORIENTED_EDGE('',*,*,#642,.F.);
#894=ORIENTED_EDGE('',*,*,#643,.F.);
#895=ORIENTED_EDGE('',*,*,#590,.F.);
#896=ORIENTED_EDGE('',*,*,#644,.F.);
#897=ORIENTED_EDGE('',*,*,#645,.F.);
#898=ORIENTED_EDGE('',*,*,#646,.F.);
#899=ORIENTED_EDGE('',*,*,#647,.F.);
#900=ORIENTED_EDGE('',*,*,#643,.T.);
#901=ORIENTED_EDGE('',*,*,#648,.F.);
#902=ORIENTED_EDGE('',*,*,#649,.F.);
#903=ORIENTED_EDGE('',*,*,#591,.F.);
#904=ORIENTED_EDGE('',*,*,#642,.T.);
#905=ORIENTED_EDGE('',*,*,#650,.T.);
#906=ORIENTED_EDGE('',*,*,#651,.F.);
#907=ORIENTED_EDGE('',*,*,#648,.T.);
#908=ORIENTED_EDGE('',*,*,#641,.T.);
#909=ORIENTED_EDGE('',*,*,#652,.F.);
#910=ORIENTED_EDGE('',*,*,#653,.F.);
#911=ORIENTED_EDGE('',*,*,#654,.F.);
#912=ORIENTED_EDGE('',*,*,#655,.F.);
#913=ORIENTED_EDGE('',*,*,#650,.F.);
#914=ORIENTED_EDGE('',*,*,#655,.T.);
#915=ORIENTED_EDGE('',*,*,#656,.F.);
#916=ORIENTED_EDGE('',*,*,#657,.F.);
#917=ORIENTED_EDGE('',*,*,#592,.F.);
#918=ORIENTED_EDGE('',*,*,#649,.T.);
#919=ORIENTED_EDGE('',*,*,#651,.T.);
#920=ORIENTED_EDGE('',*,*,#645,.T.);
#921=ORIENTED_EDGE('',*,*,#658,.F.);
#922=ORIENTED_EDGE('',*,*,#656,.T.);
#923=ORIENTED_EDGE('',*,*,#654,.T.);
#924=ORIENTED_EDGE('',*,*,#659,.T.);
#925=ORIENTED_EDGE('',*,*,#660,.T.);
#926=ORIENTED_EDGE('',*,*,#653,.T.);
#927=ORIENTED_EDGE('',*,*,#661,.F.);
#928=ORIENTED_EDGE('',*,*,#662,.F.);
#929=ORIENTED_EDGE('',*,*,#659,.F.);
#930=ORIENTED_EDGE('',*,*,#646,.T.);
#931=ORIENTED_EDGE('',*,*,#660,.F.);
#932=ORIENTED_EDGE('',*,*,#662,.T.);
#933=ORIENTED_EDGE('',*,*,#663,.F.);
#934=ORIENTED_EDGE('',*,*,#644,.T.);
#935=ORIENTED_EDGE('',*,*,#593,.F.);
#936=ORIENTED_EDGE('',*,*,#657,.T.);
#937=ORIENTED_EDGE('',*,*,#658,.T.);
#938=ORIENTED_EDGE('',*,*,#647,.T.);
#939=ORIENTED_EDGE('',*,*,#663,.T.);
#940=ORIENTED_EDGE('',*,*,#661,.T.);
#941=ORIENTED_EDGE('',*,*,#652,.T.);
#942=CYLINDRICAL_SURFACE('',#1032,0.4);
#943=CYLINDRICAL_SURFACE('',#1035,0.4);
#944=CYLINDRICAL_SURFACE('',#1038,0.4);
#945=CYLINDRICAL_SURFACE('',#1040,0.4);
#946=CYLINDRICAL_SURFACE('',#1042,0.4);
#947=CYLINDRICAL_SURFACE('',#1044,0.4);
#948=CYLINDRICAL_SURFACE('',#1046,0.4);
#949=CYLINDRICAL_SURFACE('',#1048,0.4);
#950=CYLINDRICAL_SURFACE('',#1050,0.4);
#951=CYLINDRICAL_SURFACE('',#1052,0.4);
#952=CYLINDRICAL_SURFACE('',#1054,0.4);
#953=CYLINDRICAL_SURFACE('',#1056,0.4);
#954=CYLINDRICAL_SURFACE('',#1058,0.4);
#955=CYLINDRICAL_SURFACE('',#1060,0.4);
#956=CYLINDRICAL_SURFACE('',#1061,0.4);
#957=CYLINDRICAL_SURFACE('',#1063,0.4);
#958=ADVANCED_FACE('',(#60),#942,.F.);
#959=ADVANCED_FACE('',(#61),#943,.F.);
#960=ADVANCED_FACE('',(#62),#944,.F.);
#961=ADVANCED_FACE('',(#63),#945,.F.);
#962=ADVANCED_FACE('',(#64),#946,.F.);
#963=ADVANCED_FACE('',(#65),#947,.F.);
#964=ADVANCED_FACE('',(#66),#948,.F.);
#965=ADVANCED_FACE('',(#67),#949,.F.);
#966=ADVANCED_FACE('',(#68),#950,.F.);
#967=ADVANCED_FACE('',(#69),#951,.F.);
#968=ADVANCED_FACE('',(#70),#952,.F.);
#969=ADVANCED_FACE('',(#71),#953,.F.);
#970=ADVANCED_FACE('',(#72),#954,.F.);
#971=ADVANCED_FACE('',(#73),#955,.F.);
#972=ADVANCED_FACE('',(#74),#956,.F.);
#973=ADVANCED_FACE('',(#75),#957,.F.);
#974=ADVANCED_FACE('',(#76),#16,.T.);
#975=ADVANCED_FACE('',(#77),#17,.T.);
#976=ADVANCED_FACE('',(#78),#18,.T.);
#977=ADVANCED_FACE('',(#79),#19,.T.);
#978=ADVANCED_FACE('',(#80),#20,.T.);
#979=ADVANCED_FACE('',(#81),#21,.T.);
#980=ADVANCED_FACE('',(#82),#22,.T.);
#981=ADVANCED_FACE('',(#83),#23,.T.);
#982=ADVANCED_FACE('',(#84,#15),#24,.F.);
#983=ADVANCED_FACE('',(#85),#25,.T.);
#984=ADVANCED_FACE('',(#86),#26,.T.);
#985=ADVANCED_FACE('',(#87),#27,.T.);
#986=ADVANCED_FACE('',(#88),#28,.T.);
#987=ADVANCED_FACE('',(#89),#29,.T.);
#988=ADVANCED_FACE('',(#90),#30,.T.);
#989=ADVANCED_FACE('',(#91),#31,.T.);
#990=ADVANCED_FACE('',(#92),#32,.T.);
#991=ADVANCED_FACE('',(#93),#33,.T.);
#992=ADVANCED_FACE('',(#94),#34,.T.);
#993=ADVANCED_FACE('',(#95),#35,.T.);
#994=ADVANCED_FACE('',(#96),#36,.T.);
#995=ADVANCED_FACE('',(#97),#37,.T.);
#996=ADVANCED_FACE('',(#98),#38,.T.);
#997=ADVANCED_FACE('',(#99),#39,.T.);
#998=ADVANCED_FACE('',(#100),#40,.T.);
#999=ADVANCED_FACE('',(#101),#41,.T.);
#1000=ADVANCED_FACE('',(#102),#42,.T.);
#1001=ADVANCED_FACE('',(#103),#43,.T.);
#1002=ADVANCED_FACE('',(#104),#44,.T.);
#1003=ADVANCED_FACE('',(#105),#45,.T.);
#1004=ADVANCED_FACE('',(#106),#46,.T.);
#1005=ADVANCED_FACE('',(#107),#47,.T.);
#1006=ADVANCED_FACE('',(#108),#48,.T.);
#1007=ADVANCED_FACE('',(#109),#49,.T.);
#1008=ADVANCED_FACE('',(#110),#50,.F.);
#1009=ADVANCED_FACE('',(#111),#51,.T.);
#1010=ADVANCED_FACE('',(#112),#52,.T.);
#1011=ADVANCED_FACE('',(#113),#53,.F.);
#1012=ADVANCED_FACE('',(#114),#54,.T.);
#1013=ADVANCED_FACE('',(#115),#55,.T.);
#1014=ADVANCED_FACE('',(#116),#56,.F.);
#1015=ADVANCED_FACE('',(#117),#57,.F.);
#1016=ADVANCED_FACE('',(#118),#58,.T.);
#1017=ADVANCED_FACE('',(#119),#59,.T.);
#1018=CLOSED_SHELL('',(#958,#959,#960,#961,#962,#963,#964,#965,#966,#967,
#968,#969,#970,#971,#972,#973,#974,#975,#976,#977,#978,#979,#980,#981,#982,
#983,#984,#985,#986,#987,#988,#989,#990,#991,#992,#993,#994,#995,#996,#997,
#998,#999,#1000,#1001,#1002,#1003,#1004,#1005,#1006,#1007,#1008,#1009,#1010,
#1011,#1012,#1013,#1014,#1015,#1016,#1017));
#1019=DERIVED_UNIT_ELEMENT(#1021,1.);
#1020=DERIVED_UNIT_ELEMENT(#1672,-3.);
#1021=(
MASS_UNIT()
NAMED_UNIT(*)
SI_UNIT(.KILO.,.GRAM.)
);
#1022=DERIVED_UNIT((#1019,#1020));
#1023=MEASURE_REPRESENTATION_ITEM('density measure',
POSITIVE_RATIO_MEASURE(7850.),#1022);
#1024=PROPERTY_DEFINITION_REPRESENTATION(#1029,#1026);
#1025=PROPERTY_DEFINITION_REPRESENTATION(#1030,#1027);
#1026=REPRESENTATION('material name',(#1028),#1669);
#1027=REPRESENTATION('density',(#1023),#1669);
#1028=DESCRIPTIVE_REPRESENTATION_ITEM('\X2\92FC\X0\','\X2\92FC\X0\');
#1029=PROPERTY_DEFINITION('material property','material name',#1679);
#1030=PROPERTY_DEFINITION('material property','density of part',#1679);
#1031=AXIS2_PLACEMENT_3D('',#1385,#1108,#1109);
#1032=AXIS2_PLACEMENT_3D('',#1386,#1110,#1111);
#1033=AXIS2_PLACEMENT_3D('',#1391,#1113,#1114);
#1034=AXIS2_PLACEMENT_3D('',#1394,#1116,#1117);
#1035=AXIS2_PLACEMENT_3D('',#1395,#1118,#1119);
#1036=AXIS2_PLACEMENT_3D('',#1400,#1121,#1122);
#1037=AXIS2_PLACEMENT_3D('',#1403,#1124,#1125);
#1038=AXIS2_PLACEMENT_3D('',#1404,#1126,#1127);
#1039=AXIS2_PLACEMENT_3D('',#1408,#1129,#1130);
#1040=AXIS2_PLACEMENT_3D('',#1410,#1132,#1133);
#1041=AXIS2_PLACEMENT_3D('',#1414,#1135,#1136);
#1042=AXIS2_PLACEMENT_3D('',#1416,#1138,#1139);
#1043=AXIS2_PLACEMENT_3D('',#1420,#1141,#1142);
#1044=AXIS2_PLACEMENT_3D('',#1422,#1144,#1145);
#1045=AXIS2_PLACEMENT_3D('',#1426,#1147,#1148);
#1046=AXIS2_PLACEMENT_3D('',#1428,#1150,#1151);
#1047=AXIS2_PLACEMENT_3D('',#1432,#1153,#1154);
#1048=AXIS2_PLACEMENT_3D('',#1434,#1156,#1157);
#1049=AXIS2_PLACEMENT_3D('',#1438,#1159,#1160);
#1050=AXIS2_PLACEMENT_3D('',#1440,#1162,#1163);
#1051=AXIS2_PLACEMENT_3D('',#1445,#1166,#1167);
#1052=AXIS2_PLACEMENT_3D('',#1446,#1168,#1169);
#1053=AXIS2_PLACEMENT_3D('',#1451,#1172,#1173);
#1054=AXIS2_PLACEMENT_3D('',#1452,#1174,#1175);
#1055=AXIS2_PLACEMENT_3D('',#1457,#1178,#1179);
#1056=AXIS2_PLACEMENT_3D('',#1458,#1180,#1181);
#1057=AXIS2_PLACEMENT_3D('',#1463,#1184,#1185);
#1058=AXIS2_PLACEMENT_3D('',#1464,#1186,#1187);
#1059=AXIS2_PLACEMENT_3D('',#1469,#1190,#1191);
#1060=AXIS2_PLACEMENT_3D('',#1470,#1192,#1193);
#1061=AXIS2_PLACEMENT_3D('',#1473,#1196,#1197);
#1062=AXIS2_PLACEMENT_3D('',#1478,#1200,#1201);
#1063=AXIS2_PLACEMENT_3D('',#1479,#1202,#1203);
#1064=AXIS2_PLACEMENT_3D('',#1482,#1206,#1207);
#1065=AXIS2_PLACEMENT_3D('',#1488,#1211,#1212);
#1066=AXIS2_PLACEMENT_3D('',#1492,#1215,#1216);
#1067=AXIS2_PLACEMENT_3D('',#1496,#1219,#1220);
#1068=AXIS2_PLACEMENT_3D('',#1500,#1223,#1224);
#1069=AXIS2_PLACEMENT_3D('',#1504,#1227,#1228);
#1070=AXIS2_PLACEMENT_3D('',#1508,#1231,#1232);
#1071=AXIS2_PLACEMENT_3D('',#1512,#1235,#1236);
#1072=AXIS2_PLACEMENT_3D('',#1516,#1239,#1240);
#1073=AXIS2_PLACEMENT_3D('',#1525,#1245,#1246);
#1074=AXIS2_PLACEMENT_3D('',#1531,#1250,#1251);
#1075=AXIS2_PLACEMENT_3D('',#1537,#1255,#1256);
#1076=AXIS2_PLACEMENT_3D('',#1543,#1260,#1261);
#1077=AXIS2_PLACEMENT_3D('',#1549,#1265,#1266);
#1078=AXIS2_PLACEMENT_3D('',#1555,#1270,#1271);
#1079=AXIS2_PLACEMENT_3D('',#1561,#1275,#1276);
#1080=AXIS2_PLACEMENT_3D('',#1567,#1280,#1281);
#1081=AXIS2_PLACEMENT_3D('',#1573,#1285,#1286);
#1082=AXIS2_PLACEMENT_3D('',#1578,#1290,#1291);
#1083=AXIS2_PLACEMENT_3D('',#1582,#1294,#1295);
#1084=AXIS2_PLACEMENT_3D('',#1586,#1298,#1299);
#1085=AXIS2_PLACEMENT_3D('',#1590,#1302,#1303);
#1086=AXIS2_PLACEMENT_3D('',#1594,#1306,#1307);
#1087=AXIS2_PLACEMENT_3D('',#1598,#1310,#1311);
#1088=AXIS2_PLACEMENT_3D('',#1602,#1314,#1315);
#1089=AXIS2_PLACEMENT_3D('',#1604,#1317,#1318);
#1090=AXIS2_PLACEMENT_3D('',#1605,#1319,#1320);
#1091=AXIS2_PLACEMENT_3D('',#1607,#1322,#1323);
#1092=AXIS2_PLACEMENT_3D('',#1609,#1325,#1326);
#1093=AXIS2_PLACEMENT_3D('',#1611,#1328,#1329);
#1094=AXIS2_PLACEMENT_3D('',#1613,#1331,#1332);
#1095=AXIS2_PLACEMENT_3D('',#1615,#1334,#1335);
#1096=AXIS2_PLACEMENT_3D('',#1617,#1337,#1338);
#1097=AXIS2_PLACEMENT_3D('',#1619,#1340,#1341);
#1098=AXIS2_PLACEMENT_3D('',#1620,#1342,#1343);
#1099=AXIS2_PLACEMENT_3D('',#1634,#1351,#1352);
#1100=AXIS2_PLACEMENT_3D('',#1638,#1355,#1356);
#1101=AXIS2_PLACEMENT_3D('',#1642,#1359,#1360);
#1102=AXIS2_PLACEMENT_3D('',#1650,#1365,#1366);
#1103=AXIS2_PLACEMENT_3D('',#1654,#1369,#1370);
#1104=AXIS2_PLACEMENT_3D('',#1659,#1374,#1375);
#1105=AXIS2_PLACEMENT_3D('',#1663,#1378,#1379);
#1106=AXIS2_PLACEMENT_3D('',#1665,#1381,#1382);
#1107=AXIS2_PLACEMENT_3D('',#1666,#1383,#1384);
#1108=DIRECTION('axis',(0.,0.,1.));
#1109=DIRECTION('refdir',(1.,0.,0.));
#1110=DIRECTION('center_axis',(-1.,-8.93034889082473E-15,0.));
#1111=DIRECTION('ref_axis',(5.88784672006415E-15,-0.707106781186548,0.707106781186547));
#1112=DIRECTION('',(-1.,-8.93034889082473E-15,0.));
#1113=DIRECTION('center_axis',(-0.980785280403229,-0.195090322016134,0.));
#1114=DIRECTION('ref_axis',(0.195090322016134,-0.980785280403229,0.));
#1115=DIRECTION('',(1.,8.93034889082473E-15,0.));
#1116=DIRECTION('center_axis',(-0.980785280403233,0.195090322016117,0.));
#1117=DIRECTION('ref_axis',(-0.195090322016117,-0.980785280403233,0.));
#1118=DIRECTION('center_axis',(-0.382683432365099,0.923879532511283,0.));
#1119=DIRECTION('ref_axis',(-0.653281482438187,-0.270598050073102,0.707106781186548));
#1120=DIRECTION('',(0.382683432365099,-0.923879532511283,0.));
#1121=DIRECTION('center_axis',(0.195090322016132,-0.98078528040323,0.));
#1122=DIRECTION('ref_axis',(0.98078528040323,0.195090322016132,0.));
#1123=DIRECTION('',(-0.382683432365099,0.923879532511283,0.));
#1124=DIRECTION('center_axis',(-0.555570233019618,0.831469612302535,2.30779176963607E-15));
#1125=DIRECTION('ref_axis',(-0.831469612302534,-0.555570233019618,1.16020527030938E-14));
#1126=DIRECTION('center_axis',(-0.923879532511283,-0.382683432365099,0.));
#1127=DIRECTION('ref_axis',(0.270598050073106,-0.653281482438184,0.707106781186549));
#1128=DIRECTION('',(-0.923879532511283,-0.382683432365099,0.));
#1129=DIRECTION('center_axis',(-0.831469612302539,-0.555570233019612,-5.76947942409019E-16));
#1130=DIRECTION('ref_axis',(0.555570233019612,-0.831469612302538,-2.90051317577358E-15));
#1131=DIRECTION('',(0.923879532511283,0.382683432365099,0.));
#1132=DIRECTION('center_axis',(-0.707106781186541,-0.707106781186554,0.));
#1133=DIRECTION('ref_axis',(0.500000000000004,-0.499999999999997,0.707106781186546));
#1134=DIRECTION('',(-0.707106781186541,-0.707106781186554,0.));
#1135=DIRECTION('center_axis',(-0.555570233019597,-0.831469612302549,3.855042903092E-16));
#1136=DIRECTION('ref_axis',(0.831469612302549,-0.555570233019597,1.93806094305541E-15));
#1137=DIRECTION('',(0.707106781186541,0.707106781186554,0.));
#1138=DIRECTION('center_axis',(-0.382683432365081,-0.92387953251129,0.));
#1139=DIRECTION('ref_axis',(0.653281482438191,-0.270598050073092,0.707106781186548));
#1140=DIRECTION('',(-0.382683432365081,-0.92387953251129,0.));
#1141=DIRECTION('center_axis',(-0.195090322016118,-0.980785280403233,0.));
#1142=DIRECTION('ref_axis',(0.980785280403233,-0.195090322016118,0.));
#1143=DIRECTION('',(0.382683432365081,0.92387953251129,0.));
#1144=DIRECTION('center_axis',(9.209422293663E-15,-1.,0.));
#1145=DIRECTION('ref_axis',(0.707106781186547,7.85046229341888E-15,0.707106781186548));
#1146=DIRECTION('',(9.209422293663E-15,-1.,0.));
#1147=DIRECTION('center_axis',(0.195090322016138,-0.980785280403229,6.76855523074539E-17));
#1148=DIRECTION('ref_axis',(0.980785280403229,0.195090322016138,3.40278250161612E-16));
#1149=DIRECTION('',(-9.209422293663E-15,1.,0.));
#1150=DIRECTION('center_axis',(0.382683432365098,-0.923879532511283,0.));
#1151=DIRECTION('ref_axis',(0.653281482438186,0.270598050073104,0.707106781186548));
#1152=DIRECTION('',(0.382683432365098,-0.923879532511283,0.));
#1153=DIRECTION('center_axis',(0.55557023301961,-0.83146961230254,-5.7694794240902E-16));
#1154=DIRECTION('ref_axis',(0.83146961230254,0.55557023301961,-2.90051317577363E-15));
#1155=DIRECTION('',(-0.382683432365098,0.923879532511283,0.));
#1156=DIRECTION('center_axis',(0.707106781186554,-0.707106781186541,0.));
#1157=DIRECTION('ref_axis',(0.499999999999995,0.500000000000005,0.707106781186547));
#1158=DIRECTION('',(0.707106781186554,-0.707106781186541,0.));
#1159=DIRECTION('center_axis',(0.831469612302549,-0.555570233019597,-1.927521451546E-16));
#1160=DIRECTION('ref_axis',(0.555570233019597,0.831469612302549,-9.69030471527707E-16));
#1161=DIRECTION('',(-0.707106781186554,0.707106781186541,0.));
#1162=DIRECTION('center_axis',(0.92387953251129,-0.382683432365081,0.));
#1163=DIRECTION('ref_axis',(0.270598050073092,0.653281482438191,0.707106781186548));
#1164=DIRECTION('',(-0.92387953251129,0.382683432365081,0.));
#1165=DIRECTION('',(0.92387953251129,-0.382683432365081,0.));
#1166=DIRECTION('center_axis',(0.980785280403233,-0.195090322016116,1.36111300064639E-15));
#1167=DIRECTION('ref_axis',(0.195090322016116,0.980785280403233,6.8427771413954E-15));
#1168=DIRECTION('center_axis',(1.,9.48849569650127E-15,0.));
#1169=DIRECTION('ref_axis',(-7.85046229341887E-15,0.707106781186548,0.707106781186548));
#1170=DIRECTION('',(-1.,-9.48849569650127E-15,0.));
#1171=DIRECTION('',(1.,9.48849569650127E-15,0.));
#1172=DIRECTION('center_axis',(0.980785280403228,0.195090322016139,-3.38427761537272E-17));
#1173=DIRECTION('ref_axis',(-0.195090322016139,0.980785280403228,-1.70139125080806E-16));
#1174=DIRECTION('center_axis',(0.923879532511283,0.382683432365099,0.));
#1175=DIRECTION('ref_axis',(-0.270598050073105,0.653281482438186,0.707106781186547));
#1176=DIRECTION('',(-0.923879532511283,-0.382683432365098,0.));
#1177=DIRECTION('',(0.923879532511283,0.382683432365098,0.));
#1178=DIRECTION('center_axis',(0.831469612302542,0.555570233019608,1.92752145154604E-16));
#1179=DIRECTION('ref_axis',(-0.555570233019608,0.831469612302542,9.69030471527728E-16));
#1180=DIRECTION('center_axis',(0.707106781186541,0.707106781186555,0.));
#1181=DIRECTION('ref_axis',(-0.500000000000006,0.499999999999995,0.707106781186547));
#1182=DIRECTION('',(-0.70710678118654,-0.707106781186554,0.));
#1183=DIRECTION('',(0.70710678118654,0.707106781186554,0.));
#1184=DIRECTION('center_axis',(0.555570233019594,0.831469612302551,-5.76947942409028E-16));
#1185=DIRECTION('ref_axis',(-0.831469612302551,0.555570233019594,-2.90051317577365E-15));
#1186=DIRECTION('center_axis',(0.382683432365081,0.923879532511291,0.));
#1187=DIRECTION('ref_axis',(-0.653281482438191,0.270598050073092,0.707106781186548));
#1188=DIRECTION('',(-0.382683432365081,-0.923879532511291,0.));
#1189=DIRECTION('',(0.382683432365081,0.923879532511291,0.));
#1190=DIRECTION('center_axis',(0.195090322016119,0.980785280403232,0.));
#1191=DIRECTION('ref_axis',(-0.980785280403232,0.195090322016119,0.));
#1192=DIRECTION('center_axis',(-1.00466425021778E-14,1.,0.));
#1193=DIRECTION('ref_axis',(-0.707106781186548,-5.88784672006415E-15,0.707106781186547));
#1194=DIRECTION('',(1.00466425021778E-14,-1.,0.));
#1195=DIRECTION('',(-1.00466425021778E-14,1.,0.));
#1196=DIRECTION('center_axis',(-0.707106781186554,0.707106781186541,0.));
#1197=DIRECTION('ref_axis',(-0.499999999999997,-0.500000000000005,0.707106781186546));
#1198=DIRECTION('',(0.707106781186554,-0.707106781186541,0.));
#1199=DIRECTION('',(-0.707106781186554,0.707106781186541,0.));
#1200=DIRECTION('center_axis',(-0.831469612302549,0.555570233019597,0.));
#1201=DIRECTION('ref_axis',(-0.555570233019597,-0.831469612302549,0.));
#1202=DIRECTION('center_axis',(-0.92387953251129,0.382683432365081,0.));
#1203=DIRECTION('ref_axis',(-0.270598050073092,-0.653281482438191,0.707106781186548));
#1204=DIRECTION('',(0.923879532511291,-0.382683432365081,0.));
#1205=DIRECTION('',(-0.92387953251129,0.382683432365081,0.));
#1206=DIRECTION('center_axis',(-1.,-9.209422293663E-15,0.));
#1207=DIRECTION('ref_axis',(-9.209422293663E-15,1.,0.));
#1208=DIRECTION('',(0.,0.,-1.));
#1209=DIRECTION('',(-9.209422293663E-15,1.,0.));
#1210=DIRECTION('',(0.,0.,-1.));
#1211=DIRECTION('center_axis',(-0.92387953251129,0.382683432365081,0.));
#1212=DIRECTION('ref_axis',(0.382683432365081,0.92387953251129,0.));
#1213=DIRECTION('',(0.,0.,-1.));
#1214=DIRECTION('',(0.382683432365081,0.92387953251129,0.));
#1215=DIRECTION('center_axis',(-0.707106781186554,0.707106781186541,0.));
#1216=DIRECTION('ref_axis',(0.707106781186541,0.707106781186554,0.));
#1217=DIRECTION('',(0.,0.,-1.));
#1218=DIRECTION('',(0.707106781186541,0.707106781186554,0.));
#1219=DIRECTION('center_axis',(-0.382683432365099,0.923879532511283,0.));
#1220=DIRECTION('ref_axis',(0.923879532511283,0.382683432365099,0.));
#1221=DIRECTION('',(0.,0.,-1.));
#1222=DIRECTION('',(0.923879532511283,0.382683432365099,0.));
#1223=DIRECTION('center_axis',(-8.93034889082473E-15,1.,0.));
#1224=DIRECTION('ref_axis',(1.,8.93034889082473E-15,0.));
#1225=DIRECTION('',(0.,0.,-1.));
#1226=DIRECTION('',(1.,8.93034889082473E-15,0.));
#1227=DIRECTION('center_axis',(0.382683432365081,0.92387953251129,0.));
#1228=DIRECTION('ref_axis',(0.92387953251129,-0.382683432365081,0.));
#1229=DIRECTION('',(0.,0.,-1.));
#1230=DIRECTION('',(0.92387953251129,-0.382683432365081,0.));
#1231=DIRECTION('center_axis',(0.707106781186541,0.707106781186554,0.));
#1232=DIRECTION('ref_axis',(0.707106781186554,-0.707106781186541,0.));
#1233=DIRECTION('',(0.,0.,-1.));
#1234=DIRECTION('',(0.707106781186554,-0.707106781186541,0.));
#1235=DIRECTION('center_axis',(0.923879532511283,0.382683432365099,0.));
#1236=DIRECTION('ref_axis',(0.382683432365099,-0.923879532511283,0.));
#1237=DIRECTION('',(0.,0.,-1.));
#1238=DIRECTION('',(0.382683432365099,-0.923879532511283,0.));
#1239=DIRECTION('center_axis',(0.,0.,1.));
#1240=DIRECTION('ref_axis',(1.,0.,0.));
#1241=DIRECTION('',(1.,0.,0.));
#1242=DIRECTION('',(0.,-1.,0.));
#1243=DIRECTION('',(-1.,0.,0.));
#1244=DIRECTION('',(0.,1.,0.));
#1245=DIRECTION('center_axis',(-0.707106781186548,-6.51204495465968E-15,
-0.707106781186547));
#1246=DIRECTION('ref_axis',(-0.707106781186547,0.,0.707106781186548));
#1247=DIRECTION('',(9.209422293663E-15,-1.,0.));
#1248=DIRECTION('',(-0.700214507282552,-0.13928132531716,0.700214507282553));
#1249=DIRECTION('',(-0.700214507282554,0.139281325317147,0.700214507282553));
#1250=DIRECTION('center_axis',(-0.653281482438186,-0.270598050073105,-0.707106781186547));
#1251=DIRECTION('ref_axis',(-0.734509555267757,0.,0.678598344545846));
#1252=DIRECTION('',(0.382683432365098,-0.923879532511283,0.));
#1253=DIRECTION('',(-0.593613196009096,-0.396639656760286,0.700214507282554));
#1254=DIRECTION('',(-0.382683432365098,0.923879532511283,0.));
#1255=DIRECTION('center_axis',(-0.499999999999996,-0.500000000000005,-0.707106781186547));
#1256=DIRECTION('ref_axis',(-0.816496580927728,0.,0.577350269189623));
#1257=DIRECTION('',(0.707106781186554,-0.707106781186541,0.));
#1258=DIRECTION('',(-0.396639656760275,-0.593613196009104,0.700214507282553));
#1259=DIRECTION('',(-0.707106781186554,0.707106781186541,0.));
#1260=DIRECTION('center_axis',(-0.270598050073092,-0.653281482438191,-0.707106781186548));
#1261=DIRECTION('ref_axis',(-0.933948831094468,0.,0.357406744336586));
#1262=DIRECTION('',(0.92387953251129,-0.382683432365081,0.));
#1263=DIRECTION('',(-0.139281325317148,-0.700214507282554,0.700214507282553));
#1264=DIRECTION('',(-0.92387953251129,0.382683432365081,0.));
#1265=DIRECTION('center_axis',(6.70937965025543E-15,-0.707106781186548,
-0.707106781186547));
#1266=DIRECTION('ref_axis',(-1.,0.,-9.48849569650128E-15));
#1267=DIRECTION('',(1.,9.48849569650127E-15,0.));
#1268=DIRECTION('',(0.139281325317162,-0.700214507282551,0.700214507282553));
#1269=DIRECTION('',(-1.,-9.48849569650127E-15,0.));
#1270=DIRECTION('center_axis',(0.270598050073105,-0.653281482438185,-0.707106781186548));
#1271=DIRECTION('ref_axis',(-0.933948831094462,0.,-0.3574067443366));
#1272=DIRECTION('',(0.923879532511283,0.382683432365098,0.));
#1273=DIRECTION('',(0.396639656760285,-0.593613196009097,0.700214507282553));
#1274=DIRECTION('',(-0.923879532511283,-0.382683432365098,0.));
#1275=DIRECTION('center_axis',(0.500000000000005,-0.499999999999995,-0.707106781186547));
#1276=DIRECTION('ref_axis',(-0.816496580927723,0.,-0.57735026918963));
#1277=DIRECTION('',(0.70710678118654,0.707106781186554,0.));
#1278=DIRECTION('',(0.593613196009102,-0.396639656760277,0.700214507282554));
#1279=DIRECTION('',(-0.70710678118654,-0.707106781186554,0.));
#1280=DIRECTION('center_axis',(0.653281482438191,-0.270598050073092,-0.707106781186547));
#1281=DIRECTION('ref_axis',(-0.734509555267754,0.,-0.678598344545849));
#1282=DIRECTION('',(0.382683432365081,0.923879532511291,0.));
#1283=DIRECTION('',(0.700214507282555,-0.139281325317142,0.700214507282553));
#1284=DIRECTION('',(-0.382683432365081,-0.923879532511291,0.));
#1285=DIRECTION('center_axis',(0.707106781186548,7.10404904144693E-15,-0.707106781186548));
#1286=DIRECTION('ref_axis',(-0.707106781186548,0.,-0.707106781186548));
#1287=DIRECTION('',(-1.00466425021778E-14,1.,0.));
#1288=DIRECTION('',(0.700214507282553,0.139281325317156,0.700214507282553));
#1289=DIRECTION('',(1.00466425021778E-14,-1.,0.));
#1290=DIRECTION('center_axis',(0.653281482438186,0.270598050073105,-0.707106781186547));
#1291=DIRECTION('ref_axis',(-0.734509555267756,0.,-0.678598344545846));
#1292=DIRECTION('',(-0.382683432365099,0.923879532511283,0.));
#1293=DIRECTION('',(0.593613196009093,0.39663965676029,0.700214507282553));
#1294=DIRECTION('center_axis',(0.499999999999995,0.500000000000005,-0.707106781186548));
#1295=DIRECTION('ref_axis',(-0.816496580927729,0.,-0.577350269189622));
#1296=DIRECTION('',(-0.707106781186554,0.707106781186541,0.));
#1297=DIRECTION('',(0.396639656760278,0.593613196009101,0.700214507282554));
#1298=DIRECTION('center_axis',(0.270598050073092,0.653281482438191,-0.707106781186547));
#1299=DIRECTION('ref_axis',(-0.933948831094467,0.,-0.357406744336586));
#1300=DIRECTION('',(-0.92387953251129,0.382683432365081,0.));
#1301=DIRECTION('',(0.139281325317145,0.700214507282555,0.700214507282553));
#1302=DIRECTION('center_axis',(-6.31471025906393E-15,0.707106781186548,
-0.707106781186548));
#1303=DIRECTION('ref_axis',(-1.,0.,8.93034889082473E-15));
#1304=DIRECTION('',(-1.,-8.93034889082473E-15,0.));
#1305=DIRECTION('',(-0.139281325317158,0.700214507282552,0.700214507282554));
#1306=DIRECTION('center_axis',(-0.270598050073105,0.653281482438186,-0.707106781186547));
#1307=DIRECTION('ref_axis',(-0.933948831094462,0.,0.357406744336601));
#1308=DIRECTION('',(-0.923879532511283,-0.382683432365099,0.));
#1309=DIRECTION('',(-0.396639656760286,0.593613196009096,0.700214507282554));
#1310=DIRECTION('center_axis',(-0.500000000000005,0.499999999999996,-0.707106781186547));
#1311=DIRECTION('ref_axis',(-0.816496580927723,0.,0.57735026918963));
#1312=DIRECTION('',(-0.707106781186541,-0.707106781186554,0.));
#1313=DIRECTION('',(-0.593613196009103,0.396639656760275,0.700214507282554));
#1314=DIRECTION('center_axis',(-0.653281482438191,0.270598050073093,-0.707106781186547));
#1315=DIRECTION('ref_axis',(-0.734509555267754,0.,0.678598344545849));
#1316=DIRECTION('',(-0.382683432365081,-0.92387953251129,0.));
#1317=DIRECTION('center_axis',(0.,0.,-1.));
#1318=DIRECTION('ref_axis',(-1.,0.,0.));
#1319=DIRECTION('center_axis',(-0.923879532511283,-0.382683432365098,0.));
#1320=DIRECTION('ref_axis',(-0.382683432365098,0.923879532511283,0.));
#1321=DIRECTION('',(0.,0.,-1.));
#1322=DIRECTION('center_axis',(-0.707106781186541,-0.707106781186554,0.));
#1323=DIRECTION('ref_axis',(-0.707106781186554,0.707106781186541,0.));
#1324=DIRECTION('',(0.,0.,-1.));
#1325=DIRECTION('center_axis',(-0.382683432365081,-0.92387953251129,0.));
#1326=DIRECTION('ref_axis',(-0.92387953251129,0.382683432365081,0.));
#1327=DIRECTION('',(0.,0.,-1.));
#1328=DIRECTION('center_axis',(9.48849569650127E-15,-1.,0.));
#1329=DIRECTION('ref_axis',(-1.,-9.48849569650127E-15,0.));
#1330=DIRECTION('',(0.,0.,-1.));
#1331=DIRECTION('center_axis',(0.382683432365099,-0.923879532511283,0.));
#1332=DIRECTION('ref_axis',(-0.923879532511283,-0.382683432365098,0.));
#1333=DIRECTION('',(0.,0.,-1.));
#1334=DIRECTION('center_axis',(0.707106781186555,-0.707106781186541,0.));
#1335=DIRECTION('ref_axis',(-0.70710678118654,-0.707106781186554,0.));
#1336=DIRECTION('',(0.,0.,-1.));
#1337=DIRECTION('center_axis',(0.923879532511291,-0.382683432365081,0.));
#1338=DIRECTION('ref_axis',(-0.382683432365081,-0.923879532511291,0.));
#1339=DIRECTION('',(0.,0.,-1.));
#1340=DIRECTION('center_axis',(1.,1.00466425021778E-14,0.));
#1341=DIRECTION('ref_axis',(1.00466425021778E-14,-1.,0.));
#1342=DIRECTION('center_axis',(0.,-1.,0.));
#1343=DIRECTION('ref_axis',(0.,0.,-1.));
#1344=DIRECTION('',(0.,0.,-1.));
#1345=DIRECTION('',(-1.,0.,0.));
#1346=DIRECTION('',(0.,0.,1.));
#1347=DIRECTION('',(0.,0.,-1.));
#1348=DIRECTION('',(1.,0.,0.));
#1349=DIRECTION('',(0.,0.,-1.));
#1350=DIRECTION('',(1.,0.,0.));
#1351=DIRECTION('center_axis',(1.,0.,0.));
#1352=DIRECTION('ref_axis',(0.,1.,0.));
#1353=DIRECTION('',(0.,1.,0.));
#1354=DIRECTION('',(0.,0.,1.));
#1355=DIRECTION('center_axis',(0.,0.,1.));
#1356=DIRECTION('ref_axis',(1.,0.,0.));
#1357=DIRECTION('',(0.,-1.,0.));
#1358=DIRECTION('',(-1.,0.,0.));
#1359=DIRECTION('center_axis',(1.,0.,0.));
#1360=DIRECTION('ref_axis',(0.,0.,-1.));
#1361=DIRECTION('',(0.,1.,0.));
#1362=DIRECTION('',(0.,0.,1.));
#1363=DIRECTION('',(0.,1.,0.));
#1364=DIRECTION('',(0.,0.,-1.));
#1365=DIRECTION('center_axis',(0.,-1.,0.));
#1366=DIRECTION('ref_axis',(1.,0.,0.));
#1367=DIRECTION('',(-1.,0.,0.));
#1368=DIRECTION('',(0.,0.,1.));
#1369=DIRECTION('center_axis',(0.,0.,-1.));
#1370=DIRECTION('ref_axis',(0.,-1.,0.));
#1371=DIRECTION('',(0.,1.,0.));
#1372=DIRECTION('',(1.,0.,0.));
#1373=DIRECTION('',(0.,1.,0.));
#1374=DIRECTION('center_axis',(0.,-1.,0.));
#1375=DIRECTION('ref_axis',(0.,0.,-1.));
#1376=DIRECTION('',(-1.,0.,0.));
#1377=DIRECTION('',(0.,0.,1.));
#1378=DIRECTION('center_axis',(1.,0.,0.));
#1379=DIRECTION('ref_axis',(0.,0.,-1.));
#1380=DIRECTION('',(0.,-1.,0.));
#1381=DIRECTION('center_axis',(-1.,0.,0.));
#1382=DIRECTION('ref_axis',(0.,-1.,0.));
#1383=DIRECTION('center_axis',(0.,0.,-1.));
#1384=DIRECTION('ref_axis',(0.,-1.,0.));
#1385=CARTESIAN_POINT('',(0.,0.,0.));
#1386=CARTESIAN_POINT('Origin',(3.76095471239896,6.14999999999997,-0.4));
#1387=CARTESIAN_POINT('',(4.51647126169623,5.74999999999998,-0.4));
#1388=CARTESIAN_POINT('',(3.52190942479794,5.74999999999997,-0.4));
#1389=CARTESIAN_POINT('',(3.76095471239896,5.74999999999997,-0.4));
#1390=CARTESIAN_POINT('',(3.44234447784607,6.14999999999997,0.));
#1391=CARTESIAN_POINT('Origin',(3.44234447784607,6.14999999999997,-0.4));
#1392=CARTESIAN_POINT('',(4.59603620864809,6.14999999999998,0.));
#1393=CARTESIAN_POINT('',(3.76095471239896,6.14999999999997,0.));
#1394=CARTESIAN_POINT('Origin',(4.59603620864809,6.14999999999998,-0.4));
#1395=CARTESIAN_POINT('Origin',(6.29252600604886,5.3397474073205,-0.4));
#1396=CARTESIAN_POINT('',(6.47769163181255,4.89271804231651,0.));
#1397=CARTESIAN_POINT('',(6.9191903432471,3.82684586540101,0.));
#1398=CARTESIAN_POINT('',(6.29252600604886,5.3397474073205,0.));
#1399=CARTESIAN_POINT('',(6.5191903432471,3.74728091844914,-0.4));
#1400=CARTESIAN_POINT('Origin',(6.9191903432471,3.82684586540101,-0.4));
#1401=CARTESIAN_POINT('',(6.13858800580353,4.6661362433763,-0.4));
#1402=CARTESIAN_POINT('',(5.92297419304435,5.18667403437446,-0.4));
#1403=CARTESIAN_POINT('Origin',(6.47769163181255,4.89271804231652,-0.4));
#1404=CARTESIAN_POINT('Origin',(2.98086378365305,5.95884843769186,-0.4));
#1405=CARTESIAN_POINT('',(2.60305409987078,5.3693976625564,-0.4));
#1406=CARTESIAN_POINT('',(3.13393715659909,5.58929662468735,-0.4));
#1407=CARTESIAN_POINT('',(2.37647230093057,5.70850128856542,0.));
#1408=CARTESIAN_POINT('Origin',(2.37647230093057,5.70850128856542,-0.4));
#1409=CARTESIAN_POINT('',(2.98086378365305,5.95884843769186,0.));
#1410=CARTESIAN_POINT('Origin',(2.2254677371993,5.55749672483415,-0.4));
#1411=CARTESIAN_POINT('',(1.89979268069066,4.66613624337626,-0.4));
#1412=CARTESIAN_POINT('',(2.50831044967392,5.27465401235953,-0.4));
#1413=CARTESIAN_POINT('',(1.56068905468163,4.89271804231647,0.));
#1414=CARTESIAN_POINT('Origin',(1.56068905468163,4.89271804231647,-0.4));
#1415=CARTESIAN_POINT('',(2.2254677371993,5.55749672483415,0.));
#1416=CARTESIAN_POINT('Origin',(1.55274315102164,4.87353493393522,-0.4));
#1417=CARTESIAN_POINT('',(1.5191903432471,3.7472809184491,-0.4));
#1418=CARTESIAN_POINT('',(1.92229496402616,4.72046156098919,-0.4));
#1419=CARTESIAN_POINT('',(1.1191903432471,3.82684586540096,0.));
#1420=CARTESIAN_POINT('Origin',(1.1191903432471,3.82684586540096,-0.4));
#1421=CARTESIAN_POINT('',(1.55274315102164,4.87353493393522,0.));
#1422=CARTESIAN_POINT('Origin',(1.1191903432471,3.87635954077539,-0.4));
#1423=CARTESIAN_POINT('',(1.51919034324711,2.75271908155081,-0.4));
#1424=CARTESIAN_POINT('',(1.5191903432471,3.87635954077539,-0.4));
#1425=CARTESIAN_POINT('',(1.11919034324711,2.67315413459894,0.));
#1426=CARTESIAN_POINT('Origin',(1.11919034324711,2.67315413459894,-0.4));
#1427=CARTESIAN_POINT('',(1.1191903432471,3.87635954077539,0.));
#1428=CARTESIAN_POINT('Origin',(1.12432588620521,2.66075583713935,-0.4));
#1429=CARTESIAN_POINT('',(1.89979268069068,1.83386375662365,-0.4));
#1430=CARTESIAN_POINT('',(1.49387769920972,2.81382921008539,-0.4));
#1431=CARTESIAN_POINT('',(1.56068905468166,1.60728195768344,0.));
#1432=CARTESIAN_POINT('Origin',(1.56068905468166,1.60728195768344,-0.4));
#1433=CARTESIAN_POINT('',(1.12432588620521,2.66075583713935,0.));
#1434=CARTESIAN_POINT('Origin',(1.70209844678939,1.46587256557571,-0.4));
#1435=CARTESIAN_POINT('',(2.60305409987082,1.13060233744353,-0.4));
#1436=CARTESIAN_POINT('',(1.984941159264,1.74871527805033,-0.4));
#1437=CARTESIAN_POINT('',(2.37647230093061,0.791498711434497,0.));
#1438=CARTESIAN_POINT('Origin',(2.37647230093061,0.791498711434497,-0.4));
#1439=CARTESIAN_POINT('',(1.70209844678939,1.46587256557571,0.));
#1440=CARTESIAN_POINT('Origin',(2.82157301257844,0.607131960048057,-0.4));
#1441=CARTESIAN_POINT('',(3.44234447784612,0.34999999999997,0.));
#1442=CARTESIAN_POINT('',(2.82157301257844,0.607131960048057,0.));
#1443=CARTESIAN_POINT('',(3.52190942479798,0.749999999999971,-0.4));
#1444=CARTESIAN_POINT('',(2.97464638552447,0.976683773052573,-0.4));
#1445=CARTESIAN_POINT('Origin',(3.44234447784613,0.34999999999997,-0.4));
#1446=CARTESIAN_POINT('Origin',(4.25823563084816,0.349999999999978,-0.4));
#1447=CARTESIAN_POINT('',(4.59603620864814,0.349999999999981,0.));
#1448=CARTESIAN_POINT('',(4.25823563084816,0.349999999999978,0.));
#1449=CARTESIAN_POINT('',(4.51647126169627,0.74999999999998,-0.4));
#1450=CARTESIAN_POINT('',(4.25823563084816,0.749999999999978,-0.4));
#1451=CARTESIAN_POINT('Origin',(4.59603620864814,0.349999999999981,-0.4));
#1452=CARTESIAN_POINT('Origin',(5.6598553538342,0.79064831784821,-0.4));
#1453=CARTESIAN_POINT('',(5.66190838556364,0.791498711434527,0.));
#1454=CARTESIAN_POINT('',(5.6598553538342,0.79064831784821,0.));
#1455=CARTESIAN_POINT('',(5.43532658662343,1.13060233744356,-0.4));
#1456=CARTESIAN_POINT('',(5.50678198088816,1.16020013085272,-0.4));
#1457=CARTESIAN_POINT('Origin',(5.66190838556364,0.791498711434527,-0.4));
#1458=CARTESIAN_POINT('Origin',(6.67831777767137,1.80790810354228,-0.4));
#1459=CARTESIAN_POINT('',(6.47769163181259,1.60728195768349,0.));
#1460=CARTESIAN_POINT('',(6.67831777767137,1.80790810354228,0.));
#1461=CARTESIAN_POINT('',(6.13858800580355,1.83386375662369,-0.4));
#1462=CARTESIAN_POINT('',(6.39547506519675,2.0907508160169,-0.4));
#1463=CARTESIAN_POINT('Origin',(6.47769163181259,1.60728195768349,-0.4));
#1464=CARTESIAN_POINT('Origin',(7.10154560830891,3.11339868868133,-0.4));
#1465=CARTESIAN_POINT('',(6.91919034324711,2.673154134599,0.));
#1466=CARTESIAN_POINT('',(7.10154560830891,3.11339868868133,0.));
#1467=CARTESIAN_POINT('',(6.51919034324711,2.75271908155086,-0.4));
#1468=CARTESIAN_POINT('',(6.73199379530439,3.26647206162736,-0.4));
#1469=CARTESIAN_POINT('Origin',(6.91919034324711,2.673154134599,-0.4));
#1470=CARTESIAN_POINT('Origin',(6.9191903432471,4.37364045922459,-0.4));
#1471=CARTESIAN_POINT('',(6.9191903432471,4.37364045922459,0.));
#1472=CARTESIAN_POINT('',(6.51919034324709,4.37364045922458,-0.4));
#1473=CARTESIAN_POINT('Origin',(5.45168706808126,5.91872260604779,-0.4));
#1474=CARTESIAN_POINT('',(5.6619083855636,5.70850128856545,0.));
#1475=CARTESIAN_POINT('',(5.45168706808126,5.91872260604779,0.));
#1476=CARTESIAN_POINT('',(5.43532658662339,5.36939766255642,-0.4));
#1477=CARTESIAN_POINT('',(5.16884435560664,5.63587989357317,-0.4));
#1478=CARTESIAN_POINT('Origin',(5.6619083855636,5.70850128856545,-0.4));
#1479=CARTESIAN_POINT('Origin',(4.58170925783233,6.15593441733532,-0.4));
#1480=CARTESIAN_POINT('',(4.58170925783233,6.15593441733532,0.));
#1481=CARTESIAN_POINT('',(4.4286358848863,5.7863826043308,-0.4));
#1482=CARTESIAN_POINT('Origin',(1.51919034324711,2.75271908155081,0.));
#1483=CARTESIAN_POINT('',(1.5191903432471,3.7472809184491,-2.6));
#1484=CARTESIAN_POINT('',(1.5191903432471,3.7472809184491,0.));
#1485=CARTESIAN_POINT('',(1.51919034324711,2.75271908155081,-2.6));
#1486=CARTESIAN_POINT('',(1.51919034324711,3.00135954077538,-2.6));
#1487=CARTESIAN_POINT('',(1.51919034324711,2.75271908155081,0.));
#1488=CARTESIAN_POINT('Origin',(1.5191903432471,3.7472809184491,0.));
#1489=CARTESIAN_POINT('',(1.89979268069066,4.66613624337626,-2.6));
#1490=CARTESIAN_POINT('',(1.89979268069066,4.66613624337626,0.));
#1491=CARTESIAN_POINT('',(1.61434092760799,3.97699474968089,-2.6));
#1492=CARTESIAN_POINT('Origin',(1.89979268069066,4.66613624337626,0.));
#1493=CARTESIAN_POINT('',(2.60305409987078,5.3693976625564,-2.6));
#1494=CARTESIAN_POINT('',(2.60305409987078,5.3693976625564,0.));
#1495=CARTESIAN_POINT('',(2.07560803548569,4.8419515981713,-2.6));
#1496=CARTESIAN_POINT('Origin',(2.60305409987078,5.3693976625564,0.));
#1497=CARTESIAN_POINT('',(3.52190942479794,5.74999999999997,-2.6));
#1498=CARTESIAN_POINT('',(3.52190942479794,5.74999999999997,0.));
#1499=CARTESIAN_POINT('',(2.83276793110257,5.46454824691729,-2.6));
#1500=CARTESIAN_POINT('Origin',(3.52190942479794,5.74999999999997,0.));
#1501=CARTESIAN_POINT('',(4.51647126169623,5.74999999999998,-2.6));
#1502=CARTESIAN_POINT('',(4.51647126169623,5.74999999999998,0.));
#1503=CARTESIAN_POINT('',(3.77054988402251,5.74999999999997,-2.6));
#1504=CARTESIAN_POINT('Origin',(4.51647126169623,5.74999999999998,0.));
#1505=CARTESIAN_POINT('',(5.43532658662339,5.36939766255642,-2.6));
#1506=CARTESIAN_POINT('',(5.43532658662339,5.36939766255642,0.));
#1507=CARTESIAN_POINT('',(4.74618509292802,5.65484941563909,-2.6));
#1508=CARTESIAN_POINT('Origin',(5.43532658662339,5.36939766255642,0.));
#1509=CARTESIAN_POINT('',(6.13858800580353,4.6661362433763,-2.6));
#1510=CARTESIAN_POINT('',(6.13858800580353,4.6661362433763,0.));
#1511=CARTESIAN_POINT('',(5.61114194141842,5.19358230776139,-2.6));
#1512=CARTESIAN_POINT('Origin',(6.13858800580353,4.6661362433763,0.));
#1513=CARTESIAN_POINT('',(6.5191903432471,3.74728091844914,-2.6));
#1514=CARTESIAN_POINT('',(6.5191903432471,3.74728091844914,0.));
#1515=CARTESIAN_POINT('',(6.23373859016442,4.43642241214451,-2.6));
#1516=CARTESIAN_POINT('Origin',(4.,5.,0.));
#1517=CARTESIAN_POINT('',(0.25,6.25,0.));
#1518=CARTESIAN_POINT('',(7.75,6.25,0.));
#1519=CARTESIAN_POINT('',(5.875,6.25,0.));
#1520=CARTESIAN_POINT('',(7.75,0.25,0.));
#1521=CARTESIAN_POINT('',(7.75,9.75,0.));
#1522=CARTESIAN_POINT('',(0.25,0.25,0.));
#1523=CARTESIAN_POINT('',(7.75,0.25,0.));
#1524=CARTESIAN_POINT('',(0.25,0.25,0.));
#1525=CARTESIAN_POINT('Origin',(1.71919034324711,3.00135954077538,-2.8));
#1526=CARTESIAN_POINT('',(1.9191903432471,3.66771597149724,-3.));
#1527=CARTESIAN_POINT('',(1.91919034324711,2.83228402850267,-3.));
#1528=CARTESIAN_POINT('',(1.91919034324711,3.00135954077538,-3.));
#1529=CARTESIAN_POINT('',(1.91919034324711,2.83228402850267,-3.));
#1530=CARTESIAN_POINT('',(1.9191903432471,3.66771597149724,-3.));
#1531=CARTESIAN_POINT('Origin',(1.98941800283205,2.14011427432846,-2.8));
#1532=CARTESIAN_POINT('',(2.23889630669971,2.06044555556386,-3.));
#1533=CARTESIAN_POINT('',(2.1741939093343,2.21665096080148,-3.));
#1534=CARTESIAN_POINT('',(1.89979268069068,1.83386375662365,-2.6));
#1535=CARTESIAN_POINT('',(2.23889630669971,2.06044555556386,-3.));
#1536=CARTESIAN_POINT('',(1.80464209632979,2.06357758785544,-2.6));
#1537=CARTESIAN_POINT('Origin',(2.5686601013131,1.44783904847587,-2.8));
#1538=CARTESIAN_POINT('',(2.82963589881103,1.46970596345256,-3.));
#1539=CARTESIAN_POINT('',(2.7100814575504,1.58926040471318,-3.));
#1540=CARTESIAN_POINT('',(2.60305409987082,1.13060233744353,-2.6));
#1541=CARTESIAN_POINT('',(2.82963589881103,1.46970596345256,-3.));
#1542=CARTESIAN_POINT('',(2.42723874507579,1.30641769223856,-2.6));
#1543=CARTESIAN_POINT('Origin',(3.36873228003921,1.02992649086312,-2.8));
#1544=CARTESIAN_POINT('',(3.60147437174984,1.14999999999997,-3.));
#1545=CARTESIAN_POINT('',(3.44526896651223,1.21470239736538,-3.));
#1546=CARTESIAN_POINT('',(3.52190942479798,0.749999999999971,-2.6));
#1547=CARTESIAN_POINT('',(3.60147437174984,1.14999999999997,-3.));
#1548=CARTESIAN_POINT('',(3.29219559356619,0.84515058436086,-2.6));
#1549=CARTESIAN_POINT('Origin',(4.2678308024717,0.949999999999978,-2.8));
#1550=CARTESIAN_POINT('',(4.43690631474441,1.14999999999998,-3.));
#1551=CARTESIAN_POINT('',(4.2678308024717,1.14999999999998,-3.));
#1552=CARTESIAN_POINT('',(4.51647126169627,0.74999999999998,-2.6));
#1553=CARTESIAN_POINT('',(4.43690631474441,1.14999999999998,-3.));
#1554=CARTESIAN_POINT('',(4.2678308024717,0.749999999999978,-2.6));
#1555=CARTESIAN_POINT('Origin',(5.12907606891862,1.22022765958492,-2.8));
#1556=CARTESIAN_POINT('',(5.20874478768322,1.46970596345258,-3.));
#1557=CARTESIAN_POINT('',(5.0525393824456,1.40500356608718,-3.));
#1558=CARTESIAN_POINT('',(5.43532658662343,1.13060233744356,-2.6));
#1559=CARTESIAN_POINT('',(5.20874478768322,1.46970596345258,-3.));
#1560=CARTESIAN_POINT('',(5.20561275539164,1.03545175308266,-2.6));
#1561=CARTESIAN_POINT('Origin',(5.82135129477121,1.79946975806597,-2.8));
#1562=CARTESIAN_POINT('',(5.79948437979452,2.0604455555639,-3.));
#1563=CARTESIAN_POINT('',(5.6799299385339,1.94089111430327,-3.));
#1564=CARTESIAN_POINT('',(6.13858800580355,1.83386375662369,-2.6));
#1565=CARTESIAN_POINT('',(5.79948437979452,2.0604455555639,-3.));
#1566=CARTESIAN_POINT('',(5.96277265100852,1.65804840182866,-2.6));
#1567=CARTESIAN_POINT('Origin',(6.23926385238396,2.59954193679208,-2.8));
#1568=CARTESIAN_POINT('',(6.11919034324711,2.83228402850271,-3.));
#1569=CARTESIAN_POINT('',(6.05448794588171,2.6760786232651,-3.));
#1570=CARTESIAN_POINT('',(6.51919034324711,2.75271908155086,-2.6));
#1571=CARTESIAN_POINT('',(6.11919034324711,2.83228402850271,-3.));
#1572=CARTESIAN_POINT('',(6.42403975888622,2.52300525031906,-2.6));
#1573=CARTESIAN_POINT('Origin',(6.3191903432471,3.49864045922457,-2.8));
#1574=CARTESIAN_POINT('',(6.1191903432471,3.66771597149728,-3.));
#1575=CARTESIAN_POINT('',(6.1191903432471,3.49864045922457,-3.));
#1576=CARTESIAN_POINT('',(6.1191903432471,3.66771597149728,-3.));
#1577=CARTESIAN_POINT('',(6.5191903432471,3.49864045922457,-2.6));
#1578=CARTESIAN_POINT('Origin',(6.04896268366216,4.35988572567149,-2.8));
#1579=CARTESIAN_POINT('',(5.7994843797945,4.43955444443609,-3.));
#1580=CARTESIAN_POINT('',(5.86418677715991,4.28334903919847,-3.));
#1581=CARTESIAN_POINT('',(5.7994843797945,4.43955444443609,-3.));
#1582=CARTESIAN_POINT('Origin',(5.46972058518111,5.05216095152408,-2.8));
#1583=CARTESIAN_POINT('',(5.20874478768318,5.03029403654739,-3.));
#1584=CARTESIAN_POINT('',(5.32829922894381,4.91073959528677,-3.));
#1585=CARTESIAN_POINT('',(5.20874478768318,5.03029403654739,-3.));
#1586=CARTESIAN_POINT('Origin',(4.669648406455,5.47007350913683,-2.8));
#1587=CARTESIAN_POINT('',(4.43690631474437,5.34999999999998,-3.));
#1588=CARTESIAN_POINT('',(4.59311171998198,5.28529760263458,-3.));
#1589=CARTESIAN_POINT('',(4.43690631474437,5.34999999999998,-3.));
#1590=CARTESIAN_POINT('Origin',(3.77054988402251,5.54999999999997,-2.8));
#1591=CARTESIAN_POINT('',(3.6014743717498,5.34999999999997,-3.));
#1592=CARTESIAN_POINT('',(3.77054988402251,5.34999999999997,-3.));
#1593=CARTESIAN_POINT('',(3.6014743717498,5.34999999999997,-3.));
#1594=CARTESIAN_POINT('Origin',(2.90930461757559,5.27977234041503,-2.8));
#1595=CARTESIAN_POINT('',(2.82963589881099,5.03029403654737,-3.));
#1596=CARTESIAN_POINT('',(2.98584130404861,5.09499643391278,-3.));
#1597=CARTESIAN_POINT('',(2.82963589881099,5.03029403654737,-3.));
#1598=CARTESIAN_POINT('Origin',(2.217029391723,4.70053024193399,-2.8));
#1599=CARTESIAN_POINT('',(2.23889630669969,4.43955444443606,-3.));
#1600=CARTESIAN_POINT('',(2.35845074796031,4.55910888569668,-3.));
#1601=CARTESIAN_POINT('',(2.23889630669969,4.43955444443606,-3.));
#1602=CARTESIAN_POINT('Origin',(1.79911683411025,3.90045806320787,-2.8));
#1603=CARTESIAN_POINT('',(1.98389274061251,3.82392137673486,-3.));
#1604=CARTESIAN_POINT('Origin',(4.01919034324711,3.24999999999998,-3.));
#1605=CARTESIAN_POINT('Origin',(1.89979268069068,1.83386375662365,0.));
#1606=CARTESIAN_POINT('',(1.89979268069068,1.83386375662365,0.));
#1607=CARTESIAN_POINT('Origin',(2.60305409987082,1.13060233744353,0.));
#1608=CARTESIAN_POINT('',(2.60305409987082,1.13060233744353,0.));
#1609=CARTESIAN_POINT('Origin',(3.52190942479798,0.749999999999971,0.));
#1610=CARTESIAN_POINT('',(3.52190942479798,0.749999999999971,0.));
#1611=CARTESIAN_POINT('Origin',(4.51647126169627,0.74999999999998,0.));
#1612=CARTESIAN_POINT('',(4.51647126169627,0.74999999999998,0.));
#1613=CARTESIAN_POINT('Origin',(5.43532658662343,1.13060233744356,0.));
#1614=CARTESIAN_POINT('',(5.43532658662343,1.13060233744356,0.));
#1615=CARTESIAN_POINT('Origin',(6.13858800580355,1.83386375662369,0.));
#1616=CARTESIAN_POINT('',(6.13858800580355,1.83386375662369,0.));
#1617=CARTESIAN_POINT('Origin',(6.51919034324711,2.75271908155086,0.));
#1618=CARTESIAN_POINT('',(6.51919034324711,2.75271908155086,0.));
#1619=CARTESIAN_POINT('Origin',(6.5191903432471,3.74728091844914,0.));
#1620=CARTESIAN_POINT('Origin',(7.75,6.25,0.));
#1621=CARTESIAN_POINT('',(-5.75,6.25,10.));
#1622=CARTESIAN_POINT('',(-5.75,6.25,7.));
#1623=CARTESIAN_POINT('',(-5.75,6.25,3.75));
#1624=CARTESIAN_POINT('',(7.75,6.25,10.));
#1625=CARTESIAN_POINT('',(5.875,6.25,10.));
#1626=CARTESIAN_POINT('',(7.75,6.25,0.));
#1627=CARTESIAN_POINT('',(0.25,6.25,5.));
#1628=CARTESIAN_POINT('',(0.25,6.25,0.));
#1629=CARTESIAN_POINT('',(-1.25,6.25,5.));
#1630=CARTESIAN_POINT('',(4.,6.25,5.));
#1631=CARTESIAN_POINT('',(-1.25,6.25,7.));
#1632=CARTESIAN_POINT('',(-1.25,6.25,3.));
#1633=CARTESIAN_POINT('',(4.,6.25,7.));
#1634=CARTESIAN_POINT('Origin',(7.75,0.25,0.));
#1635=CARTESIAN_POINT('',(7.75,0.25,10.));
#1636=CARTESIAN_POINT('',(7.75,9.75,10.));
#1637=CARTESIAN_POINT('',(7.75,0.25,0.));
#1638=CARTESIAN_POINT('Origin',(4.,5.,10.));
#1639=CARTESIAN_POINT('',(-5.75,0.25,10.));
#1640=CARTESIAN_POINT('',(-5.75,5.,10.));
#1641=CARTESIAN_POINT('',(0.25,0.25,10.));
#1642=CARTESIAN_POINT('Origin',(-5.75,5.,7.5));
#1643=CARTESIAN_POINT('',(-5.75,2.25,7.));
#1644=CARTESIAN_POINT('',(-5.75,7.375,7.));
#1645=CARTESIAN_POINT('',(-5.75,2.25,5.));
#1646=CARTESIAN_POINT('',(-5.75,2.25,7.25));
#1647=CARTESIAN_POINT('',(-5.75,0.25,5.));
#1648=CARTESIAN_POINT('',(-5.75,4.625,5.));
#1649=CARTESIAN_POINT('',(-5.75,0.25,3.75));
#1650=CARTESIAN_POINT('Origin',(0.25,0.25,0.));
#1651=CARTESIAN_POINT('',(0.25,0.25,5.));
#1652=CARTESIAN_POINT('',(0.25,0.25,5.));
#1653=CARTESIAN_POINT('',(0.25,0.25,0.));
#1654=CARTESIAN_POINT('Origin',(0.25,4.25,5.));
#1655=CARTESIAN_POINT('',(0.25,7.,5.));
#1656=CARTESIAN_POINT('',(-1.25,2.25,5.));
#1657=CARTESIAN_POINT('',(0.25,2.25,5.));
#1658=CARTESIAN_POINT('',(-1.25,4.25,5.));
#1659=CARTESIAN_POINT('Origin',(0.25,2.25,7.));
#1660=CARTESIAN_POINT('',(-1.25,2.25,7.));
#1661=CARTESIAN_POINT('',(0.25,2.25,7.));
#1662=CARTESIAN_POINT('',(-1.25,2.25,6.5));
#1663=CARTESIAN_POINT('Origin',(-1.25,7.,6.));
#1664=CARTESIAN_POINT('',(-1.25,4.25,7.));
#1665=CARTESIAN_POINT('Origin',(0.25,9.75,0.));
#1666=CARTESIAN_POINT('Origin',(0.25,9.75,7.));
#1667=UNCERTAINTY_MEASURE_WITH_UNIT(LENGTH_MEASURE(0.01),#1671,
'DISTANCE_ACCURACY_VALUE',
'Maximum model space distance between geometric entities at asserted c
onnectivities');
#1668=UNCERTAINTY_MEASURE_WITH_UNIT(LENGTH_MEASURE(0.01),#1671,
'DISTANCE_ACCURACY_VALUE',
'Maximum model space distance between geometric entities at asserted c
onnectivities');
#1669=(
GEOMETRIC_REPRESENTATION_CONTEXT(3)
GLOBAL_UNCERTAINTY_ASSIGNED_CONTEXT((#1667))
GLOBAL_UNIT_ASSIGNED_CONTEXT((#1671,#1673,#1674))
REPRESENTATION_CONTEXT('','3D')
);
#1670=(
GEOMETRIC_REPRESENTATION_CONTEXT(3)
GLOBAL_UNCERTAINTY_ASSIGNED_CONTEXT((#1668))
GLOBAL_UNIT_ASSIGNED_CONTEXT((#1671,#1673,#1674))
REPRESENTATION_CONTEXT('','3D')
);
#1671=(
LENGTH_UNIT()
NAMED_UNIT(*)
SI_UNIT(.MILLI.,.METRE.)
);
#1672=(
LENGTH_UNIT()
NAMED_UNIT(*)
SI_UNIT($,.METRE.)
);
#1673=(
NAMED_UNIT(*)
PLANE_ANGLE_UNIT()
SI_UNIT($,.RADIAN.)
);
#1674=(
NAMED_UNIT(*)
SI_UNIT($,.STERADIAN.)
SOLID_ANGLE_UNIT()
);
#1675=SHAPE_DEFINITION_REPRESENTATION(#1676,#1677);
#1676=PRODUCT_DEFINITION_SHAPE('',$,#1679);
#1677=SHAPE_REPRESENTATION('',(#1031),#1669);
#1678=PRODUCT_DEFINITION_CONTEXT('part definition',#1683,'design');
#1679=PRODUCT_DEFINITION('base_raspi_stopper1','base_raspi_stopper1 v9',
#1680,#1678);
#1680=PRODUCT_DEFINITION_FORMATION('',$,#1685);
#1681=PRODUCT_RELATED_PRODUCT_CATEGORY('base_raspi_stopper1 v9',
'base_raspi_stopper1 v9',(#1685));
#1682=APPLICATION_PROTOCOL_DEFINITION('international standard',
'automotive_design',2009,#1683);
#1683=APPLICATION_CONTEXT(
'Core Data for Automotive Mechanical Design Process');
#1684=PRODUCT_CONTEXT('part definition',#1683,'mechanical');
#1685=PRODUCT('base_raspi_stopper1','base_raspi_stopper1 v9',$,(#1684));
#1686=PRESENTATION_STYLE_ASSIGNMENT((#1687));
#1687=SURFACE_STYLE_USAGE(.BOTH.,#1688);
#1688=SURFACE_SIDE_STYLE('',(#1689));
#1689=SURFACE_STYLE_FILL_AREA(#1690);
#1690=FILL_AREA_STYLE('\X2\92FC\X0\ - \X2\30B530C630F3\X0\',(#1691));
#1691=FILL_AREA_STYLE_COLOUR('\X2\92FC\X0\ - \X2\30B530C630F3\X0\',#1692);
#1692=COLOUR_RGB('\X2\92FC\X0\ - \X2\30B530C630F3\X0\',0.627450980392157,
0.627450980392157,0.627450980392157);
ENDSEC;
END-ISO-10303-21;
