ISO-10303-21;
HEADER;
/* Generated by software containing ST-Developer
 * from STEP Tools, Inc. (www.steptools.com) 
 */

FILE_DESCRIPTION(
/* description */ (''),
/* implementation_level */ '2;1');

FILE_NAME(
/* name */ 'in_base_raspi_stopper2.step',
/* time_stamp */ '2026-02-01T20:56:05+09:00',
/* author */ (''),
/* organization */ (''),
/* preprocessor_version */ 'ST-DEVELOPER v20.1',
/* originating_system */ 'Autodesk Translation Framework v14.24.0.0',
/* authorisation */ '');

FILE_SCHEMA (('AUTOMOTIVE_DESIGN { 1 0 10303 214 3 1 1 }'));
ENDSEC;

DATA;
#10=MECHANICAL_DESIGN_GEOMETRIC_PRESENTATION_REPRESENTATION('',(#13),#1571);
#11=SHAPE_REPRESENTATION_RELATIONSHIP('SRR','None',#1578,#12);
#12=ADVANCED_BREP_SHAPE_REPRESENTATION('',(#14),#1570);
#13=STYLED_ITEM('',(#1587),#14);
#14=MANIFOLD_SOLID_BREP('\X2\30DC30C730A3\X0\1',#955);
#15=FACE_BOUND('',#139,.T.);
#16=PLANE('',#1001);
#17=PLANE('',#1002);
#18=PLANE('',#1003);
#19=PLANE('',#1004);
#20=PLANE('',#1005);
#21=PLANE('',#1006);
#22=PLANE('',#1007);
#23=PLANE('',#1008);
#24=PLANE('',#1009);
#25=PLANE('',#1010);
#26=PLANE('',#1011);
#27=PLANE('',#1012);
#28=PLANE('',#1013);
#29=PLANE('',#1014);
#30=PLANE('',#1015);
#31=PLANE('',#1016);
#32=PLANE('',#1017);
#33=PLANE('',#1018);
#34=PLANE('',#1019);
#35=PLANE('',#1020);
#36=PLANE('',#1021);
#37=PLANE('',#1022);
#38=PLANE('',#1023);
#39=PLANE('',#1024);
#40=PLANE('',#1025);
#41=PLANE('',#1026);
#42=PLANE('',#1027);
#43=PLANE('',#1028);
#44=PLANE('',#1029);
#45=PLANE('',#1030);
#46=PLANE('',#1031);
#47=PLANE('',#1032);
#48=PLANE('',#1033);
#49=PLANE('',#1034);
#50=PLANE('',#1035);
#51=PLANE('',#1036);
#52=PLANE('',#1037);
#53=PLANE('',#1038);
#54=PLANE('',#1039);
#55=PLANE('',#1040);
#56=PLANE('',#1041);
#57=FACE_OUTER_BOUND('',#114,.T.);
#58=FACE_OUTER_BOUND('',#115,.T.);
#59=FACE_OUTER_BOUND('',#116,.T.);
#60=FACE_OUTER_BOUND('',#117,.T.);
#61=FACE_OUTER_BOUND('',#118,.T.);
#62=FACE_OUTER_BOUND('',#119,.T.);
#63=FACE_OUTER_BOUND('',#120,.T.);
#64=FACE_OUTER_BOUND('',#121,.T.);
#65=FACE_OUTER_BOUND('',#122,.T.);
#66=FACE_OUTER_BOUND('',#123,.T.);
#67=FACE_OUTER_BOUND('',#124,.T.);
#68=FACE_OUTER_BOUND('',#125,.T.);
#69=FACE_OUTER_BOUND('',#126,.T.);
#70=FACE_OUTER_BOUND('',#127,.T.);
#71=FACE_OUTER_BOUND('',#128,.T.);
#72=FACE_OUTER_BOUND('',#129,.T.);
#73=FACE_OUTER_BOUND('',#130,.T.);
#74=FACE_OUTER_BOUND('',#131,.T.);
#75=FACE_OUTER_BOUND('',#132,.T.);
#76=FACE_OUTER_BOUND('',#133,.T.);
#77=FACE_OUTER_BOUND('',#134,.T.);
#78=FACE_OUTER_BOUND('',#135,.T.);
#79=FACE_OUTER_BOUND('',#136,.T.);
#80=FACE_OUTER_BOUND('',#137,.T.);
#81=FACE_OUTER_BOUND('',#138,.T.);
#82=FACE_OUTER_BOUND('',#140,.T.);
#83=FACE_OUTER_BOUND('',#141,.T.);
#84=FACE_OUTER_BOUND('',#142,.T.);
#85=FACE_OUTER_BOUND('',#143,.T.);
#86=FACE_OUTER_BOUND('',#144,.T.);
#87=FACE_OUTER_BOUND('',#145,.T.);
#88=FACE_OUTER_BOUND('',#146,.T.);
#89=FACE_OUTER_BOUND('',#147,.T.);
#90=FACE_OUTER_BOUND('',#148,.T.);
#91=FACE_OUTER_BOUND('',#149,.T.);
#92=FACE_OUTER_BOUND('',#150,.T.);
#93=FACE_OUTER_BOUND('',#151,.T.);
#94=FACE_OUTER_BOUND('',#152,.T.);
#95=FACE_OUTER_BOUND('',#153,.T.);
#96=FACE_OUTER_BOUND('',#154,.T.);
#97=FACE_OUTER_BOUND('',#155,.T.);
#98=FACE_OUTER_BOUND('',#156,.T.);
#99=FACE_OUTER_BOUND('',#157,.T.);
#100=FACE_OUTER_BOUND('',#158,.T.);
#101=FACE_OUTER_BOUND('',#159,.T.);
#102=FACE_OUTER_BOUND('',#160,.T.);
#103=FACE_OUTER_BOUND('',#161,.T.);
#104=FACE_OUTER_BOUND('',#162,.T.);
#105=FACE_OUTER_BOUND('',#163,.T.);
#106=FACE_OUTER_BOUND('',#164,.T.);
#107=FACE_OUTER_BOUND('',#165,.T.);
#108=FACE_OUTER_BOUND('',#166,.T.);
#109=FACE_OUTER_BOUND('',#167,.T.);
#110=FACE_OUTER_BOUND('',#168,.T.);
#111=FACE_OUTER_BOUND('',#169,.T.);
#112=FACE_OUTER_BOUND('',#170,.T.);
#113=FACE_OUTER_BOUND('',#171,.T.);
#114=EDGE_LOOP('',(#622,#623,#624,#625));
#115=EDGE_LOOP('',(#626,#627,#628,#629));
#116=EDGE_LOOP('',(#630,#631,#632,#633));
#117=EDGE_LOOP('',(#634,#635,#636,#637));
#118=EDGE_LOOP('',(#638,#639,#640,#641));
#119=EDGE_LOOP('',(#642,#643,#644,#645));
#120=EDGE_LOOP('',(#646,#647,#648,#649));
#121=EDGE_LOOP('',(#650,#651,#652,#653));
#122=EDGE_LOOP('',(#654,#655,#656,#657));
#123=EDGE_LOOP('',(#658,#659,#660,#661));
#124=EDGE_LOOP('',(#662,#663,#664,#665));
#125=EDGE_LOOP('',(#666,#667,#668,#669));
#126=EDGE_LOOP('',(#670,#671,#672,#673));
#127=EDGE_LOOP('',(#674,#675,#676,#677));
#128=EDGE_LOOP('',(#678,#679,#680,#681));
#129=EDGE_LOOP('',(#682,#683,#684,#685));
#130=EDGE_LOOP('',(#686,#687,#688,#689));
#131=EDGE_LOOP('',(#690,#691,#692,#693));
#132=EDGE_LOOP('',(#694,#695,#696,#697));
#133=EDGE_LOOP('',(#698,#699,#700,#701));
#134=EDGE_LOOP('',(#702,#703,#704,#705));
#135=EDGE_LOOP('',(#706,#707,#708,#709));
#136=EDGE_LOOP('',(#710,#711,#712,#713));
#137=EDGE_LOOP('',(#714,#715,#716,#717));
#138=EDGE_LOOP('',(#718,#719,#720,#721));
#139=EDGE_LOOP('',(#722,#723,#724,#725,#726,#727,#728,#729,#730,#731,#732,
#733,#734,#735,#736,#737));
#140=EDGE_LOOP('',(#738,#739,#740,#741));
#141=EDGE_LOOP('',(#742,#743,#744,#745));
#142=EDGE_LOOP('',(#746,#747,#748,#749));
#143=EDGE_LOOP('',(#750,#751,#752,#753));
#144=EDGE_LOOP('',(#754,#755,#756,#757));
#145=EDGE_LOOP('',(#758,#759,#760,#761));
#146=EDGE_LOOP('',(#762,#763,#764,#765));
#147=EDGE_LOOP('',(#766,#767,#768,#769));
#148=EDGE_LOOP('',(#770,#771,#772,#773));
#149=EDGE_LOOP('',(#774,#775,#776,#777));
#150=EDGE_LOOP('',(#778,#779,#780,#781));
#151=EDGE_LOOP('',(#782,#783,#784,#785));
#152=EDGE_LOOP('',(#786,#787,#788,#789));
#153=EDGE_LOOP('',(#790,#791,#792,#793));
#154=EDGE_LOOP('',(#794,#795,#796,#797));
#155=EDGE_LOOP('',(#798,#799,#800,#801));
#156=EDGE_LOOP('',(#802,#803,#804,#805,#806,#807,#808,#809,#810,#811,#812,
#813,#814,#815,#816,#817));
#157=EDGE_LOOP('',(#818,#819,#820,#821));
#158=EDGE_LOOP('',(#822,#823,#824,#825));
#159=EDGE_LOOP('',(#826,#827,#828,#829));
#160=EDGE_LOOP('',(#830,#831,#832,#833));
#161=EDGE_LOOP('',(#834,#835,#836,#837));
#162=EDGE_LOOP('',(#838,#839,#840,#841));
#163=EDGE_LOOP('',(#842,#843,#844,#845));
#164=EDGE_LOOP('',(#846,#847,#848,#849));
#165=EDGE_LOOP('',(#850,#851,#852,#853,#854,#855));
#166=EDGE_LOOP('',(#856,#857,#858,#859));
#167=EDGE_LOOP('',(#860,#861,#862,#863));
#168=EDGE_LOOP('',(#864,#865,#866,#867));
#169=EDGE_LOOP('',(#868,#869,#870,#871,#872,#873));
#170=EDGE_LOOP('',(#874,#875,#876,#877));
#171=EDGE_LOOP('',(#878,#879,#880,#881));
#172=ELLIPSE('',#970,0.407836463283327,0.4);
#173=ELLIPSE('',#971,0.407836463283328,0.4);
#174=ELLIPSE('',#973,0.407836463283327,0.4);
#175=ELLIPSE('',#975,0.407836463283328,0.4);
#176=ELLIPSE('',#976,0.407836463283328,0.4);
#177=ELLIPSE('',#978,0.407836463283327,0.4);
#178=ELLIPSE('',#980,0.407836463283327,0.4);
#179=ELLIPSE('',#982,0.407836463283327,0.4);
#180=ELLIPSE('',#984,0.407836463283328,0.4);
#181=ELLIPSE('',#986,0.407836463283327,0.4);
#182=ELLIPSE('',#988,0.407836463283328,0.4);
#183=ELLIPSE('',#990,0.407836463283327,0.4);
#184=ELLIPSE('',#992,0.407836463283327,0.4);
#185=ELLIPSE('',#995,0.407836463283327,0.4);
#186=ELLIPSE('',#997,0.407836463283327,0.4);
#187=ELLIPSE('',#999,0.407836463283327,0.4);
#188=LINE('',#1308,#302);
#189=LINE('',#1312,#303);
#190=LINE('',#1316,#304);
#191=LINE('',#1319,#305);
#192=LINE('',#1323,#306);
#193=LINE('',#1327,#307);
#194=LINE('',#1331,#308);
#195=LINE('',#1334,#309);
#196=LINE('',#1337,#310);
#197=LINE('',#1340,#311);
#198=LINE('',#1343,#312);
#199=LINE('',#1346,#313);
#200=LINE('',#1349,#314);
#201=LINE('',#1351,#315);
#202=LINE('',#1355,#316);
#203=LINE('',#1357,#317);
#204=LINE('',#1361,#318);
#205=LINE('',#1363,#319);
#206=LINE('',#1367,#320);
#207=LINE('',#1369,#321);
#208=LINE('',#1373,#322);
#209=LINE('',#1375,#323);
#210=LINE('',#1378,#324);
#211=LINE('',#1379,#325);
#212=LINE('',#1382,#326);
#213=LINE('',#1384,#327);
#214=LINE('',#1388,#328);
#215=LINE('',#1390,#329);
#216=LINE('',#1394,#330);
#217=LINE('',#1396,#331);
#218=LINE('',#1399,#332);
#219=LINE('',#1400,#333);
#220=LINE('',#1403,#334);
#221=LINE('',#1405,#335);
#222=LINE('',#1406,#336);
#223=LINE('',#1409,#337);
#224=LINE('',#1410,#338);
#225=LINE('',#1413,#339);
#226=LINE('',#1414,#340);
#227=LINE('',#1417,#341);
#228=LINE('',#1418,#342);
#229=LINE('',#1421,#343);
#230=LINE('',#1422,#344);
#231=LINE('',#1425,#345);
#232=LINE('',#1426,#346);
#233=LINE('',#1429,#347);
#234=LINE('',#1430,#348);
#235=LINE('',#1433,#349);
#236=LINE('',#1434,#350);
#237=LINE('',#1438,#351);
#238=LINE('',#1440,#352);
#239=LINE('',#1442,#353);
#240=LINE('',#1443,#354);
#241=LINE('',#1447,#355);
#242=LINE('',#1448,#356);
#243=LINE('',#1449,#357);
#244=LINE('',#1452,#358);
#245=LINE('',#1454,#359);
#246=LINE('',#1455,#360);
#247=LINE('',#1458,#361);
#248=LINE('',#1460,#362);
#249=LINE('',#1461,#363);
#250=LINE('',#1464,#364);
#251=LINE('',#1466,#365);
#252=LINE('',#1467,#366);
#253=LINE('',#1470,#367);
#254=LINE('',#1472,#368);
#255=LINE('',#1473,#369);
#256=LINE('',#1476,#370);
#257=LINE('',#1478,#371);
#258=LINE('',#1479,#372);
#259=LINE('',#1482,#373);
#260=LINE('',#1484,#374);
#261=LINE('',#1485,#375);
#262=LINE('',#1488,#376);
#263=LINE('',#1490,#377);
#264=LINE('',#1491,#378);
#265=LINE('',#1494,#379);
#266=LINE('',#1495,#380);
#267=LINE('',#1496,#381);
#268=LINE('',#1499,#382);
#269=LINE('',#1500,#383);
#270=LINE('',#1503,#384);
#271=LINE('',#1504,#385);
#272=LINE('',#1507,#386);
#273=LINE('',#1508,#387);
#274=LINE('',#1511,#388);
#275=LINE('',#1512,#389);
#276=LINE('',#1515,#390);
#277=LINE('',#1516,#391);
#278=LINE('',#1519,#392);
#279=LINE('',#1520,#393);
#280=LINE('',#1522,#394);
#281=LINE('',#1525,#395);
#282=LINE('',#1527,#396);
#283=LINE('',#1529,#397);
#284=LINE('',#1531,#398);
#285=LINE('',#1533,#399);
#286=LINE('',#1535,#400);
#287=LINE('',#1537,#401);
#288=LINE('',#1542,#402);
#289=LINE('',#1544,#403);
#290=LINE('',#1545,#404);
#291=LINE('',#1547,#405);
#292=LINE('',#1548,#406);
#293=LINE('',#1551,#407);
#294=LINE('',#1552,#408);
#295=LINE('',#1555,#409);
#296=LINE('',#1556,#410);
#297=LINE('',#1559,#411);
#298=LINE('',#1560,#412);
#299=LINE('',#1563,#413);
#300=LINE('',#1564,#414);
#301=LINE('',#1566,#415);
#302=VECTOR('',#1046,10.);
#303=VECTOR('',#1049,10.);
#304=VECTOR('',#1054,10.);
#305=VECTOR('',#1057,10.);
#306=VECTOR('',#1060,10.);
#307=VECTOR('',#1063,10.);
#308=VECTOR('',#1068,10.);
#309=VECTOR('',#1071,10.);
#310=VECTOR('',#1074,10.);
#311=VECTOR('',#1077,10.);
#312=VECTOR('',#1080,10.);
#313=VECTOR('',#1083,10.);
#314=VECTOR('',#1086,10.);
#315=VECTOR('',#1087,10.);
#316=VECTOR('',#1092,10.);
#317=VECTOR('',#1093,10.);
#318=VECTOR('',#1098,10.);
#319=VECTOR('',#1099,10.);
#320=VECTOR('',#1104,10.);
#321=VECTOR('',#1105,10.);
#322=VECTOR('',#1110,10.);
#323=VECTOR('',#1111,10.);
#324=VECTOR('',#1116,10.);
#325=VECTOR('',#1117,10.);
#326=VECTOR('',#1120,10.);
#327=VECTOR('',#1121,10.);
#328=VECTOR('',#1126,10.);
#329=VECTOR('',#1127,10.);
#330=VECTOR('',#1132,10.);
#331=VECTOR('',#1133,10.);
#332=VECTOR('',#1138,10.);
#333=VECTOR('',#1139,10.);
#334=VECTOR('',#1142,10.);
#335=VECTOR('',#1143,10.);
#336=VECTOR('',#1144,10.);
#337=VECTOR('',#1147,10.);
#338=VECTOR('',#1148,10.);
#339=VECTOR('',#1151,10.);
#340=VECTOR('',#1152,10.);
#341=VECTOR('',#1155,10.);
#342=VECTOR('',#1156,10.);
#343=VECTOR('',#1159,10.);
#344=VECTOR('',#1160,10.);
#345=VECTOR('',#1163,10.);
#346=VECTOR('',#1164,10.);
#347=VECTOR('',#1167,10.);
#348=VECTOR('',#1168,10.);
#349=VECTOR('',#1171,10.);
#350=VECTOR('',#1172,10.);
#351=VECTOR('',#1175,10.);
#352=VECTOR('',#1176,10.);
#353=VECTOR('',#1177,10.);
#354=VECTOR('',#1178,10.);
#355=VECTOR('',#1181,10.);
#356=VECTOR('',#1182,10.);
#357=VECTOR('',#1183,10.);
#358=VECTOR('',#1186,10.);
#359=VECTOR('',#1187,10.);
#360=VECTOR('',#1188,10.);
#361=VECTOR('',#1191,10.);
#362=VECTOR('',#1192,10.);
#363=VECTOR('',#1193,10.);
#364=VECTOR('',#1196,10.);
#365=VECTOR('',#1197,10.);
#366=VECTOR('',#1198,10.);
#367=VECTOR('',#1201,10.);
#368=VECTOR('',#1202,10.);
#369=VECTOR('',#1203,10.);
#370=VECTOR('',#1206,10.);
#371=VECTOR('',#1207,10.);
#372=VECTOR('',#1208,10.);
#373=VECTOR('',#1211,10.);
#374=VECTOR('',#1212,10.);
#375=VECTOR('',#1213,10.);
#376=VECTOR('',#1216,10.);
#377=VECTOR('',#1217,10.);
#378=VECTOR('',#1218,10.);
#379=VECTOR('',#1221,10.);
#380=VECTOR('',#1222,10.);
#381=VECTOR('',#1223,10.);
#382=VECTOR('',#1226,10.);
#383=VECTOR('',#1227,10.);
#384=VECTOR('',#1230,10.);
#385=VECTOR('',#1231,10.);
#386=VECTOR('',#1234,10.);
#387=VECTOR('',#1235,10.);
#388=VECTOR('',#1238,10.);
#389=VECTOR('',#1239,10.);
#390=VECTOR('',#1242,10.);
#391=VECTOR('',#1243,10.);
#392=VECTOR('',#1246,10.);
#393=VECTOR('',#1247,10.);
#394=VECTOR('',#1250,10.);
#395=VECTOR('',#1255,10.);
#396=VECTOR('',#1258,10.);
#397=VECTOR('',#1261,10.);
#398=VECTOR('',#1264,10.);
#399=VECTOR('',#1267,10.);
#400=VECTOR('',#1270,10.);
#401=VECTOR('',#1273,10.);
#402=VECTOR('',#1278,10.);
#403=VECTOR('',#1279,10.);
#404=VECTOR('',#1280,10.);
#405=VECTOR('',#1281,10.);
#406=VECTOR('',#1282,10.);
#407=VECTOR('',#1285,10.);
#408=VECTOR('',#1286,10.);
#409=VECTOR('',#1289,10.);
#410=VECTOR('',#1290,10.);
#411=VECTOR('',#1293,10.);
#412=VECTOR('',#1294,10.);
#413=VECTOR('',#1297,10.);
#414=VECTOR('',#1298,10.);
#415=VECTOR('',#1301,10.);
#416=VERTEX_POINT('',#1306);
#417=VERTEX_POINT('',#1307);
#418=VERTEX_POINT('',#1309);
#419=VERTEX_POINT('',#1311);
#420=VERTEX_POINT('',#1315);
#421=VERTEX_POINT('',#1317);
#422=VERTEX_POINT('',#1321);
#423=VERTEX_POINT('',#1322);
#424=VERTEX_POINT('',#1324);
#425=VERTEX_POINT('',#1326);
#426=VERTEX_POINT('',#1330);
#427=VERTEX_POINT('',#1332);
#428=VERTEX_POINT('',#1336);
#429=VERTEX_POINT('',#1338);
#430=VERTEX_POINT('',#1342);
#431=VERTEX_POINT('',#1344);
#432=VERTEX_POINT('',#1348);
#433=VERTEX_POINT('',#1350);
#434=VERTEX_POINT('',#1354);
#435=VERTEX_POINT('',#1356);
#436=VERTEX_POINT('',#1360);
#437=VERTEX_POINT('',#1362);
#438=VERTEX_POINT('',#1366);
#439=VERTEX_POINT('',#1368);
#440=VERTEX_POINT('',#1372);
#441=VERTEX_POINT('',#1374);
#442=VERTEX_POINT('',#1381);
#443=VERTEX_POINT('',#1383);
#444=VERTEX_POINT('',#1387);
#445=VERTEX_POINT('',#1389);
#446=VERTEX_POINT('',#1393);
#447=VERTEX_POINT('',#1395);
#448=VERTEX_POINT('',#1402);
#449=VERTEX_POINT('',#1404);
#450=VERTEX_POINT('',#1408);
#451=VERTEX_POINT('',#1412);
#452=VERTEX_POINT('',#1416);
#453=VERTEX_POINT('',#1420);
#454=VERTEX_POINT('',#1424);
#455=VERTEX_POINT('',#1428);
#456=VERTEX_POINT('',#1432);
#457=VERTEX_POINT('',#1436);
#458=VERTEX_POINT('',#1437);
#459=VERTEX_POINT('',#1439);
#460=VERTEX_POINT('',#1441);
#461=VERTEX_POINT('',#1445);
#462=VERTEX_POINT('',#1446);
#463=VERTEX_POINT('',#1451);
#464=VERTEX_POINT('',#1453);
#465=VERTEX_POINT('',#1457);
#466=VERTEX_POINT('',#1459);
#467=VERTEX_POINT('',#1463);
#468=VERTEX_POINT('',#1465);
#469=VERTEX_POINT('',#1469);
#470=VERTEX_POINT('',#1471);
#471=VERTEX_POINT('',#1475);
#472=VERTEX_POINT('',#1477);
#473=VERTEX_POINT('',#1481);
#474=VERTEX_POINT('',#1483);
#475=VERTEX_POINT('',#1487);
#476=VERTEX_POINT('',#1489);
#477=VERTEX_POINT('',#1493);
#478=VERTEX_POINT('',#1498);
#479=VERTEX_POINT('',#1502);
#480=VERTEX_POINT('',#1506);
#481=VERTEX_POINT('',#1510);
#482=VERTEX_POINT('',#1514);
#483=VERTEX_POINT('',#1518);
#484=VERTEX_POINT('',#1540);
#485=VERTEX_POINT('',#1541);
#486=VERTEX_POINT('',#1543);
#487=VERTEX_POINT('',#1546);
#488=VERTEX_POINT('',#1550);
#489=VERTEX_POINT('',#1554);
#490=VERTEX_POINT('',#1558);
#491=VERTEX_POINT('',#1562);
#492=EDGE_CURVE('',#416,#417,#188,.T.);
#493=EDGE_CURVE('',#417,#418,#172,.T.);
#494=EDGE_CURVE('',#418,#419,#189,.T.);
#495=EDGE_CURVE('',#416,#419,#173,.T.);
#496=EDGE_CURVE('',#417,#420,#190,.T.);
#497=EDGE_CURVE('',#420,#421,#174,.T.);
#498=EDGE_CURVE('',#421,#418,#191,.T.);
#499=EDGE_CURVE('',#422,#423,#192,.T.);
#500=EDGE_CURVE('',#423,#424,#175,.T.);
#501=EDGE_CURVE('',#424,#425,#193,.T.);
#502=EDGE_CURVE('',#425,#422,#176,.T.);
#503=EDGE_CURVE('',#423,#426,#194,.T.);
#504=EDGE_CURVE('',#426,#427,#177,.T.);
#505=EDGE_CURVE('',#427,#424,#195,.T.);
#506=EDGE_CURVE('',#426,#428,#196,.T.);
#507=EDGE_CURVE('',#428,#429,#178,.T.);
#508=EDGE_CURVE('',#429,#427,#197,.T.);
#509=EDGE_CURVE('',#428,#430,#198,.T.);
#510=EDGE_CURVE('',#430,#431,#179,.T.);
#511=EDGE_CURVE('',#431,#429,#199,.T.);
#512=EDGE_CURVE('',#432,#431,#200,.T.);
#513=EDGE_CURVE('',#430,#433,#201,.T.);
#514=EDGE_CURVE('',#433,#432,#180,.T.);
#515=EDGE_CURVE('',#434,#432,#202,.T.);
#516=EDGE_CURVE('',#433,#435,#203,.T.);
#517=EDGE_CURVE('',#435,#434,#181,.T.);
#518=EDGE_CURVE('',#436,#434,#204,.T.);
#519=EDGE_CURVE('',#435,#437,#205,.T.);
#520=EDGE_CURVE('',#437,#436,#182,.T.);
#521=EDGE_CURVE('',#438,#436,#206,.T.);
#522=EDGE_CURVE('',#437,#439,#207,.T.);
#523=EDGE_CURVE('',#439,#438,#183,.T.);
#524=EDGE_CURVE('',#440,#438,#208,.T.);
#525=EDGE_CURVE('',#439,#441,#209,.T.);
#526=EDGE_CURVE('',#441,#440,#184,.T.);
#527=EDGE_CURVE('',#420,#422,#210,.T.);
#528=EDGE_CURVE('',#425,#421,#211,.T.);
#529=EDGE_CURVE('',#442,#440,#212,.T.);
#530=EDGE_CURVE('',#441,#443,#213,.T.);
#531=EDGE_CURVE('',#443,#442,#185,.T.);
#532=EDGE_CURVE('',#444,#442,#214,.T.);
#533=EDGE_CURVE('',#443,#445,#215,.T.);
#534=EDGE_CURVE('',#445,#444,#186,.T.);
#535=EDGE_CURVE('',#446,#444,#216,.T.);
#536=EDGE_CURVE('',#445,#447,#217,.T.);
#537=EDGE_CURVE('',#447,#446,#187,.T.);
#538=EDGE_CURVE('',#419,#446,#218,.T.);
#539=EDGE_CURVE('',#447,#416,#219,.T.);
#540=EDGE_CURVE('',#437,#448,#220,.T.);
#541=EDGE_CURVE('',#449,#448,#221,.T.);
#542=EDGE_CURVE('',#439,#449,#222,.T.);
#543=EDGE_CURVE('',#435,#450,#223,.T.);
#544=EDGE_CURVE('',#448,#450,#224,.T.);
#545=EDGE_CURVE('',#433,#451,#225,.T.);
#546=EDGE_CURVE('',#450,#451,#226,.T.);
#547=EDGE_CURVE('',#430,#452,#227,.T.);
#548=EDGE_CURVE('',#451,#452,#228,.T.);
#549=EDGE_CURVE('',#428,#453,#229,.T.);
#550=EDGE_CURVE('',#452,#453,#230,.T.);
#551=EDGE_CURVE('',#426,#454,#231,.T.);
#552=EDGE_CURVE('',#453,#454,#232,.T.);
#553=EDGE_CURVE('',#423,#455,#233,.T.);
#554=EDGE_CURVE('',#454,#455,#234,.T.);
#555=EDGE_CURVE('',#422,#456,#235,.T.);
#556=EDGE_CURVE('',#455,#456,#236,.T.);
#557=EDGE_CURVE('',#457,#458,#237,.T.);
#558=EDGE_CURVE('',#459,#458,#238,.T.);
#559=EDGE_CURVE('',#459,#460,#239,.T.);
#560=EDGE_CURVE('',#457,#460,#240,.T.);
#561=EDGE_CURVE('',#461,#462,#241,.T.);
#562=EDGE_CURVE('',#462,#449,#242,.T.);
#563=EDGE_CURVE('',#461,#448,#243,.T.);
#564=EDGE_CURVE('',#462,#463,#244,.T.);
#565=EDGE_CURVE('',#463,#464,#245,.T.);
#566=EDGE_CURVE('',#464,#449,#246,.T.);
#567=EDGE_CURVE('',#463,#465,#247,.T.);
#568=EDGE_CURVE('',#465,#466,#248,.T.);
#569=EDGE_CURVE('',#466,#464,#249,.T.);
#570=EDGE_CURVE('',#465,#467,#250,.T.);
#571=EDGE_CURVE('',#467,#468,#251,.T.);
#572=EDGE_CURVE('',#468,#466,#252,.T.);
#573=EDGE_CURVE('',#467,#469,#253,.T.);
#574=EDGE_CURVE('',#469,#470,#254,.T.);
#575=EDGE_CURVE('',#470,#468,#255,.T.);
#576=EDGE_CURVE('',#469,#471,#256,.T.);
#577=EDGE_CURVE('',#471,#472,#257,.T.);
#578=EDGE_CURVE('',#472,#470,#258,.T.);
#579=EDGE_CURVE('',#471,#473,#259,.T.);
#580=EDGE_CURVE('',#473,#474,#260,.T.);
#581=EDGE_CURVE('',#474,#472,#261,.T.);
#582=EDGE_CURVE('',#473,#475,#262,.T.);
#583=EDGE_CURVE('',#475,#476,#263,.T.);
#584=EDGE_CURVE('',#476,#474,#264,.T.);
#585=EDGE_CURVE('',#475,#477,#265,.T.);
#586=EDGE_CURVE('',#477,#456,#266,.T.);
#587=EDGE_CURVE('',#456,#476,#267,.T.);
#588=EDGE_CURVE('',#477,#478,#268,.T.);
#589=EDGE_CURVE('',#478,#455,#269,.T.);
#590=EDGE_CURVE('',#478,#479,#270,.T.);
#591=EDGE_CURVE('',#479,#454,#271,.T.);
#592=EDGE_CURVE('',#479,#480,#272,.T.);
#593=EDGE_CURVE('',#480,#453,#273,.T.);
#594=EDGE_CURVE('',#480,#481,#274,.T.);
#595=EDGE_CURVE('',#481,#452,#275,.T.);
#596=EDGE_CURVE('',#481,#482,#276,.T.);
#597=EDGE_CURVE('',#482,#451,#277,.T.);
#598=EDGE_CURVE('',#482,#483,#278,.T.);
#599=EDGE_CURVE('',#483,#450,#279,.T.);
#600=EDGE_CURVE('',#483,#461,#280,.T.);
#601=EDGE_CURVE('',#441,#464,#281,.T.);
#602=EDGE_CURVE('',#443,#466,#282,.T.);
#603=EDGE_CURVE('',#445,#468,#283,.T.);
#604=EDGE_CURVE('',#447,#470,#284,.T.);
#605=EDGE_CURVE('',#416,#472,#285,.T.);
#606=EDGE_CURVE('',#417,#474,#286,.T.);
#607=EDGE_CURVE('',#420,#476,#287,.T.);
#608=EDGE_CURVE('',#484,#485,#288,.T.);
#609=EDGE_CURVE('',#486,#484,#289,.T.);
#610=EDGE_CURVE('',#458,#486,#290,.T.);
#611=EDGE_CURVE('',#487,#457,#291,.T.);
#612=EDGE_CURVE('',#485,#487,#292,.T.);
#613=EDGE_CURVE('',#486,#488,#293,.T.);
#614=EDGE_CURVE('',#488,#459,#294,.T.);
#615=EDGE_CURVE('',#484,#489,#295,.T.);
#616=EDGE_CURVE('',#489,#488,#296,.T.);
#617=EDGE_CURVE('',#490,#485,#297,.T.);
#618=EDGE_CURVE('',#490,#489,#298,.T.);
#619=EDGE_CURVE('',#491,#490,#299,.T.);
#620=EDGE_CURVE('',#460,#491,#300,.T.);
#621=EDGE_CURVE('',#487,#491,#301,.T.);
#622=ORIENTED_EDGE('',*,*,#492,.T.);
#623=ORIENTED_EDGE('',*,*,#493,.T.);
#624=ORIENTED_EDGE('',*,*,#494,.T.);
#625=ORIENTED_EDGE('',*,*,#495,.F.);
#626=ORIENTED_EDGE('',*,*,#496,.T.);
#627=ORIENTED_EDGE('',*,*,#497,.T.);
#628=ORIENTED_EDGE('',*,*,#498,.T.);
#629=ORIENTED_EDGE('',*,*,#493,.F.);
#630=ORIENTED_EDGE('',*,*,#499,.T.);
#631=ORIENTED_EDGE('',*,*,#500,.T.);
#632=ORIENTED_EDGE('',*,*,#501,.T.);
#633=ORIENTED_EDGE('',*,*,#502,.T.);
#634=ORIENTED_EDGE('',*,*,#503,.T.);
#635=ORIENTED_EDGE('',*,*,#504,.T.);
#636=ORIENTED_EDGE('',*,*,#505,.T.);
#637=ORIENTED_EDGE('',*,*,#500,.F.);
#638=ORIENTED_EDGE('',*,*,#506,.T.);
#639=ORIENTED_EDGE('',*,*,#507,.T.);
#640=ORIENTED_EDGE('',*,*,#508,.T.);
#641=ORIENTED_EDGE('',*,*,#504,.F.);
#642=ORIENTED_EDGE('',*,*,#509,.T.);
#643=ORIENTED_EDGE('',*,*,#510,.T.);
#644=ORIENTED_EDGE('',*,*,#511,.T.);
#645=ORIENTED_EDGE('',*,*,#507,.F.);
#646=ORIENTED_EDGE('',*,*,#512,.T.);
#647=ORIENTED_EDGE('',*,*,#510,.F.);
#648=ORIENTED_EDGE('',*,*,#513,.T.);
#649=ORIENTED_EDGE('',*,*,#514,.T.);
#650=ORIENTED_EDGE('',*,*,#515,.T.);
#651=ORIENTED_EDGE('',*,*,#514,.F.);
#652=ORIENTED_EDGE('',*,*,#516,.T.);
#653=ORIENTED_EDGE('',*,*,#517,.T.);
#654=ORIENTED_EDGE('',*,*,#518,.T.);
#655=ORIENTED_EDGE('',*,*,#517,.F.);
#656=ORIENTED_EDGE('',*,*,#519,.T.);
#657=ORIENTED_EDGE('',*,*,#520,.T.);
#658=ORIENTED_EDGE('',*,*,#521,.T.);
#659=ORIENTED_EDGE('',*,*,#520,.F.);
#660=ORIENTED_EDGE('',*,*,#522,.T.);
#661=ORIENTED_EDGE('',*,*,#523,.T.);
#662=ORIENTED_EDGE('',*,*,#524,.T.);
#663=ORIENTED_EDGE('',*,*,#523,.F.);
#664=ORIENTED_EDGE('',*,*,#525,.T.);
#665=ORIENTED_EDGE('',*,*,#526,.T.);
#666=ORIENTED_EDGE('',*,*,#527,.T.);
#667=ORIENTED_EDGE('',*,*,#502,.F.);
#668=ORIENTED_EDGE('',*,*,#528,.T.);
#669=ORIENTED_EDGE('',*,*,#497,.F.);
#670=ORIENTED_EDGE('',*,*,#529,.T.);
#671=ORIENTED_EDGE('',*,*,#526,.F.);
#672=ORIENTED_EDGE('',*,*,#530,.T.);
#673=ORIENTED_EDGE('',*,*,#531,.T.);
#674=ORIENTED_EDGE('',*,*,#532,.T.);
#675=ORIENTED_EDGE('',*,*,#531,.F.);
#676=ORIENTED_EDGE('',*,*,#533,.T.);
#677=ORIENTED_EDGE('',*,*,#534,.T.);
#678=ORIENTED_EDGE('',*,*,#535,.T.);
#679=ORIENTED_EDGE('',*,*,#534,.F.);
#680=ORIENTED_EDGE('',*,*,#536,.T.);
#681=ORIENTED_EDGE('',*,*,#537,.T.);
#682=ORIENTED_EDGE('',*,*,#538,.T.);
#683=ORIENTED_EDGE('',*,*,#537,.F.);
#684=ORIENTED_EDGE('',*,*,#539,.T.);
#685=ORIENTED_EDGE('',*,*,#495,.T.);
#686=ORIENTED_EDGE('',*,*,#522,.F.);
#687=ORIENTED_EDGE('',*,*,#540,.T.);
#688=ORIENTED_EDGE('',*,*,#541,.F.);
#689=ORIENTED_EDGE('',*,*,#542,.F.);
#690=ORIENTED_EDGE('',*,*,#519,.F.);
#691=ORIENTED_EDGE('',*,*,#543,.T.);
#692=ORIENTED_EDGE('',*,*,#544,.F.);
#693=ORIENTED_EDGE('',*,*,#540,.F.);
#694=ORIENTED_EDGE('',*,*,#516,.F.);
#695=ORIENTED_EDGE('',*,*,#545,.T.);
#696=ORIENTED_EDGE('',*,*,#546,.F.);
#697=ORIENTED_EDGE('',*,*,#543,.F.);
#698=ORIENTED_EDGE('',*,*,#513,.F.);
#699=ORIENTED_EDGE('',*,*,#547,.T.);
#700=ORIENTED_EDGE('',*,*,#548,.F.);
#701=ORIENTED_EDGE('',*,*,#545,.F.);
#702=ORIENTED_EDGE('',*,*,#509,.F.);
#703=ORIENTED_EDGE('',*,*,#549,.T.);
#704=ORIENTED_EDGE('',*,*,#550,.F.);
#705=ORIENTED_EDGE('',*,*,#547,.F.);
#706=ORIENTED_EDGE('',*,*,#506,.F.);
#707=ORIENTED_EDGE('',*,*,#551,.T.);
#708=ORIENTED_EDGE('',*,*,#552,.F.);
#709=ORIENTED_EDGE('',*,*,#549,.F.);
#710=ORIENTED_EDGE('',*,*,#503,.F.);
#711=ORIENTED_EDGE('',*,*,#553,.T.);
#712=ORIENTED_EDGE('',*,*,#554,.F.);
#713=ORIENTED_EDGE('',*,*,#551,.F.);
#714=ORIENTED_EDGE('',*,*,#499,.F.);
#715=ORIENTED_EDGE('',*,*,#555,.T.);
#716=ORIENTED_EDGE('',*,*,#556,.F.);
#717=ORIENTED_EDGE('',*,*,#553,.F.);
#718=ORIENTED_EDGE('',*,*,#557,.T.);
#719=ORIENTED_EDGE('',*,*,#558,.F.);
#720=ORIENTED_EDGE('',*,*,#559,.T.);
#721=ORIENTED_EDGE('',*,*,#560,.F.);
#722=ORIENTED_EDGE('',*,*,#501,.F.);
#723=ORIENTED_EDGE('',*,*,#505,.F.);
#724=ORIENTED_EDGE('',*,*,#508,.F.);
#725=ORIENTED_EDGE('',*,*,#511,.F.);
#726=ORIENTED_EDGE('',*,*,#512,.F.);
#727=ORIENTED_EDGE('',*,*,#515,.F.);
#728=ORIENTED_EDGE('',*,*,#518,.F.);
#729=ORIENTED_EDGE('',*,*,#521,.F.);
#730=ORIENTED_EDGE('',*,*,#524,.F.);
#731=ORIENTED_EDGE('',*,*,#529,.F.);
#732=ORIENTED_EDGE('',*,*,#532,.F.);
#733=ORIENTED_EDGE('',*,*,#535,.F.);
#734=ORIENTED_EDGE('',*,*,#538,.F.);
#735=ORIENTED_EDGE('',*,*,#494,.F.);
#736=ORIENTED_EDGE('',*,*,#498,.F.);
#737=ORIENTED_EDGE('',*,*,#528,.F.);
#738=ORIENTED_EDGE('',*,*,#561,.T.);
#739=ORIENTED_EDGE('',*,*,#562,.T.);
#740=ORIENTED_EDGE('',*,*,#541,.T.);
#741=ORIENTED_EDGE('',*,*,#563,.F.);
#742=ORIENTED_EDGE('',*,*,#564,.T.);
#743=ORIENTED_EDGE('',*,*,#565,.T.);
#744=ORIENTED_EDGE('',*,*,#566,.T.);
#745=ORIENTED_EDGE('',*,*,#562,.F.);
#746=ORIENTED_EDGE('',*,*,#567,.T.);
#747=ORIENTED_EDGE('',*,*,#568,.T.);
#748=ORIENTED_EDGE('',*,*,#569,.T.);
#749=ORIENTED_EDGE('',*,*,#565,.F.);
#750=ORIENTED_EDGE('',*,*,#570,.T.);
#751=ORIENTED_EDGE('',*,*,#571,.T.);
#752=ORIENTED_EDGE('',*,*,#572,.T.);
#753=ORIENTED_EDGE('',*,*,#568,.F.);
#754=ORIENTED_EDGE('',*,*,#573,.T.);
#755=ORIENTED_EDGE('',*,*,#574,.T.);
#756=ORIENTED_EDGE('',*,*,#575,.T.);
#757=ORIENTED_EDGE('',*,*,#571,.F.);
#758=ORIENTED_EDGE('',*,*,#576,.T.);
#759=ORIENTED_EDGE('',*,*,#577,.T.);
#760=ORIENTED_EDGE('',*,*,#578,.T.);
#761=ORIENTED_EDGE('',*,*,#574,.F.);
#762=ORIENTED_EDGE('',*,*,#579,.T.);
#763=ORIENTED_EDGE('',*,*,#580,.T.);
#764=ORIENTED_EDGE('',*,*,#581,.T.);
#765=ORIENTED_EDGE('',*,*,#577,.F.);
#766=ORIENTED_EDGE('',*,*,#582,.T.);
#767=ORIENTED_EDGE('',*,*,#583,.T.);
#768=ORIENTED_EDGE('',*,*,#584,.T.);
#769=ORIENTED_EDGE('',*,*,#580,.F.);
#770=ORIENTED_EDGE('',*,*,#585,.T.);
#771=ORIENTED_EDGE('',*,*,#586,.T.);
#772=ORIENTED_EDGE('',*,*,#587,.T.);
#773=ORIENTED_EDGE('',*,*,#583,.F.);
#774=ORIENTED_EDGE('',*,*,#556,.T.);
#775=ORIENTED_EDGE('',*,*,#586,.F.);
#776=ORIENTED_EDGE('',*,*,#588,.T.);
#777=ORIENTED_EDGE('',*,*,#589,.T.);
#778=ORIENTED_EDGE('',*,*,#554,.T.);
#779=ORIENTED_EDGE('',*,*,#589,.F.);
#780=ORIENTED_EDGE('',*,*,#590,.T.);
#781=ORIENTED_EDGE('',*,*,#591,.T.);
#782=ORIENTED_EDGE('',*,*,#552,.T.);
#783=ORIENTED_EDGE('',*,*,#591,.F.);
#784=ORIENTED_EDGE('',*,*,#592,.T.);
#785=ORIENTED_EDGE('',*,*,#593,.T.);
#786=ORIENTED_EDGE('',*,*,#550,.T.);
#787=ORIENTED_EDGE('',*,*,#593,.F.);
#788=ORIENTED_EDGE('',*,*,#594,.T.);
#789=ORIENTED_EDGE('',*,*,#595,.T.);
#790=ORIENTED_EDGE('',*,*,#548,.T.);
#791=ORIENTED_EDGE('',*,*,#595,.F.);
#792=ORIENTED_EDGE('',*,*,#596,.T.);
#793=ORIENTED_EDGE('',*,*,#597,.T.);
#794=ORIENTED_EDGE('',*,*,#546,.T.);
#795=ORIENTED_EDGE('',*,*,#597,.F.);
#796=ORIENTED_EDGE('',*,*,#598,.T.);
#797=ORIENTED_EDGE('',*,*,#599,.T.);
#798=ORIENTED_EDGE('',*,*,#544,.T.);
#799=ORIENTED_EDGE('',*,*,#599,.F.);
#800=ORIENTED_EDGE('',*,*,#600,.T.);
#801=ORIENTED_EDGE('',*,*,#563,.T.);
#802=ORIENTED_EDGE('',*,*,#561,.F.);
#803=ORIENTED_EDGE('',*,*,#600,.F.);
#804=ORIENTED_EDGE('',*,*,#598,.F.);
#805=ORIENTED_EDGE('',*,*,#596,.F.);
#806=ORIENTED_EDGE('',*,*,#594,.F.);
#807=ORIENTED_EDGE('',*,*,#592,.F.);
#808=ORIENTED_EDGE('',*,*,#590,.F.);
#809=ORIENTED_EDGE('',*,*,#588,.F.);
#810=ORIENTED_EDGE('',*,*,#585,.F.);
#811=ORIENTED_EDGE('',*,*,#582,.F.);
#812=ORIENTED_EDGE('',*,*,#579,.F.);
#813=ORIENTED_EDGE('',*,*,#576,.F.);
#814=ORIENTED_EDGE('',*,*,#573,.F.);
#815=ORIENTED_EDGE('',*,*,#570,.F.);
#816=ORIENTED_EDGE('',*,*,#567,.F.);
#817=ORIENTED_EDGE('',*,*,#564,.F.);
#818=ORIENTED_EDGE('',*,*,#525,.F.);
#819=ORIENTED_EDGE('',*,*,#542,.T.);
#820=ORIENTED_EDGE('',*,*,#566,.F.);
#821=ORIENTED_EDGE('',*,*,#601,.F.);
#822=ORIENTED_EDGE('',*,*,#530,.F.);
#823=ORIENTED_EDGE('',*,*,#601,.T.);
#824=ORIENTED_EDGE('',*,*,#569,.F.);
#825=ORIENTED_EDGE('',*,*,#602,.F.);
#826=ORIENTED_EDGE('',*,*,#533,.F.);
#827=ORIENTED_EDGE('',*,*,#602,.T.);
#828=ORIENTED_EDGE('',*,*,#572,.F.);
#829=ORIENTED_EDGE('',*,*,#603,.F.);
#830=ORIENTED_EDGE('',*,*,#536,.F.);
#831=ORIENTED_EDGE('',*,*,#603,.T.);
#832=ORIENTED_EDGE('',*,*,#575,.F.);
#833=ORIENTED_EDGE('',*,*,#604,.F.);
#834=ORIENTED_EDGE('',*,*,#539,.F.);
#835=ORIENTED_EDGE('',*,*,#604,.T.);
#836=ORIENTED_EDGE('',*,*,#578,.F.);
#837=ORIENTED_EDGE('',*,*,#605,.F.);
#838=ORIENTED_EDGE('',*,*,#492,.F.);
#839=ORIENTED_EDGE('',*,*,#605,.T.);
#840=ORIENTED_EDGE('',*,*,#581,.F.);
#841=ORIENTED_EDGE('',*,*,#606,.F.);
#842=ORIENTED_EDGE('',*,*,#496,.F.);
#843=ORIENTED_EDGE('',*,*,#606,.T.);
#844=ORIENTED_EDGE('',*,*,#584,.F.);
#845=ORIENTED_EDGE('',*,*,#607,.F.);
#846=ORIENTED_EDGE('',*,*,#527,.F.);
#847=ORIENTED_EDGE('',*,*,#607,.T.);
#848=ORIENTED_EDGE('',*,*,#587,.F.);
#849=ORIENTED_EDGE('',*,*,#555,.F.);
#850=ORIENTED_EDGE('',*,*,#608,.F.);
#851=ORIENTED_EDGE('',*,*,#609,.F.);
#852=ORIENTED_EDGE('',*,*,#610,.F.);
#853=ORIENTED_EDGE('',*,*,#557,.F.);
#854=ORIENTED_EDGE('',*,*,#611,.F.);
#855=ORIENTED_EDGE('',*,*,#612,.F.);
#856=ORIENTED_EDGE('',*,*,#610,.T.);
#857=ORIENTED_EDGE('',*,*,#613,.T.);
#858=ORIENTED_EDGE('',*,*,#614,.T.);
#859=ORIENTED_EDGE('',*,*,#558,.T.);
#860=ORIENTED_EDGE('',*,*,#609,.T.);
#861=ORIENTED_EDGE('',*,*,#615,.T.);
#862=ORIENTED_EDGE('',*,*,#616,.T.);
#863=ORIENTED_EDGE('',*,*,#613,.F.);
#864=ORIENTED_EDGE('',*,*,#608,.T.);
#865=ORIENTED_EDGE('',*,*,#617,.F.);
#866=ORIENTED_EDGE('',*,*,#618,.T.);
#867=ORIENTED_EDGE('',*,*,#615,.F.);
#868=ORIENTED_EDGE('',*,*,#618,.F.);
#869=ORIENTED_EDGE('',*,*,#619,.F.);
#870=ORIENTED_EDGE('',*,*,#620,.F.);
#871=ORIENTED_EDGE('',*,*,#559,.F.);
#872=ORIENTED_EDGE('',*,*,#614,.F.);
#873=ORIENTED_EDGE('',*,*,#616,.F.);
#874=ORIENTED_EDGE('',*,*,#611,.T.);
#875=ORIENTED_EDGE('',*,*,#560,.T.);
#876=ORIENTED_EDGE('',*,*,#620,.T.);
#877=ORIENTED_EDGE('',*,*,#621,.F.);
#878=ORIENTED_EDGE('',*,*,#612,.T.);
#879=ORIENTED_EDGE('',*,*,#621,.T.);
#880=ORIENTED_EDGE('',*,*,#619,.T.);
#881=ORIENTED_EDGE('',*,*,#617,.T.);
#882=CYLINDRICAL_SURFACE('',#969,0.4);
#883=CYLINDRICAL_SURFACE('',#972,0.4);
#884=CYLINDRICAL_SURFACE('',#974,0.4);
#885=CYLINDRICAL_SURFACE('',#977,0.4);
#886=CYLINDRICAL_SURFACE('',#979,0.4);
#887=CYLINDRICAL_SURFACE('',#981,0.4);
#888=CYLINDRICAL_SURFACE('',#983,0.4);
#889=CYLINDRICAL_SURFACE('',#985,0.4);
#890=CYLINDRICAL_SURFACE('',#987,0.4);
#891=CYLINDRICAL_SURFACE('',#989,0.4);
#892=CYLINDRICAL_SURFACE('',#991,0.4);
#893=CYLINDRICAL_SURFACE('',#993,0.4);
#894=CYLINDRICAL_SURFACE('',#994,0.4);
#895=CYLINDRICAL_SURFACE('',#996,0.4);
#896=CYLINDRICAL_SURFACE('',#998,0.4);
#897=CYLINDRICAL_SURFACE('',#1000,0.4);
#898=ADVANCED_FACE('',(#57),#882,.F.);
#899=ADVANCED_FACE('',(#58),#883,.F.);
#900=ADVANCED_FACE('',(#59),#884,.F.);
#901=ADVANCED_FACE('',(#60),#885,.F.);
#902=ADVANCED_FACE('',(#61),#886,.F.);
#903=ADVANCED_FACE('',(#62),#887,.F.);
#904=ADVANCED_FACE('',(#63),#888,.F.);
#905=ADVANCED_FACE('',(#64),#889,.F.);
#906=ADVANCED_FACE('',(#65),#890,.F.);
#907=ADVANCED_FACE('',(#66),#891,.F.);
#908=ADVANCED_FACE('',(#67),#892,.F.);
#909=ADVANCED_FACE('',(#68),#893,.F.);
#910=ADVANCED_FACE('',(#69),#894,.F.);
#911=ADVANCED_FACE('',(#70),#895,.F.);
#912=ADVANCED_FACE('',(#71),#896,.F.);
#913=ADVANCED_FACE('',(#72),#897,.F.);
#914=ADVANCED_FACE('',(#73),#16,.T.);
#915=ADVANCED_FACE('',(#74),#17,.T.);
#916=ADVANCED_FACE('',(#75),#18,.T.);
#917=ADVANCED_FACE('',(#76),#19,.T.);
#918=ADVANCED_FACE('',(#77),#20,.T.);
#919=ADVANCED_FACE('',(#78),#21,.T.);
#920=ADVANCED_FACE('',(#79),#22,.T.);
#921=ADVANCED_FACE('',(#80),#23,.T.);
#922=ADVANCED_FACE('',(#81,#15),#24,.F.);
#923=ADVANCED_FACE('',(#82),#25,.T.);
#924=ADVANCED_FACE('',(#83),#26,.T.);
#925=ADVANCED_FACE('',(#84),#27,.T.);
#926=ADVANCED_FACE('',(#85),#28,.T.);
#927=ADVANCED_FACE('',(#86),#29,.T.);
#928=ADVANCED_FACE('',(#87),#30,.T.);
#929=ADVANCED_FACE('',(#88),#31,.T.);
#930=ADVANCED_FACE('',(#89),#32,.T.);
#931=ADVANCED_FACE('',(#90),#33,.T.);
#932=ADVANCED_FACE('',(#91),#34,.T.);
#933=ADVANCED_FACE('',(#92),#35,.T.);
#934=ADVANCED_FACE('',(#93),#36,.T.);
#935=ADVANCED_FACE('',(#94),#37,.T.);
#936=ADVANCED_FACE('',(#95),#38,.T.);
#937=ADVANCED_FACE('',(#96),#39,.T.);
#938=ADVANCED_FACE('',(#97),#40,.T.);
#939=ADVANCED_FACE('',(#98),#41,.T.);
#940=ADVANCED_FACE('',(#99),#42,.T.);
#941=ADVANCED_FACE('',(#100),#43,.T.);
#942=ADVANCED_FACE('',(#101),#44,.T.);
#943=ADVANCED_FACE('',(#102),#45,.T.);
#944=ADVANCED_FACE('',(#103),#46,.T.);
#945=ADVANCED_FACE('',(#104),#47,.T.);
#946=ADVANCED_FACE('',(#105),#48,.T.);
#947=ADVANCED_FACE('',(#106),#49,.T.);
#948=ADVANCED_FACE('',(#107),#50,.F.);
#949=ADVANCED_FACE('',(#108),#51,.T.);
#950=ADVANCED_FACE('',(#109),#52,.T.);
#951=ADVANCED_FACE('',(#110),#53,.F.);
#952=ADVANCED_FACE('',(#111),#54,.F.);
#953=ADVANCED_FACE('',(#112),#55,.T.);
#954=ADVANCED_FACE('',(#113),#56,.T.);
#955=CLOSED_SHELL('',(#898,#899,#900,#901,#902,#903,#904,#905,#906,#907,
#908,#909,#910,#911,#912,#913,#914,#915,#916,#917,#918,#919,#920,#921,#922,
#923,#924,#925,#926,#927,#928,#929,#930,#931,#932,#933,#934,#935,#936,#937,
#938,#939,#940,#941,#942,#943,#944,#945,#946,#947,#948,#949,#950,#951,#952,
#953,#954));
#956=DERIVED_UNIT_ELEMENT(#958,1.);
#957=DERIVED_UNIT_ELEMENT(#1573,-3.);
#958=(
MASS_UNIT()
NAMED_UNIT(*)
SI_UNIT(.KILO.,.GRAM.)
);
#959=DERIVED_UNIT((#956,#957));
#960=MEASURE_REPRESENTATION_ITEM('density measure',
POSITIVE_RATIO_MEASURE(7850.),#959);
#961=PROPERTY_DEFINITION_REPRESENTATION(#966,#963);
#962=PROPERTY_DEFINITION_REPRESENTATION(#967,#964);
#963=REPRESENTATION('material name',(#965),#1570);
#964=REPRESENTATION('density',(#960),#1570);
#965=DESCRIPTIVE_REPRESENTATION_ITEM('\X2\92FC\X0\','\X2\92FC\X0\');
#966=PROPERTY_DEFINITION('material property','material name',#1580);
#967=PROPERTY_DEFINITION('material property','density of part',#1580);
#968=AXIS2_PLACEMENT_3D('',#1304,#1042,#1043);
#969=AXIS2_PLACEMENT_3D('',#1305,#1044,#1045);
#970=AXIS2_PLACEMENT_3D('',#1310,#1047,#1048);
#971=AXIS2_PLACEMENT_3D('',#1313,#1050,#1051);
#972=AXIS2_PLACEMENT_3D('',#1314,#1052,#1053);
#973=AXIS2_PLACEMENT_3D('',#1318,#1055,#1056);
#974=AXIS2_PLACEMENT_3D('',#1320,#1058,#1059);
#975=AXIS2_PLACEMENT_3D('',#1325,#1061,#1062);
#976=AXIS2_PLACEMENT_3D('',#1328,#1064,#1065);
#977=AXIS2_PLACEMENT_3D('',#1329,#1066,#1067);
#978=AXIS2_PLACEMENT_3D('',#1333,#1069,#1070);
#979=AXIS2_PLACEMENT_3D('',#1335,#1072,#1073);
#980=AXIS2_PLACEMENT_3D('',#1339,#1075,#1076);
#981=AXIS2_PLACEMENT_3D('',#1341,#1078,#1079);
#982=AXIS2_PLACEMENT_3D('',#1345,#1081,#1082);
#983=AXIS2_PLACEMENT_3D('',#1347,#1084,#1085);
#984=AXIS2_PLACEMENT_3D('',#1352,#1088,#1089);
#985=AXIS2_PLACEMENT_3D('',#1353,#1090,#1091);
#986=AXIS2_PLACEMENT_3D('',#1358,#1094,#1095);
#987=AXIS2_PLACEMENT_3D('',#1359,#1096,#1097);
#988=AXIS2_PLACEMENT_3D('',#1364,#1100,#1101);
#989=AXIS2_PLACEMENT_3D('',#1365,#1102,#1103);
#990=AXIS2_PLACEMENT_3D('',#1370,#1106,#1107);
#991=AXIS2_PLACEMENT_3D('',#1371,#1108,#1109);
#992=AXIS2_PLACEMENT_3D('',#1376,#1112,#1113);
#993=AXIS2_PLACEMENT_3D('',#1377,#1114,#1115);
#994=AXIS2_PLACEMENT_3D('',#1380,#1118,#1119);
#995=AXIS2_PLACEMENT_3D('',#1385,#1122,#1123);
#996=AXIS2_PLACEMENT_3D('',#1386,#1124,#1125);
#997=AXIS2_PLACEMENT_3D('',#1391,#1128,#1129);
#998=AXIS2_PLACEMENT_3D('',#1392,#1130,#1131);
#999=AXIS2_PLACEMENT_3D('',#1397,#1134,#1135);
#1000=AXIS2_PLACEMENT_3D('',#1398,#1136,#1137);
#1001=AXIS2_PLACEMENT_3D('',#1401,#1140,#1141);
#1002=AXIS2_PLACEMENT_3D('',#1407,#1145,#1146);
#1003=AXIS2_PLACEMENT_3D('',#1411,#1149,#1150);
#1004=AXIS2_PLACEMENT_3D('',#1415,#1153,#1154);
#1005=AXIS2_PLACEMENT_3D('',#1419,#1157,#1158);
#1006=AXIS2_PLACEMENT_3D('',#1423,#1161,#1162);
#1007=AXIS2_PLACEMENT_3D('',#1427,#1165,#1166);
#1008=AXIS2_PLACEMENT_3D('',#1431,#1169,#1170);
#1009=AXIS2_PLACEMENT_3D('',#1435,#1173,#1174);
#1010=AXIS2_PLACEMENT_3D('',#1444,#1179,#1180);
#1011=AXIS2_PLACEMENT_3D('',#1450,#1184,#1185);
#1012=AXIS2_PLACEMENT_3D('',#1456,#1189,#1190);
#1013=AXIS2_PLACEMENT_3D('',#1462,#1194,#1195);
#1014=AXIS2_PLACEMENT_3D('',#1468,#1199,#1200);
#1015=AXIS2_PLACEMENT_3D('',#1474,#1204,#1205);
#1016=AXIS2_PLACEMENT_3D('',#1480,#1209,#1210);
#1017=AXIS2_PLACEMENT_3D('',#1486,#1214,#1215);
#1018=AXIS2_PLACEMENT_3D('',#1492,#1219,#1220);
#1019=AXIS2_PLACEMENT_3D('',#1497,#1224,#1225);
#1020=AXIS2_PLACEMENT_3D('',#1501,#1228,#1229);
#1021=AXIS2_PLACEMENT_3D('',#1505,#1232,#1233);
#1022=AXIS2_PLACEMENT_3D('',#1509,#1236,#1237);
#1023=AXIS2_PLACEMENT_3D('',#1513,#1240,#1241);
#1024=AXIS2_PLACEMENT_3D('',#1517,#1244,#1245);
#1025=AXIS2_PLACEMENT_3D('',#1521,#1248,#1249);
#1026=AXIS2_PLACEMENT_3D('',#1523,#1251,#1252);
#1027=AXIS2_PLACEMENT_3D('',#1524,#1253,#1254);
#1028=AXIS2_PLACEMENT_3D('',#1526,#1256,#1257);
#1029=AXIS2_PLACEMENT_3D('',#1528,#1259,#1260);
#1030=AXIS2_PLACEMENT_3D('',#1530,#1262,#1263);
#1031=AXIS2_PLACEMENT_3D('',#1532,#1265,#1266);
#1032=AXIS2_PLACEMENT_3D('',#1534,#1268,#1269);
#1033=AXIS2_PLACEMENT_3D('',#1536,#1271,#1272);
#1034=AXIS2_PLACEMENT_3D('',#1538,#1274,#1275);
#1035=AXIS2_PLACEMENT_3D('',#1539,#1276,#1277);
#1036=AXIS2_PLACEMENT_3D('',#1549,#1283,#1284);
#1037=AXIS2_PLACEMENT_3D('',#1553,#1287,#1288);
#1038=AXIS2_PLACEMENT_3D('',#1557,#1291,#1292);
#1039=AXIS2_PLACEMENT_3D('',#1561,#1295,#1296);
#1040=AXIS2_PLACEMENT_3D('',#1565,#1299,#1300);
#1041=AXIS2_PLACEMENT_3D('',#1567,#1302,#1303);
#1042=DIRECTION('axis',(0.,0.,1.));
#1043=DIRECTION('refdir',(1.,0.,0.));
#1044=DIRECTION('center_axis',(0.707106764327809,0.707106798045286,0.));
#1045=DIRECTION('ref_axis',(-0.500000011920929,0.499999988079072,0.707106781186547));
#1046=DIRECTION('',(0.707106764327809,0.707106798045286,0.));
#1047=DIRECTION('center_axis',(0.555570213195826,0.831469625548369,0.));
#1048=DIRECTION('ref_axis',(-0.831469625548369,0.555570213195826,0.));
#1049=DIRECTION('',(-0.707106764327809,-0.707106798045286,0.));
#1050=DIRECTION('center_axis',(0.831469599056717,0.555570252843385,-3.85504304064716E-16));
#1051=DIRECTION('ref_axis',(-0.555570252843385,0.831469599056717,-1.938061012209E-15));
#1052=DIRECTION('center_axis',(0.382683410338086,0.92387954163517,0.));
#1053=DIRECTION('ref_axis',(-0.653281488889748,0.270598034497655,0.707106781186548));
#1054=DIRECTION('',(0.382683410338086,0.92387954163517,0.));
#1055=DIRECTION('center_axis',(0.195090298632385,0.980785285054546,0.));
#1056=DIRECTION('ref_axis',(-0.980785285054546,0.195090298632385,0.));
#1057=DIRECTION('',(-0.382683410338086,-0.92387954163517,0.));
#1058=DIRECTION('center_axis',(-0.382683454392094,0.923879523387403,0.));
#1059=DIRECTION('ref_axis',(-0.653281475986626,-0.270598065648545,0.707106781186548));
#1060=DIRECTION('',(-0.382683454392094,0.923879523387403,0.));
#1061=DIRECTION('center_axis',(-0.555570252843383,0.831469599056718,0.));
#1062=DIRECTION('ref_axis',(-0.831469599056718,-0.555570252843383,0.));
#1063=DIRECTION('',(0.382683454392094,-0.923879523387403,0.));
#1064=DIRECTION('center_axis',(0.195090345399869,-0.980785275751915,0.));
#1065=DIRECTION('ref_axis',(0.980785275751915,0.195090345399869,0.));
#1066=DIRECTION('center_axis',(-0.707106798045286,0.707106764327809,0.));
#1067=DIRECTION('ref_axis',(-0.499999988079071,-0.500000011920929,0.707106781186547));
#1068=DIRECTION('',(-0.707106798045286,0.707106764327809,0.));
#1069=DIRECTION('center_axis',(-0.83146962554837,0.555570213195825,0.));
#1070=DIRECTION('ref_axis',(-0.555570213195824,-0.83146962554837,0.));
#1071=DIRECTION('',(0.707106798045286,-0.707106764327809,0.));
#1072=DIRECTION('center_axis',(-0.92387954163517,0.382683410338086,0.));
#1073=DIRECTION('ref_axis',(-0.270598034497655,-0.653281488889748,0.707106781186548));
#1074=DIRECTION('',(-0.92387954163517,0.382683410338086,0.));
#1075=DIRECTION('center_axis',(-0.980785285054546,0.195090298632384,0.));
#1076=DIRECTION('ref_axis',(-0.195090298632384,-0.980785285054546,0.));
#1077=DIRECTION('',(0.92387954163517,-0.382683410338086,0.));
#1078=DIRECTION('center_axis',(-1.,-2.38418571911352E-8,0.));
#1079=DIRECTION('ref_axis',(1.68587382424892E-8,-0.707106781186548,0.707106781186547));
#1080=DIRECTION('',(-1.,-2.38418571911352E-8,0.));
#1081=DIRECTION('center_axis',(-0.980785275751915,-0.195090345399869,0.));
#1082=DIRECTION('ref_axis',(0.195090345399869,-0.980785275751915,0.));
#1083=DIRECTION('',(1.,2.38418571911352E-8,0.));
#1084=DIRECTION('center_axis',(-0.923879523387403,-0.382683454392094,0.));
#1085=DIRECTION('ref_axis',(0.270598065648543,-0.653281475986627,0.707106781186549));
#1086=DIRECTION('',(0.923879523387403,0.382683454392094,0.));
#1087=DIRECTION('',(-0.923879523387403,-0.382683454392094,0.));
#1088=DIRECTION('center_axis',(-0.831469599056717,-0.555570252843384,-5.76947933217884E-16));
#1089=DIRECTION('ref_axis',(0.555570252843384,-0.831469599056717,-2.90051312956661E-15));
#1090=DIRECTION('center_axis',(-0.707106764327809,-0.707106798045286,0.));
#1091=DIRECTION('ref_axis',(0.500000011920929,-0.499999988079071,0.707106781186547));
#1092=DIRECTION('',(0.707106764327808,0.707106798045286,0.));
#1093=DIRECTION('',(-0.707106764327808,-0.707106798045286,0.));
#1094=DIRECTION('center_axis',(-0.555570213195824,-0.83146962554837,0.));
#1095=DIRECTION('ref_axis',(0.83146962554837,-0.555570213195824,0.));
#1096=DIRECTION('center_axis',(-0.382683410338086,-0.92387954163517,0.));
#1097=DIRECTION('ref_axis',(0.653281488889748,-0.270598034497655,0.707106781186547));
#1098=DIRECTION('',(0.382683410338086,0.92387954163517,0.));
#1099=DIRECTION('',(-0.382683410338086,-0.92387954163517,0.));
#1100=DIRECTION('center_axis',(-0.195090298632386,-0.980785285054546,0.));
#1101=DIRECTION('ref_axis',(0.980785285054546,-0.195090298632385,0.));
#1102=DIRECTION('center_axis',(2.38418571911352E-8,-1.,0.));
#1103=DIRECTION('ref_axis',(0.707106781186548,1.68587402051048E-8,0.707106781186547));
#1104=DIRECTION('',(-2.38418571911352E-8,1.,0.));
#1105=DIRECTION('',(2.38418571911352E-8,-1.,0.));
#1106=DIRECTION('center_axis',(0.19509034539987,-0.980785275751915,0.));
#1107=DIRECTION('ref_axis',(0.980785275751915,0.19509034539987,0.));
#1108=DIRECTION('center_axis',(0.382683454392094,-0.923879523387403,0.));
#1109=DIRECTION('ref_axis',(0.653281475986628,0.270598065648542,0.707106781186548));
#1110=DIRECTION('',(-0.382683454392094,0.923879523387403,0.));
#1111=DIRECTION('',(0.382683454392094,-0.923879523387403,0.));
#1112=DIRECTION('center_axis',(0.555570252843382,-0.831469599056718,0.));
#1113=DIRECTION('ref_axis',(0.831469599056718,0.555570252843382,0.));
#1114=DIRECTION('center_axis',(-2.38418571911352E-8,1.,0.));
#1115=DIRECTION('ref_axis',(-0.707106781186548,-1.68587382424892E-8,0.707106781186547));
#1116=DIRECTION('',(-2.38418571911352E-8,1.,0.));
#1117=DIRECTION('',(2.38418571911352E-8,-1.,0.));
#1118=DIRECTION('center_axis',(0.707106798045286,-0.707106764327809,0.));
#1119=DIRECTION('ref_axis',(0.499999988079071,0.500000011920929,0.707106781186547));
#1120=DIRECTION('',(-0.707106798045286,0.707106764327809,0.));
#1121=DIRECTION('',(0.707106798045286,-0.707106764327809,0.));
#1122=DIRECTION('center_axis',(0.83146962554837,-0.555570213195823,0.));
#1123=DIRECTION('ref_axis',(0.555570213195823,0.83146962554837,0.));
#1124=DIRECTION('center_axis',(0.92387954163517,-0.382683410338086,0.));
#1125=DIRECTION('ref_axis',(0.270598034497655,0.653281488889748,0.707106781186547));
#1126=DIRECTION('',(-0.92387954163517,0.382683410338086,0.));
#1127=DIRECTION('',(0.92387954163517,-0.382683410338086,0.));
#1128=DIRECTION('center_axis',(0.980785285054546,-0.195090298632386,0.));
#1129=DIRECTION('ref_axis',(0.195090298632386,0.980785285054546,0.));
#1130=DIRECTION('center_axis',(1.,2.38418571911352E-8,0.));
#1131=DIRECTION('ref_axis',(-1.68587382424892E-8,0.707106781186548,0.707106781186547));
#1132=DIRECTION('',(-1.,-2.38418571911352E-8,0.));
#1133=DIRECTION('',(1.,2.38418571911352E-8,0.));
#1134=DIRECTION('center_axis',(0.980785275751915,0.19509034539987,6.76855604203157E-17));
#1135=DIRECTION('ref_axis',(-0.19509034539987,0.980785275751915,3.40278290947725E-16));
#1136=DIRECTION('center_axis',(0.923879523387403,0.382683454392094,0.));
#1137=DIRECTION('ref_axis',(-0.270598065648544,0.653281475986628,0.707106781186547));
#1138=DIRECTION('',(-0.923879523387403,-0.382683454392094,0.));
#1139=DIRECTION('',(0.923879523387403,0.382683454392094,0.));
#1140=DIRECTION('center_axis',(-1.,-2.38418571911352E-8,0.));
#1141=DIRECTION('ref_axis',(-2.38418571911352E-8,1.,0.));
#1142=DIRECTION('',(0.,0.,-1.));
#1143=DIRECTION('',(-2.38418571911352E-8,1.,0.));
#1144=DIRECTION('',(0.,0.,-1.));
#1145=DIRECTION('center_axis',(-0.92387954163517,0.382683410338086,0.));
#1146=DIRECTION('ref_axis',(0.382683410338086,0.92387954163517,0.));
#1147=DIRECTION('',(0.,0.,-1.));
#1148=DIRECTION('',(0.382683410338086,0.92387954163517,0.));
#1149=DIRECTION('center_axis',(-0.707106798045286,0.707106764327809,0.));
#1150=DIRECTION('ref_axis',(0.707106764327808,0.707106798045286,0.));
#1151=DIRECTION('',(0.,0.,-1.));
#1152=DIRECTION('',(0.707106764327808,0.707106798045286,0.));
#1153=DIRECTION('center_axis',(-0.382683454392094,0.923879523387403,0.));
#1154=DIRECTION('ref_axis',(0.923879523387403,0.382683454392094,0.));
#1155=DIRECTION('',(0.,0.,-1.));
#1156=DIRECTION('',(0.923879523387403,0.382683454392094,0.));
#1157=DIRECTION('center_axis',(-2.38418571911352E-8,1.,0.));
#1158=DIRECTION('ref_axis',(1.,2.38418571911352E-8,0.));
#1159=DIRECTION('',(0.,0.,-1.));
#1160=DIRECTION('',(1.,2.38418571911352E-8,0.));
#1161=DIRECTION('center_axis',(0.382683410338086,0.92387954163517,0.));
#1162=DIRECTION('ref_axis',(0.92387954163517,-0.382683410338086,0.));
#1163=DIRECTION('',(0.,0.,-1.));
#1164=DIRECTION('',(0.92387954163517,-0.382683410338086,0.));
#1165=DIRECTION('center_axis',(0.707106764327809,0.707106798045286,0.));
#1166=DIRECTION('ref_axis',(0.707106798045286,-0.707106764327809,0.));
#1167=DIRECTION('',(0.,0.,-1.));
#1168=DIRECTION('',(0.707106798045286,-0.707106764327809,0.));
#1169=DIRECTION('center_axis',(0.923879523387403,0.382683454392094,0.));
#1170=DIRECTION('ref_axis',(0.382683454392094,-0.923879523387403,0.));
#1171=DIRECTION('',(0.,0.,-1.));
#1172=DIRECTION('',(0.382683454392094,-0.923879523387403,0.));
#1173=DIRECTION('center_axis',(0.,0.,1.));
#1174=DIRECTION('ref_axis',(1.,0.,0.));
#1175=DIRECTION('',(1.,0.,0.));
#1176=DIRECTION('',(0.,1.,0.));
#1177=DIRECTION('',(-1.,0.,0.));
#1178=DIRECTION('',(0.,-1.,0.));
#1179=DIRECTION('center_axis',(-0.707106781186547,-1.68587388959329E-8,
-0.707106781186548));
#1180=DIRECTION('ref_axis',(-0.707106781186548,0.,0.707106781186547));
#1181=DIRECTION('',(2.38418571911352E-8,-1.,0.));
#1182=DIRECTION('',(-0.700214503961828,-0.139281342011565,0.700214507282553));
#1183=DIRECTION('',(-0.700214510603279,0.139281308622737,0.700214507282553));
#1184=DIRECTION('center_axis',(-0.653281475986628,-0.270598065648542,-0.707106781186547));
#1185=DIRECTION('ref_axis',(-0.73450955860807,0.,0.678598340930316));
#1186=DIRECTION('',(0.382683454392094,-0.923879523387403,0.));
#1187=DIRECTION('',(-0.593613186552474,-0.39663967091312,0.700214507282554));
#1188=DIRECTION('',(-0.382683454392094,0.923879523387403,0.));
#1189=DIRECTION('center_axis',(-0.499999988079072,-0.500000011920929,-0.707106781186547));
#1190=DIRECTION('ref_axis',(-0.816496587416657,0.,0.577350260012891));
#1191=DIRECTION('',(0.707106798045286,-0.707106764327809,0.));
#1192=DIRECTION('',(-0.396639642607437,-0.593613205465727,0.700214507282554));
#1193=DIRECTION('',(-0.707106798045286,0.707106764327809,0.));
#1194=DIRECTION('center_axis',(-0.270598034497655,-0.653281488889748,-0.707106781186548));
#1195=DIRECTION('ref_axis',(-0.933948837961422,0.,0.357406726392369));
#1196=DIRECTION('',(0.92387954163517,-0.382683410338086,0.));
#1197=DIRECTION('',(-0.139281308622739,-0.700214510603279,0.700214507282553));
#1198=DIRECTION('',(-0.92387954163517,0.382683410338086,0.));
#1199=DIRECTION('center_axis',(1.68587388959329E-8,-0.707106781186547,-0.707106781186548));
#1200=DIRECTION('ref_axis',(-1.,0.,-2.38418571911352E-8));
#1201=DIRECTION('',(1.,2.38418571911352E-8,0.));
#1202=DIRECTION('',(0.139281342011565,-0.700214503961828,0.700214507282553));
#1203=DIRECTION('',(-1.,-2.38418571911352E-8,0.));
#1204=DIRECTION('center_axis',(0.270598065648542,-0.653281475986628,-0.707106781186547));
#1205=DIRECTION('ref_axis',(-0.933948824227507,0.,-0.357406762280817));
#1206=DIRECTION('',(0.923879523387403,0.382683454392094,0.));
#1207=DIRECTION('',(0.396639670913123,-0.593613186552472,0.700214507282554));
#1208=DIRECTION('',(-0.923879523387403,-0.382683454392094,0.));
#1209=DIRECTION('center_axis',(0.500000011920928,-0.499999988079071,-0.707106781186548));
#1210=DIRECTION('ref_axis',(-0.816496574438795,0.,-0.57735027836636));
#1211=DIRECTION('',(0.707106764327809,0.707106798045286,0.));
#1212=DIRECTION('',(0.593613205465723,-0.396639642607443,0.700214507282553));
#1213=DIRECTION('',(-0.707106764327809,-0.707106798045286,0.));
#1214=DIRECTION('center_axis',(0.653281488889749,-0.270598034497655,-0.707106781186547));
#1215=DIRECTION('ref_axis',(-0.73450955192744,0.,-0.678598348161378));
#1216=DIRECTION('',(0.382683410338086,0.92387954163517,0.));
#1217=DIRECTION('',(0.700214510603277,-0.139281308622739,0.700214507282554));
#1218=DIRECTION('',(-0.382683410338086,-0.92387954163517,0.));
#1219=DIRECTION('center_axis',(0.707106781186548,1.6858738895933E-8,-0.707106781186547));
#1220=DIRECTION('ref_axis',(-0.707106781186547,0.,-0.707106781186548));
#1221=DIRECTION('',(-2.38418571911352E-8,1.,0.));
#1222=DIRECTION('',(0.700214503961827,0.139281342011569,0.700214507282554));
#1223=DIRECTION('',(2.38418571911352E-8,-1.,0.));
#1224=DIRECTION('center_axis',(0.653281475986628,0.270598065648542,-0.707106781186547));
#1225=DIRECTION('ref_axis',(-0.73450955860807,0.,-0.678598340930316));
#1226=DIRECTION('',(-0.382683454392094,0.923879523387403,0.));
#1227=DIRECTION('',(0.593613186552472,0.396639670913123,0.700214507282554));
#1228=DIRECTION('center_axis',(0.499999988079072,0.500000011920928,-0.707106781186547));
#1229=DIRECTION('ref_axis',(-0.816496587416658,0.,-0.577350260012891));
#1230=DIRECTION('',(-0.707106798045286,0.707106764327809,0.));
#1231=DIRECTION('',(0.396639642607442,0.593613205465724,0.700214507282554));
#1232=DIRECTION('center_axis',(0.270598034497655,0.653281488889749,-0.707106781186547));
#1233=DIRECTION('ref_axis',(-0.933948837961422,0.,-0.35740672639237));
#1234=DIRECTION('',(-0.92387954163517,0.382683410338086,0.));
#1235=DIRECTION('',(0.139281308622735,0.700214510603279,0.700214507282554));
#1236=DIRECTION('center_axis',(-1.68587388959329E-8,0.707106781186547,-0.707106781186548));
#1237=DIRECTION('ref_axis',(-1.,0.,2.38418571911352E-8));
#1238=DIRECTION('',(-1.,-2.38418571911352E-8,0.));
#1239=DIRECTION('',(-0.139281342011564,0.700214503961828,0.700214507282553));
#1240=DIRECTION('center_axis',(-0.270598065648542,0.653281475986628,-0.707106781186547));
#1241=DIRECTION('ref_axis',(-0.933948824227507,0.,0.357406762280817));
#1242=DIRECTION('',(-0.923879523387403,-0.382683454392094,0.));
#1243=DIRECTION('',(-0.396639670913121,0.593613186552473,0.700214507282554));
#1244=DIRECTION('center_axis',(-0.500000011920929,0.499999988079072,-0.707106781186547));
#1245=DIRECTION('ref_axis',(-0.816496574438794,0.,0.577350278366361));
#1246=DIRECTION('',(-0.707106764327808,-0.707106798045286,0.));
#1247=DIRECTION('',(-0.593613205465725,0.39663964260744,0.700214507282554));
#1248=DIRECTION('center_axis',(-0.653281488889748,0.270598034497655,-0.707106781186547));
#1249=DIRECTION('ref_axis',(-0.73450955192744,0.,0.678598348161378));
#1250=DIRECTION('',(-0.382683410338086,-0.92387954163517,0.));
#1251=DIRECTION('center_axis',(0.,0.,-1.));
#1252=DIRECTION('ref_axis',(-1.,0.,0.));
#1253=DIRECTION('center_axis',(-0.923879523387403,-0.382683454392094,0.));
#1254=DIRECTION('ref_axis',(-0.382683454392094,0.923879523387403,0.));
#1255=DIRECTION('',(0.,0.,-1.));
#1256=DIRECTION('center_axis',(-0.707106764327809,-0.707106798045286,0.));
#1257=DIRECTION('ref_axis',(-0.707106798045286,0.707106764327809,0.));
#1258=DIRECTION('',(0.,0.,-1.));
#1259=DIRECTION('center_axis',(-0.382683410338086,-0.92387954163517,0.));
#1260=DIRECTION('ref_axis',(-0.92387954163517,0.382683410338086,0.));
#1261=DIRECTION('',(0.,0.,-1.));
#1262=DIRECTION('center_axis',(2.38418571911352E-8,-1.,0.));
#1263=DIRECTION('ref_axis',(-1.,-2.38418571911352E-8,0.));
#1264=DIRECTION('',(0.,0.,-1.));
#1265=DIRECTION('center_axis',(0.382683454392094,-0.923879523387403,0.));
#1266=DIRECTION('ref_axis',(-0.923879523387403,-0.382683454392094,0.));
#1267=DIRECTION('',(0.,0.,-1.));
#1268=DIRECTION('center_axis',(0.707106798045286,-0.707106764327809,0.));
#1269=DIRECTION('ref_axis',(-0.707106764327809,-0.707106798045286,0.));
#1270=DIRECTION('',(0.,0.,-1.));
#1271=DIRECTION('center_axis',(0.92387954163517,-0.382683410338086,0.));
#1272=DIRECTION('ref_axis',(-0.382683410338086,-0.92387954163517,0.));
#1273=DIRECTION('',(0.,0.,-1.));
#1274=DIRECTION('center_axis',(1.,2.38418571911352E-8,0.));
#1275=DIRECTION('ref_axis',(2.38418571911352E-8,-1.,0.));
#1276=DIRECTION('center_axis',(0.,-1.,0.));
#1277=DIRECTION('ref_axis',(0.,0.,-1.));
#1278=DIRECTION('',(0.,0.,1.));
#1279=DIRECTION('',(1.,0.,0.));
#1280=DIRECTION('',(0.,0.,1.));
#1281=DIRECTION('',(0.,0.,-1.));
#1282=DIRECTION('',(-1.,0.,0.));
#1283=DIRECTION('center_axis',(1.,0.,0.));
#1284=DIRECTION('ref_axis',(0.,1.,0.));
#1285=DIRECTION('',(0.,-1.,0.));
#1286=DIRECTION('',(0.,0.,-1.));
#1287=DIRECTION('center_axis',(0.,0.,-1.));
#1288=DIRECTION('ref_axis',(0.,1.,0.));
#1289=DIRECTION('',(0.,-1.,0.));
#1290=DIRECTION('',(-1.,0.,0.));
#1291=DIRECTION('center_axis',(-1.,0.,0.));
#1292=DIRECTION('ref_axis',(0.,0.,1.));
#1293=DIRECTION('',(0.,1.,0.));
#1294=DIRECTION('',(0.,0.,-1.));
#1295=DIRECTION('center_axis',(0.,1.,0.));
#1296=DIRECTION('ref_axis',(0.,0.,1.));
#1297=DIRECTION('',(1.,0.,0.));
#1298=DIRECTION('',(0.,0.,1.));
#1299=DIRECTION('center_axis',(-1.,0.,0.));
#1300=DIRECTION('ref_axis',(0.,-1.,0.));
#1301=DIRECTION('',(0.,-1.,0.));
#1302=DIRECTION('center_axis',(0.,0.,1.));
#1303=DIRECTION('ref_axis',(1.,0.,0.));
#1304=CARTESIAN_POINT('',(0.,0.,0.));
#1305=CARTESIAN_POINT('Origin',(6.22642514023485,2.12520568075914,-0.4));
#1306=CARTESIAN_POINT('',(5.41613634877208,1.88060228909502,-0.4));
#1307=CARTESIAN_POINT('',(6.11939777843162,2.58386375228868,-0.4));
#1308=CARTESIAN_POINT('',(5.94358242101673,2.40804838649027,-0.4));
#1309=CARTESIAN_POINT('',(6.45850140984278,2.35728196143333,0.));
#1310=CARTESIAN_POINT('Origin',(6.45850140984278,2.35728196143333,-0.4));
#1311=CARTESIAN_POINT('',(5.64271815579715,1.54149866848812,0.));
#1312=CARTESIAN_POINT('',(6.22642514023485,2.12520568075914,0.));
#1313=CARTESIAN_POINT('Origin',(5.64271815579715,1.54149866848812,-0.4));
#1314=CARTESIAN_POINT('Origin',(6.77440134279721,3.11993191535394,-0.4));
#1315=CARTESIAN_POINT('',(6.50000010871365,3.50271912188934,-0.4));
#1316=CARTESIAN_POINT('',(6.40484952614314,3.27300527948917,-0.4));
#1317=CARTESIAN_POINT('',(6.90000011061063,3.42315418447422,0.));
#1318=CARTESIAN_POINT('Origin',(6.90000011061063,3.42315418447422,-0.4));
#1319=CARTESIAN_POINT('',(6.77440134279721,3.11993191535394,0.));
#1320=CARTESIAN_POINT('Origin',(6.58410011378406,5.33949589266588,-0.4));
#1321=CARTESIAN_POINT('',(6.50000008500145,4.49728099731995,-0.4));
#1322=CARTESIAN_POINT('',(6.11939771090498,5.41613634877208,-0.4));
#1323=CARTESIAN_POINT('',(6.2145483044291,5.18642251090904,-0.4));
#1324=CARTESIAN_POINT('',(6.45850133151188,5.64271815579714,0.));
#1325=CARTESIAN_POINT('Origin',(6.45850133151188,5.64271815579714,-0.4));
#1326=CARTESIAN_POINT('',(6.90000008310447,4.57684595380856,0.));
#1327=CARTESIAN_POINT('',(6.58410011378406,5.33949589266588,0.));
#1328=CARTESIAN_POINT('Origin',(6.90000008310447,4.57684595380856,-0.4));
#1329=CARTESIAN_POINT('Origin',(5.87479431924086,6.22642514023485,-0.4));
#1330=CARTESIAN_POINT('',(5.41613624771132,6.11939777843162,-0.4));
#1331=CARTESIAN_POINT('',(5.59195161350973,5.94358242101673,-0.4));
#1332=CARTESIAN_POINT('',(5.64271803856667,6.45850140984278,0.));
#1333=CARTESIAN_POINT('Origin',(5.64271803856667,6.45850140984278,-0.4));
#1334=CARTESIAN_POINT('',(5.87479431924086,6.22642514023485,0.));
#1335=CARTESIAN_POINT('Origin',(4.88006808464606,6.77440134279721,-0.4));
#1336=CARTESIAN_POINT('',(4.49728087811066,6.50000010871365,-0.4));
#1337=CARTESIAN_POINT('',(4.72699472051083,6.40484952614314,-0.4));
#1338=CARTESIAN_POINT('',(4.57684581552578,6.90000011061063,0.));
#1339=CARTESIAN_POINT('Origin',(4.57684581552578,6.90000011061063,-0.4));
#1340=CARTESIAN_POINT('',(4.88006808464606,6.77440134279721,0.));
#1341=CARTESIAN_POINT('Origin',(3.75135946200096,6.9000000909295,-0.4));
#1342=CARTESIAN_POINT('',(3.50271900268004,6.50000008500145,-0.4));
#1343=CARTESIAN_POINT('',(3.7513594715377,6.5000000909295,-0.4));
#1344=CARTESIAN_POINT('',(3.42315404619144,6.90000008310447,0.));
#1345=CARTESIAN_POINT('Origin',(3.42315404619144,6.90000008310447,-0.4));
#1346=CARTESIAN_POINT('',(3.75135946200096,6.9000000909295,0.));
#1347=CARTESIAN_POINT('Origin',(2.66050410733412,6.58410011378406,-0.4));
#1348=CARTESIAN_POINT('',(2.35728184420285,6.45850133151188,0.));
#1349=CARTESIAN_POINT('',(2.66050410733412,6.58410011378406,0.));
#1350=CARTESIAN_POINT('',(2.58386365122792,6.11939771090498,-0.4));
#1351=CARTESIAN_POINT('',(2.81357748909095,6.2145483044291,-0.4));
#1352=CARTESIAN_POINT('Origin',(2.35728184420285,6.45850133151188,-0.4));
#1353=CARTESIAN_POINT('Origin',(1.77357485976515,5.87479431924086,-0.4));
#1354=CARTESIAN_POINT('',(1.54149859015722,5.64271803856667,0.));
#1355=CARTESIAN_POINT('',(1.77357485976515,5.87479431924086,0.));
#1356=CARTESIAN_POINT('',(1.88060222156838,5.41613624771132,-0.4));
#1357=CARTESIAN_POINT('',(2.05641757898327,5.59195161350973,-0.4));
#1358=CARTESIAN_POINT('Origin',(1.54149859015722,5.64271803856667,-0.4));
#1359=CARTESIAN_POINT('Origin',(1.22559865720279,4.88006808464606,-0.4));
#1360=CARTESIAN_POINT('',(1.09999988938937,4.57684581552578,0.));
#1361=CARTESIAN_POINT('',(1.22559865720279,4.88006808464606,0.));
#1362=CARTESIAN_POINT('',(1.49999989128635,4.49728087811066,-0.4));
#1363=CARTESIAN_POINT('',(1.59515047385686,4.72699472051083,-0.4));
#1364=CARTESIAN_POINT('Origin',(1.09999988938937,4.57684581552578,-0.4));
#1365=CARTESIAN_POINT('Origin',(1.0999999090705,3.75135946200096,-0.4));
#1366=CARTESIAN_POINT('',(1.09999991689553,3.42315404619144,0.));
#1367=CARTESIAN_POINT('',(1.0999999090705,3.75135946200096,0.));
#1368=CARTESIAN_POINT('',(1.49999991499855,3.50271900268005,-0.4));
#1369=CARTESIAN_POINT('',(1.4999999090705,3.7513594715377,-0.4));
#1370=CARTESIAN_POINT('Origin',(1.09999991689553,3.42315404619144,-0.4));
#1371=CARTESIAN_POINT('Origin',(1.41589988621594,2.66050410733412,-0.4));
#1372=CARTESIAN_POINT('',(1.54149866848812,2.35728184420285,0.));
#1373=CARTESIAN_POINT('',(1.41589988621594,2.66050410733412,0.));
#1374=CARTESIAN_POINT('',(1.88060228909502,2.58386365122792,-0.4));
#1375=CARTESIAN_POINT('',(1.7854516955709,2.81357748909095,-0.4));
#1376=CARTESIAN_POINT('Origin',(1.54149866848812,2.35728184420285,-0.4));
#1377=CARTESIAN_POINT('Origin',(6.9000000909295,4.24864053799904,-0.4));
#1378=CARTESIAN_POINT('',(6.5000000909295,4.2486405284623,-0.4));
#1379=CARTESIAN_POINT('',(6.9000000909295,4.24864053799904,0.));
#1380=CARTESIAN_POINT('Origin',(2.12520568075914,1.77357485976515,-0.4));
#1381=CARTESIAN_POINT('',(2.35728196143333,1.54149859015722,0.));
#1382=CARTESIAN_POINT('',(2.12520568075914,1.77357485976515,0.));
#1383=CARTESIAN_POINT('',(2.58386375228868,1.88060222156838,-0.4));
#1384=CARTESIAN_POINT('',(2.40804838649027,2.05641757898327,-0.4));
#1385=CARTESIAN_POINT('Origin',(2.35728196143333,1.54149859015722,-0.4));
#1386=CARTESIAN_POINT('Origin',(3.11993191535394,1.22559865720279,-0.4));
#1387=CARTESIAN_POINT('',(3.42315418447421,1.09999988938937,0.));
#1388=CARTESIAN_POINT('',(3.11993191535394,1.22559865720279,0.));
#1389=CARTESIAN_POINT('',(3.50271912188933,1.49999989128635,-0.4));
#1390=CARTESIAN_POINT('',(3.27300527948917,1.59515047385686,-0.4));
#1391=CARTESIAN_POINT('Origin',(3.42315418447421,1.09999988938937,-0.4));
#1392=CARTESIAN_POINT('Origin',(4.24864053799904,1.0999999090705,-0.4));
#1393=CARTESIAN_POINT('',(4.57684595380856,1.09999991689553,0.));
#1394=CARTESIAN_POINT('',(4.24864053799904,1.0999999090705,0.));
#1395=CARTESIAN_POINT('',(4.49728099731995,1.49999991499855,-0.4));
#1396=CARTESIAN_POINT('',(4.2486405284623,1.4999999090705,-0.4));
#1397=CARTESIAN_POINT('Origin',(4.57684595380856,1.09999991689553,-0.4));
#1398=CARTESIAN_POINT('Origin',(5.33949589266588,1.41589988621594,-0.4));
#1399=CARTESIAN_POINT('',(5.33949589266588,1.41589988621594,0.));
#1400=CARTESIAN_POINT('',(5.18642251090904,1.7854516955709,-0.4));
#1401=CARTESIAN_POINT('Origin',(1.49999991499855,3.50271900268005,0.));
#1402=CARTESIAN_POINT('',(1.49999989128635,4.49728087811066,-2.6));
#1403=CARTESIAN_POINT('',(1.49999989128635,4.49728087811066,0.));
#1404=CARTESIAN_POINT('',(1.49999991499855,3.50271900268005,-2.6));
#1405=CARTESIAN_POINT('',(1.4999999090705,3.7513594715377,-2.6));
#1406=CARTESIAN_POINT('',(1.49999991499855,3.50271900268005,0.));
#1407=CARTESIAN_POINT('Origin',(1.49999989128635,4.49728087811066,0.));
#1408=CARTESIAN_POINT('',(1.88060222156838,5.41613624771132,-2.6));
#1409=CARTESIAN_POINT('',(1.88060222156838,5.41613624771132,0.));
#1410=CARTESIAN_POINT('',(1.59515047385686,4.72699472051083,-2.6));
#1411=CARTESIAN_POINT('Origin',(1.88060222156838,5.41613624771132,0.));
#1412=CARTESIAN_POINT('',(2.58386365122792,6.11939771090498,-2.6));
#1413=CARTESIAN_POINT('',(2.58386365122792,6.11939771090498,0.));
#1414=CARTESIAN_POINT('',(2.05641757898327,5.59195161350973,-2.6));
#1415=CARTESIAN_POINT('Origin',(2.58386365122792,6.11939771090498,0.));
#1416=CARTESIAN_POINT('',(3.50271900268004,6.50000008500145,-2.6));
#1417=CARTESIAN_POINT('',(3.50271900268004,6.50000008500145,0.));
#1418=CARTESIAN_POINT('',(2.81357748909095,6.2145483044291,-2.6));
#1419=CARTESIAN_POINT('Origin',(3.50271900268004,6.50000008500145,0.));
#1420=CARTESIAN_POINT('',(4.49728087811066,6.50000010871365,-2.6));
#1421=CARTESIAN_POINT('',(4.49728087811066,6.50000010871365,0.));
#1422=CARTESIAN_POINT('',(3.7513594715377,6.5000000909295,-2.6));
#1423=CARTESIAN_POINT('Origin',(4.49728087811066,6.50000010871365,0.));
#1424=CARTESIAN_POINT('',(5.41613624771132,6.11939777843162,-2.6));
#1425=CARTESIAN_POINT('',(5.41613624771132,6.11939777843162,0.));
#1426=CARTESIAN_POINT('',(4.72699472051083,6.40484952614314,-2.6));
#1427=CARTESIAN_POINT('Origin',(5.41613624771132,6.11939777843162,0.));
#1428=CARTESIAN_POINT('',(6.11939771090498,5.41613634877208,-2.6));
#1429=CARTESIAN_POINT('',(6.11939771090498,5.41613634877208,0.));
#1430=CARTESIAN_POINT('',(5.59195161350973,5.94358242101673,-2.6));
#1431=CARTESIAN_POINT('Origin',(6.11939771090498,5.41613634877208,0.));
#1432=CARTESIAN_POINT('',(6.50000008500145,4.49728099731995,-2.6));
#1433=CARTESIAN_POINT('',(6.50000008500145,4.49728099731995,0.));
#1434=CARTESIAN_POINT('',(6.2145483044291,5.18642251090904,-2.6));
#1435=CARTESIAN_POINT('Origin',(4.,4.,0.));
#1436=CARTESIAN_POINT('',(0.,7.5,0.));
#1437=CARTESIAN_POINT('',(8.,7.5,0.));
#1438=CARTESIAN_POINT('',(6.,7.5,0.));
#1439=CARTESIAN_POINT('',(8.,0.5,0.));
#1440=CARTESIAN_POINT('',(8.,0.,0.));
#1441=CARTESIAN_POINT('',(0.,0.5,0.));
#1442=CARTESIAN_POINT('',(2.,0.5,0.));
#1443=CARTESIAN_POINT('',(0.,8.,0.));
#1444=CARTESIAN_POINT('Origin',(1.6999999090705,3.75135947630607,-2.8));
#1445=CARTESIAN_POINT('',(1.89999989318333,4.41771594069554,-3.));
#1446=CARTESIAN_POINT('',(1.89999991310158,3.58228395916865,-3.));
#1447=CARTESIAN_POINT('',(1.8999999090705,3.75135948107444,-3.));
#1448=CARTESIAN_POINT('',(1.89999991310158,3.58228395916865,-3.));
#1449=CARTESIAN_POINT('',(1.89999989318333,4.41771594069554,-3.));
#1450=CARTESIAN_POINT('Origin',(1.97022760024838,2.89011417996937,-2.8));
#1451=CARTESIAN_POINT('',(2.21970590970192,2.81044545825299,-3.));
#1452=CARTESIAN_POINT('',(2.15500350492586,2.96665087084779,-3.));
#1453=CARTESIAN_POINT('',(1.88060228909502,2.58386365122792,-2.6));
#1454=CARTESIAN_POINT('',(2.21970590970192,2.81044545825299,-3.));
#1455=CARTESIAN_POINT('',(1.7854516955709,2.81357748909095,-2.6));
#1456=CARTESIAN_POINT('Origin',(2.54946973935583,2.19783893859232,-2.8));
#1457=CARTESIAN_POINT('',(2.81044554314403,2.21970585297954,-3.));
#1458=CARTESIAN_POINT('',(2.69089109222139,2.33926029820138,-3.));
#1459=CARTESIAN_POINT('',(2.58386375228868,1.88060222156838,-2.6));
#1460=CARTESIAN_POINT('',(2.81044554314403,2.21970585297954,-3.));
#1461=CARTESIAN_POINT('',(2.40804838649027,2.05641757898327,-2.6));
#1462=CARTESIAN_POINT('Origin',(3.34954196155679,1.77992638218389,-2.8));
#1463=CARTESIAN_POINT('',(3.58228405930446,1.89999989318333,-3.));
#1464=CARTESIAN_POINT('',(3.42607864362441,1.96470229051093,-3.));
#1465=CARTESIAN_POINT('',(3.50271912188933,1.49999989128635,-2.6));
#1466=CARTESIAN_POINT('',(3.58228405930446,1.89999989318333,-3.));
#1467=CARTESIAN_POINT('',(3.27300527948917,1.59515047385686,-2.6));
#1468=CARTESIAN_POINT('Origin',(4.24864052369393,1.6999999090705,-2.8));
#1469=CARTESIAN_POINT('',(4.41771604083135,1.89999991310158,-3.));
#1470=CARTESIAN_POINT('',(4.24864051892556,1.8999999090705,-3.));
#1471=CARTESIAN_POINT('',(4.49728099731995,1.49999991499855,-2.6));
#1472=CARTESIAN_POINT('',(4.41771604083135,1.89999991310158,-3.));
#1473=CARTESIAN_POINT('',(4.2486405284623,1.4999999090705,-2.6));
#1474=CARTESIAN_POINT('Origin',(5.10988582003063,1.97022760024838,-2.8));
#1475=CARTESIAN_POINT('',(5.18955454174701,2.21970590970192,-3.));
#1476=CARTESIAN_POINT('',(5.03334912915221,2.15500350492586,-3.));
#1477=CARTESIAN_POINT('',(5.41613634877208,1.88060228909502,-2.6));
#1478=CARTESIAN_POINT('',(5.18955454174701,2.21970590970192,-3.));
#1479=CARTESIAN_POINT('',(5.18642251090904,1.7854516955709,-2.6));
#1480=CARTESIAN_POINT('Origin',(5.80216106140767,2.54946973935583,-2.8));
#1481=CARTESIAN_POINT('',(5.78029414702046,2.81044554314403,-3.));
#1482=CARTESIAN_POINT('',(5.66073970179862,2.69089109222139,-3.));
#1483=CARTESIAN_POINT('',(6.11939777843162,2.58386375228868,-2.6));
#1484=CARTESIAN_POINT('',(5.78029414702046,2.81044554314403,-3.));
#1485=CARTESIAN_POINT('',(5.94358242101673,2.40804838649027,-2.6));
#1486=CARTESIAN_POINT('Origin',(6.22007361781611,3.34954196155679,-2.8));
#1487=CARTESIAN_POINT('',(6.10000010681667,3.58228405930446,-3.));
#1488=CARTESIAN_POINT('',(6.03529770948907,3.42607864362441,-3.));
#1489=CARTESIAN_POINT('',(6.50000010871365,3.50271912188934,-2.6));
#1490=CARTESIAN_POINT('',(6.10000010681667,3.58228405930446,-3.));
#1491=CARTESIAN_POINT('',(6.40484952614314,3.27300527948917,-2.6));
#1492=CARTESIAN_POINT('Origin',(6.3000000909295,4.24864052369393,-2.8));
#1493=CARTESIAN_POINT('',(6.10000008689842,4.41771604083135,-3.));
#1494=CARTESIAN_POINT('',(6.1000000909295,4.24864051892556,-3.));
#1495=CARTESIAN_POINT('',(6.10000008689842,4.41771604083135,-3.));
#1496=CARTESIAN_POINT('',(6.5000000909295,4.2486405284623,-2.6));
#1497=CARTESIAN_POINT('Origin',(6.02977239975161,5.10988582003063,-2.8));
#1498=CARTESIAN_POINT('',(5.78029409029808,5.18955454174701,-3.));
#1499=CARTESIAN_POINT('',(5.84499649507413,5.03334912915221,-3.));
#1500=CARTESIAN_POINT('',(5.78029409029808,5.18955454174701,-3.));
#1501=CARTESIAN_POINT('Origin',(5.45053026064417,5.80216106140767,-2.8));
#1502=CARTESIAN_POINT('',(5.18955445685597,5.78029414702046,-3.));
#1503=CARTESIAN_POINT('',(5.30910890777861,5.66073970179862,-3.));
#1504=CARTESIAN_POINT('',(5.18955445685597,5.78029414702046,-3.));
#1505=CARTESIAN_POINT('Origin',(4.65045803844321,6.22007361781611,-2.8));
#1506=CARTESIAN_POINT('',(4.41771594069554,6.10000010681667,-3.));
#1507=CARTESIAN_POINT('',(4.57392135637559,6.03529770948907,-3.));
#1508=CARTESIAN_POINT('',(4.41771594069554,6.10000010681667,-3.));
#1509=CARTESIAN_POINT('Origin',(3.75135947630607,6.3000000909295,-2.8));
#1510=CARTESIAN_POINT('',(3.58228395916865,6.10000008689842,-3.));
#1511=CARTESIAN_POINT('',(3.75135948107444,6.1000000909295,-3.));
#1512=CARTESIAN_POINT('',(3.58228395916865,6.10000008689842,-3.));
#1513=CARTESIAN_POINT('Origin',(2.89011417996937,6.02977239975161,-2.8));
#1514=CARTESIAN_POINT('',(2.81044545825299,5.78029409029808,-3.));
#1515=CARTESIAN_POINT('',(2.96665087084779,5.84499649507413,-3.));
#1516=CARTESIAN_POINT('',(2.81044545825299,5.78029409029808,-3.));
#1517=CARTESIAN_POINT('Origin',(2.19783893859232,5.45053026064417,-2.8));
#1518=CARTESIAN_POINT('',(2.21970585297954,5.18955445685597,-3.));
#1519=CARTESIAN_POINT('',(2.33926029820138,5.30910890777861,-3.));
#1520=CARTESIAN_POINT('',(2.21970585297954,5.18955445685597,-3.));
#1521=CARTESIAN_POINT('Origin',(1.77992638218389,4.65045803844321,-2.8));
#1522=CARTESIAN_POINT('',(1.96470229051093,4.57392135637559,-3.));
#1523=CARTESIAN_POINT('Origin',(4.,4.,-3.));
#1524=CARTESIAN_POINT('Origin',(1.88060228909502,2.58386365122792,0.));
#1525=CARTESIAN_POINT('',(1.88060228909502,2.58386365122792,0.));
#1526=CARTESIAN_POINT('Origin',(2.58386375228868,1.88060222156838,0.));
#1527=CARTESIAN_POINT('',(2.58386375228868,1.88060222156838,0.));
#1528=CARTESIAN_POINT('Origin',(3.50271912188933,1.49999989128635,0.));
#1529=CARTESIAN_POINT('',(3.50271912188933,1.49999989128635,0.));
#1530=CARTESIAN_POINT('Origin',(4.49728099731995,1.49999991499855,0.));
#1531=CARTESIAN_POINT('',(4.49728099731995,1.49999991499855,0.));
#1532=CARTESIAN_POINT('Origin',(5.41613634877208,1.88060228909502,0.));
#1533=CARTESIAN_POINT('',(5.41613634877208,1.88060228909502,0.));
#1534=CARTESIAN_POINT('Origin',(6.11939777843162,2.58386375228868,0.));
#1535=CARTESIAN_POINT('',(6.11939777843162,2.58386375228868,0.));
#1536=CARTESIAN_POINT('Origin',(6.50000010871365,3.50271912188934,0.));
#1537=CARTESIAN_POINT('',(6.50000010871365,3.50271912188934,0.));
#1538=CARTESIAN_POINT('Origin',(6.50000008500145,4.49728099731995,0.));
#1539=CARTESIAN_POINT('Origin',(8.,7.5,0.));
#1540=CARTESIAN_POINT('',(15.,7.5,7.00000010430813));
#1541=CARTESIAN_POINT('',(15.,7.5,10.));
#1542=CARTESIAN_POINT('',(15.,7.5,4.25000002607703));
#1543=CARTESIAN_POINT('',(8.,7.5,7.00000010430813));
#1544=CARTESIAN_POINT('',(8.,7.5,7.00000010430813));
#1545=CARTESIAN_POINT('',(8.,7.5,0.));
#1546=CARTESIAN_POINT('',(0.,7.5,10.));
#1547=CARTESIAN_POINT('',(0.,7.5,0.));
#1548=CARTESIAN_POINT('',(6.,7.5,10.));
#1549=CARTESIAN_POINT('Origin',(8.,0.,0.));
#1550=CARTESIAN_POINT('',(8.,0.5,7.00000010430813));
#1551=CARTESIAN_POINT('',(8.,0.,7.00000010430813));
#1552=CARTESIAN_POINT('',(8.,0.5,0.));
#1553=CARTESIAN_POINT('Origin',(8.,0.,7.00000010430813));
#1554=CARTESIAN_POINT('',(15.,0.5,7.00000010430813));
#1555=CARTESIAN_POINT('',(15.,2.,7.00000010430813));
#1556=CARTESIAN_POINT('',(4.,0.5,7.00000010430813));
#1557=CARTESIAN_POINT('Origin',(15.,4.,8.50000005215406));
#1558=CARTESIAN_POINT('',(15.,0.5,10.));
#1559=CARTESIAN_POINT('',(15.,4.,10.));
#1560=CARTESIAN_POINT('',(15.,0.5,4.25000002607703));
#1561=CARTESIAN_POINT('Origin',(0.,0.5,0.));
#1562=CARTESIAN_POINT('',(0.,0.5,10.));
#1563=CARTESIAN_POINT('',(2.,0.5,10.));
#1564=CARTESIAN_POINT('',(0.,0.5,0.));
#1565=CARTESIAN_POINT('Origin',(0.,8.,0.));
#1566=CARTESIAN_POINT('',(0.,8.,10.));
#1567=CARTESIAN_POINT('Origin',(4.,4.,10.));
#1568=UNCERTAINTY_MEASURE_WITH_UNIT(LENGTH_MEASURE(0.01),#1572,
'DISTANCE_ACCURACY_VALUE',
'Maximum model space distance between geometric entities at asserted c
onnectivities');
#1569=UNCERTAINTY_MEASURE_WITH_UNIT(LENGTH_MEASURE(0.01),#1572,
'DISTANCE_ACCURACY_VALUE',
'Maximum model space distance between geometric entities at asserted c
onnectivities');
#1570=(
GEOMETRIC_REPRESENTATION_CONTEXT(3)
GLOBAL_UNCERTAINTY_ASSIGNED_CONTEXT((#1568))
GLOBAL_UNIT_ASSIGNED_CONTEXT((#1572,#1574,#1575))
REPRESENTATION_CONTEXT('','3D')
);
#1571=(
GEOMETRIC_REPRESENTATION_CONTEXT(3)
GLOBAL_UNCERTAINTY_ASSIGNED_CONTEXT((#1569))
GLOBAL_UNIT_ASSIGNED_CONTEXT((#1572,#1574,#1575))
REPRESENTATION_CONTEXT('','3D')
);
#1572=(
LENGTH_UNIT()
NAMED_UNIT(*)
SI_UNIT(.MILLI.,.METRE.)
);
#1573=(
LENGTH_UNIT()
NAMED_UNIT(*)
SI_UNIT($,.METRE.)
);
#1574=(
NAMED_UNIT(*)
PLANE_ANGLE_UNIT()
SI_UNIT($,.RADIAN.)
);
#1575=(
NAMED_UNIT(*)
SI_UNIT($,.STERADIAN.)
SOLID_ANGLE_UNIT()
);
#1576=SHAPE_DEFINITION_REPRESENTATION(#1577,#1578);
#1577=PRODUCT_DEFINITION_SHAPE('',$,#1580);
#1578=SHAPE_REPRESENTATION('',(#968),#1570);
#1579=PRODUCT_DEFINITION_CONTEXT('part definition',#1584,'design');
#1580=PRODUCT_DEFINITION('in_base_raspi_stopper2',
'in_base_raspi_stopper2 v7',#1581,#1579);
#1581=PRODUCT_DEFINITION_FORMATION('',$,#1586);
#1582=PRODUCT_RELATED_PRODUCT_CATEGORY('in_base_raspi_stopper2 v7',
'in_base_raspi_stopper2 v7',(#1586));
#1583=APPLICATION_PROTOCOL_DEFINITION('international standard',
'automotive_design',2009,#1584);
#1584=APPLICATION_CONTEXT(
'Core Data for Automotive Mechanical Design Process');
#1585=PRODUCT_CONTEXT('part definition',#1584,'mechanical');
#1586=PRODUCT('in_base_raspi_stopper2','in_base_raspi_stopper2 v7',$,(#1585));
#1587=PRESENTATION_STYLE_ASSIGNMENT((#1588));
#1588=SURFACE_STYLE_USAGE(.BOTH.,#1589);
#1589=SURFACE_SIDE_STYLE('',(#1590));
#1590=SURFACE_STYLE_FILL_AREA(#1591);
#1591=FILL_AREA_STYLE('\X2\92FC\X0\ - \X2\30B530C630F3\X0\',(#1592));
#1592=FILL_AREA_STYLE_COLOUR('\X2\92FC\X0\ - \X2\30B530C630F3\X0\',#1593);
#1593=COLOUR_RGB('\X2\92FC\X0\ - \X2\30B530C630F3\X0\',0.627450980392157,
0.627450980392157,0.627450980392157);
ENDSEC;
END-ISO-10303-21;
